<svg width="30" height="21" viewBox="0 0 30 21" fill="none" xmlns="http://www.w3.org/2000/svg">
<rect x="0.5" y="1.10938" width="28.0909" height="19" rx="1.5" fill="white"/>
<path d="M20.0663 12.1475C17.4887 12.7097 14.9687 13.3872 12.4729 14.2493C12.1563 14.3661 11.9782 14.7015 12.0614 15.0103C12.2598 15.746 12.3591 16.115 12.5599 16.853C12.6542 17.1997 13.0424 17.3771 13.3989 17.2406C15.8939 16.3424 18.4129 15.5581 20.988 14.9293C21.235 14.8691 21.357 14.5777 21.2652 14.2773C21.0625 13.6148 20.9602 13.2842 20.7517 12.6246C20.6494 12.3005 20.3504 12.0887 20.0663 12.1475Z" fill="#D03732"/>
<path d="M20.1157 7.72771C15.9876 8.25671 11.967 9.28261 8.15513 10.9781C7.87707 11.1102 7.71114 11.4617 7.76944 11.7715C7.91884 12.564 7.994 12.9607 8.14653 13.7546C8.21167 14.0941 8.52729 14.2503 8.8384 14.0978C12.7103 12.3152 16.8014 11.1809 20.9988 10.5042C21.2656 10.4602 21.4017 10.1526 21.2996 9.83597C21.0882 9.17947 20.9814 8.85172 20.7635 8.19837C20.6623 7.89477 20.3874 7.69195 20.1157 7.72771Z" fill="#F7D549"/>
<path d="M17.9107 3.61279C15.2737 3.9396 12.7265 4.42269 10.1733 5.16619C9.84087 5.27114 9.63613 5.64494 9.71996 5.97689C9.90655 6.71613 10.0006 7.08678 10.1905 7.82823C10.2708 8.14172 10.5846 8.30262 10.9028 8.19634C13.5115 7.38939 16.1267 6.83744 18.8249 6.43568C19.1342 6.39411 19.3028 6.07264 19.1891 5.75019C18.9496 5.07076 18.8291 4.73197 18.5843 4.05646C18.4803 3.76966 18.1985 3.58139 17.9107 3.61279Z" fill="#27417F"/>
<rect x="0.5" y="1.10938" width="28.0909" height="19" rx="1.5" stroke="#D4D9E3"/>
</svg>
