<svg width="30" height="20" viewBox="0 0 17 12" xmlns="http://www.w3.org/2000/svg"><title>icon_boleto</title><g fill="none" fill-rule="evenodd"><rect fill="#2698D5" width="16.629" height="12" rx="3"/><g fill="#FFF"><path d="M2.39 2.503h1.6V9.77h-1.6zM5.047 2.503h1V9.77h-1zM14.079 2.503h1V9.77h-1z"/><path d="M5.844 2.503h1V9.77h-1z"/><path d="M6.64 2.503h1.136V9.77H6.64zM8.235 2.503h1V9.77h-1zM9.297 2.503h1V9.77h-1zM10.36 2.503h1V9.77h-1z"/><path d="M11.157 2.503h1V9.77h-1zM12.219 2.503h1V9.77h-1z"/><path d="M13.016 2.503h1V9.77h-1z"/></g></g></svg>
