<?xml version="1.0" encoding="UTF-8"?>
<svg width="30px" height="20px" viewBox="0 0 30 20" version="1.1" xmlns="http://www.w3.org/2000/svg" xmlns:xlink="http://www.w3.org/1999/xlink">
    <!-- Generator: Sketch 63.1 (92452) - https://sketch.com -->
    <title>payment-icon/container copy 5</title>
    <desc>Created with Sketch.</desc>
    <defs>
        <rect id="path-1" x="0" y="0" width="30" height="20" rx="2"></rect>
        <polygon id="path-3" points="0 0 16.3828654 0 16.3828654 15.9684227 0 15.9684227"></polygon>
    </defs>
    <g id="Symbols" stroke="none" stroke-width="1" fill="none" fill-rule="evenodd">
        <g id="payment-icon/container">
            <g id="boleto-icon">
                <mask id="mask-2" fill="white">
                    <use xlink:href="#path-1"></use>
                </mask>
                <g id="Mask" fill-rule="nonzero"></g>
                <g id="payment-icon/efecty" mask="url(#mask-2)">
                    <rect id="Rectangle-2" fill="#FFDC00" fill-rule="nonzero" x="0" y="0" width="30" height="20"></rect>
                    <g id="Group-3" stroke-width="1" fill-rule="evenodd" transform="translate(6.500000, 2.000000)">
                        <mask id="mask-4" fill="white">
                            <use xlink:href="#path-3"></use>
                        </mask>
                        <g id="Clip-2"></g>
                        <path d="M15.5666622,7.98415518 C14.8465017,11.7588174 11.3764281,14.8665097 7.60663545,15.2628174 C7.3069699,15.2531318 7.30215385,15.0839813 7.29246823,14.8326903 C7.3069699,14.3107371 7.32628763,13.7839144 7.3407893,13.2619077 C7.34560535,13.1845298 7.31665552,13.1603425 7.28278261,13.1507104 C6.89616054,13.1120749 6.51435452,13.0251184 6.13741806,12.909105 C5.73137124,12.7495866 5.32061538,12.5176669 4.90975251,12.2517137 C4.72128428,12.1599946 4.74541806,11.724998 4.75023411,11.5558475 C4.78410702,11.2464963 5.01126421,10.5263358 5.37851505,10.4925164 C5.81838127,10.4683826 6.02616722,10.7003559 6.46116388,10.9130649 C7.22482943,11.2755532 8.29292308,11.4881552 9.08548495,11.1159813 C9.46729097,10.884008 9.55917057,10.5698943 9.38038796,10.1736401 C9.07098328,9.52593445 7.58731773,8.99424214 6.91547826,8.67049632 C5.30611371,7.98415518 4.40717057,6.59226221 4.69228094,4.93457659 C4.90493645,3.7117806 6.05040803,2.78383411 7.24896321,2.61468361 L7.24896321,2.02985418 C5.7700602,2.46003478 4.64390635,3.31065686 3.6338194,4.30137258 C2.16947157,5.73195452 1.30911037,7.53952642 1.23660201,9.84973378 C1.3526689,12.6771318 2.82188629,13.9289311 4.35879599,14.8665097 C1.71997324,13.8466836 0.212013378,11.1498007 0.816214047,7.98415518 C1.5556388,4.10803478 5.19004682,0.937573244 9.0806689,0.681412709 C9.23537124,0.773238796 9.24500334,0.78779398 9.32725084,0.995579933 C9.29332441,1.48371371 9.26432107,1.971901 9.23055518,2.46003478 C9.99892977,2.61468361 10.7239064,2.83215518 11.3088428,3.32997458 C11.3281605,4.45120535 10.4871171,4.9200214 10.1680803,4.75081739 C10.1825819,4.69773378 8.90183278,4.34487759 8.63609365,4.28205485 C8.31229431,4.22891773 7.99325753,4.24823545 7.67422074,4.39330569 C7.29733779,4.57198127 7.11850167,4.83782742 7.29733779,5.25350635 C7.45193311,5.56280401 7.70820067,5.76582742 7.98838796,5.93984749 C8.79561204,6.37473712 9.60267559,6.81460334 10.4098997,7.24954649 C11.1057124,7.64098462 11.6035318,8.14848963 11.9225151,8.76232241 C12.1544883,9.37128562 12.2076254,9.98993445 12.0724013,10.6181619 C11.9129365,11.1304829 11.7195452,11.5751117 11.4247492,11.8554595 C11.1782742,12.1357003 10.9075585,12.3532789 10.6176856,12.5079813 C10.2067157,12.7254528 9.79595987,12.9187371 9.37070234,12.9863759 C9.35620067,13.247406 9.34656856,13.503513 9.33206689,13.7645431 C9.36588629,13.7839144 9.39970569,13.7742288 9.43834114,13.7645431 C10.351786,13.4697472 11.1541405,12.9525565 11.9370702,12.3870983 C12.9520803,11.4929712 13.899291,10.5553926 14.3971639,9.34222876 C14.7354649,8.66568027 14.996388,7.91646288 15.1220334,7.03694448 C15.3974582,4.57198127 14.4985151,2.25219532 11.8402676,1.03421538 C14.5904482,1.99603478 16.1854181,4.74600134 15.5666622,7.98415518 M9.71874247,-5.35117057e-06 C5.2722408,-5.35117057e-06 0.990180602,3.57157993 0.14432107,7.98415518 C-0.696561873,12.3967839 2.22255518,15.9684227 6.66905686,15.9684227 C11.1105284,15.9684227 15.3974582,12.3967839 16.2385017,7.98415518 C17.0794916,3.57157993 14.160214,-5.35117057e-06 9.71874247,-5.35117057e-06" id="Fill-1" fill="#020203" mask="url(#mask-4)"></path>
                    </g>
                </g>
            </g>
        </g>
    </g>
</svg>