<svg width="32" height="22" viewBox="0 0 32 22" fill="none" xmlns="http://www.w3.org/2000/svg">
  <rect width="32" height="22" rx="2" fill="#6200EE"/>
  <path fill-rule="evenodd" clip-rule="evenodd" d="M8.07885 8.03305C8.13665 8.01079 8.19508 8 8.254 8C8.29595 8 8.33835 8.00562 8.38055 8.01664C8.48543 8.04654 8.56998 8.10478 8.6345 8.19112C8.69897 8.27521 8.73113 8.37122 8.73113 8.47937V13.3569C8.73113 13.4893 8.68401 13.6018 8.5901 13.694C8.49902 13.7884 8.38747 13.8361 8.25599 13.8361C8.12437 13.8361 8.01145 13.7884 7.9175 13.694C7.82376 13.6018 7.77668 13.4893 7.77668 13.3569V10.1999C7.77668 10.1999 6.25407 12.7312 6.24805 12.7408C6.20409 12.8139 6.13513 12.8645 6.05881 12.8996C6.00012 12.927 5.93451 12.9423 5.86578 12.9423C5.7966 12.9423 5.73122 12.927 5.6723 12.8996C5.59621 12.8645 5.52658 12.8155 5.48329 12.7413C5.4757 12.7287 3.95466 10.1999 3.95466 10.1999V13.3569C3.95466 13.4893 3.9078 13.6018 3.81363 13.694C3.71968 13.7884 3.60676 13.8361 3.47555 13.8361C3.34366 13.8361 3.23231 13.7884 3.14104 13.694C3.04709 13.6018 3 13.4893 3 13.3569V8.47937C3 8.37122 3.03213 8.27521 3.09663 8.19112C3.16112 8.10478 3.24592 8.04654 3.35058 8.01664C3.3932 8.00562 3.43538 8 3.47733 8C3.53625 8 3.59449 8.01079 3.65251 8.03305C3.75182 8.07352 3.82992 8.13963 3.88616 8.23204L5.86578 11.5274L7.84496 8.23204C7.90142 8.13963 7.97953 8.07352 8.07885 8.03305ZM12.6989 8.27454C12.7551 8.15537 12.8564 8 13.1314 8C13.3807 8 13.5078 8.15537 13.5643 8.27454L15.851 13.1523C15.9077 13.2717 15.9137 13.3942 15.8695 13.5202C15.8253 13.6461 15.7441 13.7376 15.6258 13.7947C15.5078 13.8516 15.3864 13.8577 15.2616 13.8133C15.1369 13.7686 15.046 13.6865 14.9896 13.5673L13.1316 9.60584L11.2731 13.5673C11.2167 13.6865 11.1263 13.7686 11.0015 13.8133C10.8766 13.8577 10.7549 13.8516 10.6369 13.7947C10.5186 13.7376 10.4374 13.6461 10.3932 13.5202C10.3491 13.3942 10.3553 13.2717 10.4118 13.1523L12.6989 8.27454ZM18.1285 8.85553C18.6958 8.2851 19.3775 8 20.1744 8C20.9224 8 21.5734 8.25362 22.127 8.76155C22.2243 8.85149 22.2756 8.96323 22.281 9.09724C22.2861 9.23102 22.2446 9.34682 22.1551 9.4453C22.0663 9.54603 21.9556 9.59932 21.8231 9.60494C21.6907 9.61011 21.576 9.56784 21.4787 9.4779C21.1114 9.13929 20.6769 8.9702 20.1744 8.9702C19.6424 8.9702 19.1871 9.1611 18.8091 9.54333C18.4311 9.92534 18.2421 10.3851 18.2421 10.9228C18.2421 11.4649 18.4311 11.9244 18.8091 12.3067C19.1871 12.6887 19.6424 12.8796 20.1744 12.8796C20.6769 12.8796 21.1114 12.7107 21.4787 12.3719C21.576 12.2822 21.6907 12.2397 21.8231 12.2453C21.9556 12.2507 22.0663 12.3037 22.1551 12.4047C22.2446 12.5034 22.2861 12.619 22.281 12.7528C22.2756 12.8866 22.2243 12.9985 22.127 13.0885C21.5734 13.5962 20.9224 13.85 20.1744 13.85C19.3775 13.85 18.6958 13.5649 18.1285 12.9945C17.5641 12.4213 17.282 11.7322 17.282 10.927C17.282 10.1178 17.5641 9.42866 18.1285 8.85553ZM28.1946 8.1403C28.2872 8.04677 28.3982 8 28.5278 8C28.6573 8 28.7684 8.04677 28.861 8.1403C28.9536 8.23406 29 8.34649 29 8.47757V13.3724C29 13.5035 28.9536 13.6161 28.861 13.7095C28.7684 13.8032 28.6573 13.85 28.5278 13.85C28.3982 13.85 28.2872 13.8032 28.1946 13.7095C28.1018 13.6161 28.0559 13.5035 28.0559 13.3724V11.4509H25.14V13.3724C25.14 13.5035 25.095 13.6161 25.0053 13.7095C24.9127 13.8032 24.8015 13.85 24.6721 13.85C24.5422 13.85 24.4313 13.8032 24.3389 13.7095C24.2463 13.6161 24.1999 13.5035 24.1999 13.3724V8.47757C24.1999 8.34649 24.2463 8.23406 24.3389 8.1403C24.4313 8.04677 24.5422 8 24.6721 8C24.8015 8 24.9127 8.04677 25.0053 8.1403C25.095 8.23406 25.14 8.34649 25.14 8.47757V10.4998H28.0559V8.47757C28.0559 8.34649 28.1018 8.23406 28.1946 8.1403Z" fill="white"/>
</svg>
