<?xml version="1.0" encoding="UTF-8"?>
<svg width="34px" height="22px" viewBox="0 0 34 22" version="1.1" xmlns="http://www.w3.org/2000/svg" xmlns:xlink="http://www.w3.org/1999/xlink">
    <!-- Generator: Sketch 58 (84663) - https://sketch.com -->
    <title>mercado-pago-icon</title>
    <desc>Created with Sketch.</desc>
    <defs>
        <rect id="path-1" x="0" y="0" width="32" height="20" rx="2"></rect>
        <polygon id="path-3" points="0 0.0286073501 21.3294298 0.0286073501 21.3294298 15.1257253 0 15.1257253"></polygon>
    </defs>
    <g id="BR---Payment-Page" stroke="none" stroke-width="1" fill="none" fill-rule="evenodd">
        <g id="Layout/Ewallet/Brazil/Desktop/01-Payment-Method-Selection_Alternative" transform="translate(-169.000000, -896.000000)">
            <g id="Group-2" transform="translate(112.000000, 41.000000)">
                <g id="Group-3" transform="translate(32.000000, 856.000000)">
                    <g id="payment-method-icon" transform="translate(26.000000, 0.000000)">
                        <g id="boleto-icon">
                            <mask id="mask-2" fill="white">
                                <use xlink:href="#path-1"></use>
                            </mask>
                            <rect stroke="#E1E1E1" x="-0.5" y="-0.5" width="33" height="21" rx="2"></rect>
                            <g id="mercadopago-icon/standard" mask="url(#mask-2)">
                                <rect id="Rectangle-2" fill="#FFFFFF" fill-rule="nonzero" x="0" y="0" width="32" height="20"></rect>
                                <g id="Group-14" stroke-width="1" fill-rule="evenodd" transform="translate(5.333333, 1.818182)">
                                    <g id="Group-3" transform="translate(0.000000, 0.135836)">
                                        <mask id="mask-4" fill="white">
                                            <use xlink:href="#path-3"></use>
                                        </mask>
                                        <g id="Clip-2"></g>
                                        <path d="M21.3294298,7.16227756 C21.3294298,3.23238395 16.5549617,0.0285251451 10.6653258,0.0285251451 C4.77552908,0.0285251451 0.00122174941,3.23238395 0.00122174941,7.16227756 C0.00122174941,7.26355416 -6.43026005e-05,7.54387331 -6.43026005e-05,7.57987911 C-6.43026005e-05,11.7493182 4.17301371,15.1258075 10.663879,15.1258075 C17.1942903,15.1258075 21.3294298,11.7498114 21.3294298,7.58053675 L21.3294298,7.16227756 Z" id="Fill-1" fill="#253D8A" mask="url(#mask-4)"></path>
                                    </g>
                                    <path d="M20.9211083,7.29441393 C20.9211083,10.9993946 16.3302241,14.0031663 10.6672548,14.0031663 C5.00396407,14.0031663 0.413401418,10.9993946 0.413401418,7.29441393 C0.413401418,3.58926886 5.00396407,0.585497099 10.6672548,0.585497099 C16.3302241,0.585497099 20.9211083,3.58926886 20.9211083,7.29441393" id="Fill-4" fill="#00ADEE"></path>
                                    <path d="M7.2624643,5.17796325 C7.25699858,5.18848549 7.1549182,5.29683172 7.22114988,5.38380464 C7.38303168,5.59507157 7.88266288,5.71624178 8.38824208,5.6004971 C8.68917825,5.53128046 9.0748331,5.21742166 9.44859196,4.91424952 C9.85353759,4.5854294 10.2551073,4.25595164 10.6590884,4.12491683 C11.0867007,3.98566151 11.3606298,4.04534236 11.5416416,4.10124178 C11.7403366,4.16190909 11.9739158,4.29557447 12.3462279,4.58148356 C13.04793,5.12091296 15.8690459,7.63934623 16.3564596,8.07470406 C16.749027,7.89352418 18.4937173,7.12523598 20.8647149,6.59090329 C20.6587858,5.29798259 19.8900482,4.11521663 18.7237598,3.14684139 C17.0983508,3.84509091 15.1125258,4.20909478 13.1702657,3.23907544 C13.1602988,3.23496518 12.1091121,2.72611605 11.0722326,2.75110638 C9.5312208,2.78776983 8.86359905,3.46974275 8.15707423,4.19183172 L7.2624643,5.17796325 Z" id="Fill-6" fill="#FEFEFE"></path>
                                    <path d="M16.2419045,8.34862766 C16.2087887,8.31837621 12.9246941,5.37954642 12.1805522,4.80772824 C11.7500463,4.47742843 11.5106799,4.39308607 11.2592567,4.36036847 C11.1282402,4.34310542 10.9473891,4.36776692 10.8208738,4.4032795 C10.4749258,4.49962379 10.0223962,4.80904352 9.62050496,5.13490426 C9.2046279,5.47375338 8.81206052,5.79287331 8.44842931,5.87622921 C7.9832,5.98293133 7.41540804,5.85699323 7.1561078,5.67778627 C7.05129456,5.60561025 6.97734657,5.52225435 6.94181939,5.43741876 C6.84633002,5.21053288 7.02267991,5.02902418 7.05161608,4.99860832 L7.95796123,3.99587137 C8.06325674,3.88867602 8.16951678,3.78098743 8.27802742,3.67494294 C7.9857721,3.71407253 7.71537967,3.7903588 7.45206052,3.86516538 C7.12379574,3.95970116 6.80774846,4.04963346 6.4883253,4.04930464 C6.35505816,4.04930464 5.64033475,3.92944971 5.50465626,3.89196422 C4.68431584,3.66228337 3.96460898,3.4388501 2.88930875,2.92539749 C1.60100615,3.90610348 0.7393513,5.13260251 0.490500236,6.48355996 C0.675530969,6.53370503 0.973734279,6.62462379 1.09928511,6.65290232 C4.01476501,7.31596809 4.92287849,7.99892747 5.0876539,8.14147099 C5.26609362,7.93858897 5.52330402,7.81018472 5.81041513,7.81018472 C6.13321418,7.81067795 6.42386194,7.97623888 6.60053333,8.23255416 C6.76755934,8.09773791 6.99776265,7.98215764 7.29564444,7.98248646 C7.43067991,7.98248646 7.57102033,8.00813443 7.71248605,8.05745745 C8.04155461,8.17287331 8.21131348,8.39679981 8.29940804,8.59951741 C8.409687,8.54855029 8.54536548,8.51090039 8.70515745,8.51139362 C8.86205579,8.51139362 9.0253844,8.54805706 9.18999905,8.62072631 C9.72772955,8.85681915 9.81132293,9.39674178 9.76245296,9.80398549 C9.80087376,9.79938201 9.83945532,9.7975735 9.87851915,9.7975735 C10.5157579,9.79790232 11.0341976,10.3277959 11.0340369,10.9800106 C11.0340369,11.1817418 10.9837201,11.3716354 10.8957863,11.5381828 C11.0692426,11.6378153 11.5113229,11.8635503 11.8995499,11.8130764 C12.2096492,11.7731248 12.3273229,11.6647785 12.3694411,11.6039468 C12.3983773,11.5618578 12.4287603,11.5128636 12.4004671,11.4778443 L11.5778761,10.5431731 C11.5778761,10.5431731 11.4425191,10.4121383 11.4872095,10.3615 C11.5335073,10.3097108 11.6171007,10.3841886 11.6765806,10.4346625 C12.0951905,10.7922544 12.6062355,11.3320126 12.6062355,11.3320126 C12.6149163,11.3379313 12.6486752,11.4063259 12.8378856,11.4410164 C13.0005712,11.4707747 13.2886468,11.4535116 13.4879849,11.2858133 C13.5384624,11.2433956 13.5886184,11.1907843 13.6308974,11.1362002 C13.6273608,11.1389952 13.6247887,11.1426122 13.6215735,11.1437631 C13.8320038,10.8683762 13.5982638,10.5898656 13.5982638,10.5898656 L12.6379045,9.48683849 C12.6379045,9.48683849 12.5004577,9.35695455 12.5472378,9.30467215 C12.5888738,9.25945938 12.6772898,9.32785397 12.7375735,9.37898549 C13.0415641,9.63908221 13.471427,10.08003 13.8829636,10.4925348 C13.9635026,10.5527089 14.3252047,10.7817321 14.8047414,10.4598172 C15.0955499,10.2646625 15.1537437,10.025117 15.1457059,9.84426596 C15.1254506,9.60488491 14.9428312,9.43439168 14.9428312,9.43439168 L13.6308974,8.08524275 C13.6308974,8.08524275 13.4923253,7.96423694 13.5411953,7.9030764 C13.5813844,7.85161605 13.6712473,7.92576499 13.7302449,7.97623888 C14.1482118,8.33383075 15.2794553,9.39476886 15.2794553,9.39476886 C15.2956917,9.40644197 15.6864908,9.69103578 16.1697248,9.37651934 C16.3423773,9.26340522 16.452817,9.09324081 16.4621409,8.89545551 C16.4785381,8.55233172 16.2419045,8.34862766 16.2419045,8.34862766" id="Fill-8" fill="#FEFEFE"></path>
                                    <path d="M9.87835839,10.0588868 C9.67484066,10.0562563 9.45251442,10.1798926 9.42341749,10.161972 C9.40718109,10.1511209 9.43579574,10.0676006 9.45476501,10.0194284 C9.47421655,9.9714207 9.74235839,9.14690426 9.08920473,8.86066634 C8.58941277,8.64101451 8.28397541,8.88812282 8.17900142,8.99959284 C8.15151206,9.02869342 8.13913381,9.02655609 8.13591868,8.98923501 C8.12595177,8.84093714 8.06100615,8.43911896 7.62969645,8.30463153 C7.01319527,8.11161412 6.61676974,8.55157544 6.51629693,8.71039555 C6.47128511,8.35099516 6.17420709,8.07215571 5.81025437,8.07182664 C5.41511489,8.07149807 5.09440567,8.3990029 5.0939234,8.80295841 C5.0939234,9.20724275 5.41415035,9.53491199 5.80945059,9.53491199 C6.00171537,9.53540522 6.17581466,9.45698162 6.30441986,9.3307147 C6.30843877,9.33466054 6.31004634,9.34156576 6.3079565,9.35570503 C6.27805579,9.53639168 6.22243404,10.1940319 6.89584303,10.4618559 C7.16591395,10.5692157 7.39563499,10.4894768 7.58597069,10.352852 C7.64271773,10.3119139 7.65188085,10.3293414 7.64384303,10.3837611 C7.61956879,10.5527747 7.65043404,10.91497 8.14685012,11.1208114 C8.52446714,11.277823 8.74807943,11.1171944 8.89452861,10.9789255 C8.95802742,10.9192447 8.97571064,10.9289449 8.97876501,11.0210145 C8.9969305,11.5102988 9.39448132,11.8987998 9.8772331,11.8992935 C10.3747745,11.8997863 10.7779518,11.4885967 10.778113,10.9800764 C10.7785948,10.4713917 10.375739,10.0643124 9.87835839,10.0588868" id="Fill-10" fill="#FEFEFE"></path>
                                    <path d="M9.87835839,11.8338414 C9.42743641,11.8333482 9.06107234,11.4750986 9.04451442,11.0185319 C9.04338913,10.9795667 9.03937021,10.8754952 8.95320473,10.8754952 C8.9178383,10.8754952 8.88713381,10.8971973 8.85160662,10.9299149 C8.75274137,11.023793 8.62638676,11.1194797 8.4418383,11.1194797 C8.35840567,11.1194797 8.26757825,11.0994217 8.17208889,11.05947 C7.69592813,10.8623424 7.68933712,10.5277679 7.70878865,10.3932805 C7.71393286,10.3576035 7.71570118,10.320118 7.69142695,10.2911818 L7.66233002,10.2642186 L7.63259007,10.2642186 C7.60831584,10.2642186 7.58355934,10.274412 7.54996123,10.2987447 C7.41203215,10.3977195 7.28005106,10.4455629 7.14581939,10.4455629 C7.07187139,10.4455629 6.99599433,10.4304371 6.92027801,10.4005145 C6.29332766,10.1511044 6.34284066,9.54607544 6.3733844,9.3640735 C6.37804634,9.32708124 6.36904397,9.29847389 6.34605579,9.27956673 L6.30184775,9.24208124 L6.26037258,9.28252611 C6.13819764,9.40303868 5.97856643,9.46896712 5.81057589,9.46896712 C5.45160662,9.46847389 5.15951206,9.17039845 5.15967275,8.80294197 C5.15983357,8.43581431 5.4524104,8.13773888 5.81137967,8.13806743 C6.13578629,8.13806743 6.41212671,8.38764217 6.45328038,8.71909284 L6.47578629,8.89780658 L6.57191868,8.74654932 C6.58252861,8.72879304 6.84552624,8.32220696 7.32924255,8.32270019 C7.42103452,8.32270019 7.51604161,8.33766151 7.61169173,8.36791296 C7.99718582,8.48826112 8.0622922,8.84568859 8.07258061,8.99447969 C8.07933239,9.08145261 8.13977683,9.08556286 8.15151206,9.08556286 C8.18478865,9.08556286 8.20922364,9.06386074 8.22690686,9.04544681 C8.29956879,8.96768085 8.45791395,8.83845455 8.70580047,8.83845455 C8.81929456,8.83894778 8.9400227,8.86640426 9.06460898,8.92131721 C9.67741277,9.19012766 9.39946478,9.98636557 9.39608889,9.99442166 C9.34352151,10.1264429 9.34143168,10.1848085 9.39094468,10.2185126 L9.4148974,10.2303501 L9.43290213,10.2303501 C9.46055225,10.2303501 9.49495414,10.2180193 9.55154043,10.1982901 C9.63497305,10.1688607 9.76084539,10.1246344 9.87851915,10.1246344 L9.87884066,10.1246344 C10.3398903,10.1298956 10.715096,10.513793 10.7147747,10.98006 C10.714453,11.4510948 10.3392473,11.8338414 9.87835839,11.8338414 M16.3689021,7.99667505 C15.3572615,7.09389942 13.0192189,5.01493424 12.3861598,4.5289381 C12.0242969,4.25059188 11.7773749,4.10360928 11.5609967,4.03768085 C11.4635783,4.0074294 11.3288643,3.97339652 11.1555688,3.9730677 C10.9944908,3.9730677 10.8215168,4.00299033 10.6409872,4.06184913 C10.2315404,4.19419923 9.8240227,4.5256499 9.429687,4.84624952 L9.40927092,4.86269052 C9.04194232,5.16125919 8.66239622,5.47018569 8.37496359,5.53562089 C8.24957352,5.56455706 8.12064681,5.57951838 7.99220236,5.57951838 C7.67036785,5.57902515 7.3811669,5.48416054 7.27281702,5.34276789 C7.25497305,5.31942166 7.26638676,5.28160735 7.30834421,5.22702321 L7.31380993,5.21995358 L8.20375792,4.23908317 C8.90063735,3.52620116 9.55925674,2.85310638 11.0747083,2.8174294 C11.0997863,2.81660735 11.1255073,2.81611412 11.1504246,2.81611412 C12.0937437,2.81677176 13.0365806,3.24867698 13.1426799,3.29882205 C14.0271622,3.74009865 14.9400983,3.96418956 15.8576965,3.96501161 C16.8143584,3.96517602 17.8010818,3.72316441 18.8386043,3.23453772 C18.7228596,3.13474081 18.6022922,3.03773888 18.4781882,2.94270986 C17.5665381,3.34666538 16.6982922,3.55086267 15.8602686,3.55069826 C15.0044009,3.54987621 14.1494979,3.33976015 13.3193513,2.92544681 C13.2756255,2.90423791 12.2344057,2.40196518 11.1509069,2.40147195 C11.122453,2.40147195 11.0938383,2.40196518 11.0653844,2.40245841 C9.79235366,2.43303868 9.07537967,2.89519536 8.59311017,3.30030174 C8.12418345,3.31197485 7.71939858,3.42755513 7.35930402,3.53047582 C7.03811253,3.62188781 6.76080757,3.70096905 6.49025437,3.70080464 C6.37868936,3.70080464 6.17806525,3.69044681 6.16022128,3.68962476 C5.84899669,3.67992456 4.28129929,3.28682012 3.03431111,2.80394778 C2.90699196,2.89618182 2.78449551,2.99121083 2.66521418,3.08837718 C3.96782411,3.63454739 5.55320473,4.05691683 6.05363972,4.08996325 C6.19269409,4.09933462 6.34107234,4.11544681 6.48945059,4.11577563 C6.82060898,4.11577563 7.15080284,4.02091103 7.47038676,3.92933462 C7.65927565,3.87524371 7.86777683,3.81605609 8.08672719,3.77330948 C8.02837258,3.83200387 7.97001797,3.89152031 7.9115026,3.95152998 L7.00724728,4.95196518 C6.93603215,5.02545648 6.7813844,5.22126886 6.88346478,5.46295164 C6.92381466,5.5602824 7.00612199,5.6535029 7.12122364,5.73274855 C7.33663735,5.88104642 7.72245296,5.98133656 8.0807792,5.98166538 C8.21661844,5.9819942 8.34554515,5.96785493 8.46370118,5.94072727 C8.84292577,5.85391876 9.24031584,5.52986654 9.66149787,5.18740039 C9.99699669,4.91480851 10.4739612,4.56856093 10.8390392,4.4667911 C10.9407981,4.43851257 11.0663489,4.42075629 11.1669825,4.42075629 C11.197044,4.42108511 11.2253371,4.42207157 11.2518619,4.425853 C11.4929967,4.45725532 11.7262544,4.54110445 12.142453,4.8607176 C12.8846657,5.43105609 16.1692426,8.36955706 16.2012331,8.39832882 C16.2034837,8.40030174 16.4129494,8.58509865 16.3984813,8.89221663 C16.3906043,9.0633675 16.297687,9.21561122 16.1361267,9.32116248 C15.995947,9.41224565 15.8511054,9.45844487 15.7049778,9.45844487 C15.4853844,9.45795164 15.3342733,9.35289362 15.3243064,9.34565957 C15.3124104,9.33563056 14.1869541,8.2802824 13.7730061,7.9256499 C13.7069352,7.86991489 13.6429541,7.81944101 13.57833,7.81944101 C13.5436066,7.8192766 13.5129021,7.83456673 13.4921645,7.86087234 C13.4270582,7.94307737 13.5000416,8.05668472 13.5858856,8.1314913 L14.9003915,9.48294197 C14.9023206,9.48442166 15.0643631,9.63978917 15.0820463,9.84711025 C15.0924955,10.0710368 14.9876823,10.2584642 14.770018,10.4044603 C14.6148879,10.5088607 14.4578288,10.5619652 14.3039849,10.5619652 C14.1019139,10.5619652 13.960609,10.4679226 13.9291007,10.4455629 L13.7403726,10.2555048 C13.3960322,9.90876402 13.0401173,9.55018569 12.779531,9.32790329 C12.7160322,9.27397679 12.6483537,9.22399613 12.5835688,9.22399613 C12.5515783,9.22399613 12.5229636,9.23616248 12.5007792,9.26000193 C12.4712,9.293706 12.4504624,9.35437331 12.5245712,9.45499226 C12.5549541,9.4964236 12.5909636,9.53062089 12.5909636,9.53062089 L13.5501976,10.6326615 C13.5582355,10.6426905 13.7477674,10.873029 13.5718998,11.1028743 L13.5381409,11.1467718 C13.5092047,11.179325 13.4783395,11.2090832 13.4487603,11.2347311 C13.2851102,11.3720135 13.0666421,11.386646 12.9799943,11.386646 C12.9336965,11.386646 12.8891669,11.3827002 12.8502638,11.3754662 C12.755739,11.3580387 12.6919187,11.3310754 12.6613749,11.2940832 L12.649479,11.281588 C12.5972331,11.2261818 12.1136775,10.7212785 11.7137154,10.3797988 C11.6609872,10.3345861 11.5952378,10.2777002 11.5272378,10.2777002 C11.493479,10.2777002 11.4635783,10.2911818 11.4405901,10.3171586 C11.3614979,10.4057756 11.4802969,10.538619 11.530453,10.5871199 L12.3487035,11.5097892 C12.347739,11.5180097 12.3376113,11.5369168 12.3176775,11.5661818 C12.2884199,11.6074487 12.1892331,11.7090542 11.8924766,11.7471973 C11.8569494,11.7519652 11.8201362,11.7539381 11.783966,11.7539381 C11.4777248,11.7539381 11.1513891,11.6020232 10.9830771,11.5107756 C11.0597579,11.3452147 11.0994648,11.1632128 11.0994648,10.9805532 C11.0997863,10.291675 10.5527319,9.73152998 9.87964444,9.73103675 C9.86517636,9.73103675 9.84974374,9.73152998 9.83543641,9.73202321 C9.85746005,9.41767118 9.81405579,8.82217795 9.21652388,8.56010832 C9.04451442,8.48398646 8.87298723,8.4453501 8.70628274,8.4453501 C8.57558771,8.4453501 8.45019764,8.46803868 8.33220236,8.51440232 C8.2082591,8.26828046 8.00281229,8.0890735 7.73450969,7.99552418 C7.58645296,7.94307737 7.43903924,7.91660735 7.29644823,7.91660735 C7.04791868,7.91660735 6.81884066,7.99157834 6.61451915,8.14004062 C6.41871773,7.89112379 6.12308652,7.74364797 5.81170118,7.74364797 C5.53921891,7.74364797 5.27702506,7.85511799 5.08283121,8.05191683 C4.82819291,7.85298066 3.81799905,7.19682012 1.1140747,6.5689381 C0.983058156,6.53819342 0.682604255,6.45039845 0.498538061,6.39532108 C0.468155083,6.54493424 0.444684634,6.69619149 0.429573522,6.84909284 C0.429573522,6.84909284 0.928079433,6.97108511 1.0261409,6.99377369 C3.7882591,7.62099807 4.70103452,8.27354159 4.8552,8.39684913 C4.80295414,8.52525338 4.77578629,8.66368665 4.77562553,8.80294197 C4.77514326,9.38659768 5.23940804,9.86207157 5.81025437,9.8625648 C5.87423546,9.8625648 5.93773428,9.85681044 6.0001078,9.84497292 C6.08611253,10.274412 6.36084539,10.5999439 6.78090213,10.7671489 C6.90355934,10.8153211 7.02782411,10.840147 7.14951678,10.840147 C7.22860898,10.8403114 7.30786194,10.8302824 7.38534657,10.8098956 C7.46299196,11.0112979 7.63741277,11.262352 8.02740804,11.4246248 C8.16437258,11.4810174 8.3010156,11.5102824 8.43412199,11.5102824 C8.54263262,11.5102824 8.64889267,11.4907176 8.75000851,11.4529033 C8.93712908,11.9185126 9.38194232,12.2269472 9.87803688,12.2269472 C10.2067839,12.2274391 10.5225097,12.0904855 10.7523915,11.8481451 C10.9496397,11.9601083 11.3656775,12.1628259 11.7857343,12.1633191 C11.8402307,12.1633191 11.8911905,12.1593733 11.9423111,12.1531257 C12.3594742,12.0991992 12.5539896,11.9324874 12.6428879,11.8026035 C12.6591243,11.7799149 12.6737532,11.7557466 12.6861314,11.7307563 C12.7846752,11.7600213 12.8930251,11.7835319 13.0171291,11.7836963 C13.244921,11.7836963 13.4638714,11.7042863 13.6847508,11.5397118 C13.9019329,11.3795764 14.0565806,11.1495667 14.078765,10.9537544 C14.0792473,10.9511238 14.079408,10.9481644 14.0798903,10.9453694 C14.1531953,10.9606596 14.2282686,10.9685513 14.3031811,10.9685513 C14.5378856,10.9685513 14.7688927,10.8937447 14.9892898,10.7461044 C15.4148123,10.4606886 15.4884388,10.0881354 15.4815262,9.84415087 C15.5561173,9.86009865 15.6321551,9.86831915 15.7077106,9.86831915 C15.9281078,9.86831915 16.1444861,9.80041779 16.3504151,9.66593037 C16.6140558,9.49379304 16.773044,9.22958607 16.7971574,8.92246809 C16.8135546,8.71366731 16.7629163,8.50305803 16.6552095,8.32204255 C17.3681645,8.00785493 18.9974317,7.40003095 20.9158998,6.9579323 C20.9044861,6.80568859 20.8829447,6.65541779 20.8562591,6.50580464 C18.5347745,7.03273888 16.8026232,7.79921857 16.3689021,7.99667505" id="Fill-12" fill="#253D8A"></path>
                                </g>
                            </g>
                        </g>
                    </g>
                </g>
            </g>
        </g>
    </g>
</svg>