<svg width="95" height="30" viewBox="0 0 95 30" fill="none" xmlns="http://www.w3.org/2000/svg">
<path d="M5.38 0.859985H1.45C0.991601 0.859985 0.619995 1.23161 0.619995 1.69V5.03C0.619995 5.4884 0.991601 5.85999 1.45 5.85999H5.38C5.83839 5.85999 6.21 5.4884 6.21 5.03V1.69C6.21 1.23161 5.83839 0.859985 5.38 0.859985Z" fill="#CA0080"/>
<path d="M29.4 0.859985H26.01C25.55 0.859985 25.18 1.24 25.18 1.69V15.24C25.18 15.52 24.82 15.62 24.69 15.37L16.81 1.22C16.68 0.990001 16.4499 0.859985 16.1699 0.859985H10.5299C10.0699 0.859985 9.69995 1.24 9.69995 1.69V23.34C9.69995 23.8 10.0799 24.17 10.5299 24.17H13.9199C14.3799 24.17 14.75 23.79 14.75 23.34V9.38C14.75 9.10001 15.11 9 15.24 9.25L23.3399 23.82C23.4699 24.05 23.7 24.18 23.98 24.18H29.37C29.83 24.18 30.1999 23.8 30.1999 23.35V1.67999C30.1999 1.21999 29.82 0.850006 29.37 0.850006H29.4V0.859985Z" fill="#200020"/>
<path d="M37.6899 13.41C38.1799 11.22 39.4599 10.25 41.3899 10.25C43.1099 10.25 44.5899 11.25 44.7999 13.41H37.6999H37.6899ZM49.7899 15.72C49.7899 9.62 45.8199 6.59 41.4599 6.59C35.7899 6.59 32.5599 10.52 32.5599 15.82C32.5599 21.85 36.6199 24.72 41.3299 24.72C46.0399 24.72 48.7899 22.29 49.5299 19.13C49.6299 18.72 49.3999 18.36 48.7899 18.36H46.1199C45.8199 18.36 45.5499 18.52 45.4199 18.82C44.7499 20.28 43.6799 21.05 41.6199 21.05C39.2899 21.05 37.7199 19.59 37.4899 16.62H48.9499C49.4399 16.62 49.7799 16.26 49.7799 15.72H49.7899Z" fill="#200020"/>
<path d="M93.37 7.01999H89.97C89.5116 7.01999 89.14 7.39161 89.14 7.85001V23.35C89.14 23.8084 89.5116 24.18 89.97 24.18H93.37C93.8284 24.18 94.2 23.8084 94.2 23.35V7.85001C94.2 7.39161 93.8284 7.01999 93.37 7.01999Z" fill="#200020"/>
<path d="M60.36 20.85C58.13 20.85 56.56 19.21 56.56 15.69C56.56 12.17 58.13 10.33 60.36 10.33C62.59 10.33 64.16 12.03 64.16 15.69C64.16 19.35 62.59 20.85 60.36 20.85ZM68.08 7.01999H64.69C64.23 7.01999 63.86 7.40001 63.86 7.85001V8.69C62.85 7.5 61.18 6.67999 58.99 6.67999C54.09 6.67999 51.5 11.11 51.5 15.81C51.5 19.91 53.63 24.51 58.89 24.51C60.77 24.51 62.77 23.61 63.86 22.34V29.01C63.86 29.47 64.24 29.84 64.69 29.84H68.08C68.54 29.84 68.91 29.46 68.91 29.01V7.88C68.91 7.42 68.53 7.04999 68.08 7.04999V7.01999Z" fill="#200020"/>
<path d="M86.14 7.01999H82.75C82.29 7.01999 81.92 7.40001 81.92 7.85001V16.62C81.92 19.45 80.66 20.27 79.05 20.27C77.44 20.27 76.18 19.44 76.18 16.62V7.85001C76.18 7.39001 75.8 7.01999 75.35 7.01999H71.96C71.5 7.01999 71.13 7.40001 71.13 7.85001V16.98C71.13 22.41 74.13 24.6 79.06 24.6C83.99 24.6 86.99 22.4 86.99 16.98V7.85001C86.99 7.39001 86.61 7.01999 86.16 7.01999H86.13H86.14Z" fill="#200020"/>
</svg>
