<?xml version="1.0" encoding="UTF-8"?>
<svg width="30x" height="20px" viewBox="0 0 18 12" version="1.1" xmlns="http://www.w3.org/2000/svg" xmlns:xlink="http://www.w3.org/1999/xlink">
    <!-- Generator: Sketch 44.1 (41455) - http://www.bohemiancoding.com/sketch -->
    <title>icon_safetpay_OXXO_active</title>
    <desc>Created with Sketch.</desc>
    <defs></defs>
    <g id="México" stroke="none" stroke-width="1" fill="none" fill-rule="evenodd">
        <g id="OXXO" transform="translate(-271.000000, -619.000000)">
            <g id="icon_safetpay_OXXO_active" transform="translate(271.000000, 619.000000)">
                <g id="Group-2">
                    <g id="Group-25">
                        <g id="Group-9">
                            <g id="Group-20" fill="#B0BECB">
                                <g id="icon_bb">
                                    <rect id="Rectangle-36-Copy" x="0" y="0" width="17.9925714" height="12" rx="2"></rect>
                                </g>
                            </g>
                            <g id="Oxxo" transform="translate(0.000000, 2.608696)">
                                <polygon id="Fill-3" fill="#FFFFFF" points="0.0511728814 6.92706681 17.8954815 6.92706681 17.8954815 0.300216331 0.0511728814 0.300216331"></polygon>
                                <path d="M15.1737747,2.02129374 C14.3573438,2.02129374 13.6917918,2.68871262 13.6917918,3.50730859 C13.6917918,4.32559915 14.3573438,4.99301803 15.1737747,4.99301803 C15.9900024,4.99301803 16.6555545,4.32559915 16.6555545,3.50730859 C16.6555545,2.68871262 15.9900024,2.02129374 15.1737747,2.02129374" id="Fill-4" fill="#A1B1C2"></path>
                                <path d="M2.95909217,2.02129374 C2.14255981,2.02129374 1.47700775,2.68871262 1.47700775,3.50730859 C1.47700775,4.32559915 2.14255981,4.99301803 2.95909217,4.99301803 C3.7752184,4.99301803 4.44087199,4.32559915 4.44087199,3.50730859 C4.44087199,2.68871262 3.7752184,2.02129374 2.95909217,2.02129374" id="Fill-5" fill="#A1B1C2"></path>
                                <path d="M15.0574173,0.713637328 C13.6855982,0.68197667 13.0406575,1.56399576 12.1045186,2.65186002 L11.2215834,3.67793001 L12.6198011,5.35625027 C12.9529325,5.87198303 12.3171298,6.38374549 11.9226722,5.91188971 L10.6299477,4.36570944 L9.37022163,5.82993849 C8.96906279,6.29599152 8.34046893,5.77527041 8.68070767,5.26442418 L10.0482623,3.6699894 L9.15233075,2.59831177 L9.72863487,1.88263839 L10.6397964,2.98007211 L11.4252596,2.0640509 C11.8105792,1.61489714 12.2036153,1.01965642 12.7130089,0.713637328 L0.0511728814,0.713637328 L0.0511728814,6.51384942 L3.01158499,6.51384942 C4.3836071,6.51384942 5.00641356,5.69128314 5.91706747,4.5821421 L6.77644697,3.53571156 L5.33964649,1.8903754 C4.99504181,1.38248144 5.61876207,0.85626299 6.02398224,1.31885472 L7.35183729,2.83479958 L8.57795577,1.34176034 C8.96814899,0.866341463 9.60841921,1.37260657 9.28005989,1.89118982 L7.94956497,3.51708165 L8.8699661,4.56768611 L8.29000678,5.25627996 L7.37387006,4.2202333 L6.60983051,5.15396819 C6.23476578,5.61197879 5.85513204,6.19602121 5.35284584,6.51384942 L17.8954815,6.51384942 L17.8954815,0.713637328 L15.0574173,0.713637328 L15.0574173,0.713637328 Z M5.30014996,3.50730859 C5.30014996,4.80030541 4.24866909,5.85477837 2.95909217,5.85477837 C1.66921065,5.85477837 0.617628249,4.80030541 0.617628249,3.50730859 C0.617628249,2.21400636 1.66921065,1.15973701 2.95909217,1.15973701 C4.24866909,1.15973701 5.30014996,2.21400636 5.30014996,3.50730859 L5.30014996,3.50730859 Z M15.1737747,5.85477837 C13.8840962,5.85477837 12.8323107,4.80030541 12.8323107,3.50730859 C12.8323107,2.21400636 13.8840962,1.15973701 15.1737747,1.15973701 C16.4634531,1.15973701 17.514934,2.21400636 17.514934,3.50730859 C17.514934,4.80030541 16.4634531,5.85477837 15.1737747,5.85477837 L15.1737747,5.85477837 Z" id="Fill-6" fill="#A1B1C2"></path>
                            </g>
                        </g>
                        <g id="Group-9">
                            <g id="Group-20" fill="#FAAE31">
                                <g id="icon_bb">
                                    <rect id="Rectangle-36-Copy" x="0" y="0" width="17.9925714" height="12" rx="2"></rect>
                                </g>
                            </g>
                            <g id="Oxxo" transform="translate(0.000000, 2.608696)">
                                <polygon id="Fill-3" fill="#FFFFFF" points="0.0511728814 6.92706681 17.8954815 6.92706681 17.8954815 0.300216331 0.0511728814 0.300216331"></polygon>
                                <path d="M15.1737747,2.02129374 C14.3573438,2.02129374 13.6917918,2.68871262 13.6917918,3.50730859 C13.6917918,4.32559915 14.3573438,4.99301803 15.1737747,4.99301803 C15.9900024,4.99301803 16.6555545,4.32559915 16.6555545,3.50730859 C16.6555545,2.68871262 15.9900024,2.02129374 15.1737747,2.02129374" id="Fill-4" fill="#DF2131"></path>
                                <path d="M2.95909217,2.02129374 C2.14255981,2.02129374 1.47700775,2.68871262 1.47700775,3.50730859 C1.47700775,4.32559915 2.14255981,4.99301803 2.95909217,4.99301803 C3.7752184,4.99301803 4.44087199,4.32559915 4.44087199,3.50730859 C4.44087199,2.68871262 3.7752184,2.02129374 2.95909217,2.02129374" id="Fill-5" fill="#DF2131"></path>
                                <path d="M15.0574173,0.713637328 C13.6855982,0.68197667 13.0406575,1.56399576 12.1045186,2.65186002 L11.2215834,3.67793001 L12.6198011,5.35625027 C12.9529325,5.87198303 12.3171298,6.38374549 11.9226722,5.91188971 L10.6299477,4.36570944 L9.37022163,5.82993849 C8.96906279,6.29599152 8.34046893,5.77527041 8.68070767,5.26442418 L10.0482623,3.6699894 L9.15233075,2.59831177 L9.72863487,1.88263839 L10.6397964,2.98007211 L11.4252596,2.0640509 C11.8105792,1.61489714 12.2036153,1.01965642 12.7130089,0.713637328 L0.0511728814,0.713637328 L0.0511728814,6.51384942 L3.01158499,6.51384942 C4.3836071,6.51384942 5.00641356,5.69128314 5.91706747,4.5821421 L6.77644697,3.53571156 L5.33964649,1.8903754 C4.99504181,1.38248144 5.61876207,0.85626299 6.02398224,1.31885472 L7.35183729,2.83479958 L8.57795577,1.34176034 C8.96814899,0.866341463 9.60841921,1.37260657 9.28005989,1.89118982 L7.94956497,3.51708165 L8.8699661,4.56768611 L8.29000678,5.25627996 L7.37387006,4.2202333 L6.60983051,5.15396819 C6.23476578,5.61197879 5.85513204,6.19602121 5.35284584,6.51384942 L17.8954815,6.51384942 L17.8954815,0.713637328 L15.0574173,0.713637328 L15.0574173,0.713637328 Z M5.30014996,3.50730859 C5.30014996,4.80030541 4.24866909,5.85477837 2.95909217,5.85477837 C1.66921065,5.85477837 0.617628249,4.80030541 0.617628249,3.50730859 C0.617628249,2.21400636 1.66921065,1.15973701 2.95909217,1.15973701 C4.24866909,1.15973701 5.30014996,2.21400636 5.30014996,3.50730859 L5.30014996,3.50730859 Z M15.1737747,5.85477837 C13.8840962,5.85477837 12.8323107,4.80030541 12.8323107,3.50730859 C12.8323107,2.21400636 13.8840962,1.15973701 15.1737747,1.15973701 C16.4634531,1.15973701 17.514934,2.21400636 17.514934,3.50730859 C17.514934,4.80030541 16.4634531,5.85477837 15.1737747,5.85477837 L15.1737747,5.85477837 Z" id="Fill-6" fill="#DF2131"></path>
                            </g>
                        </g>
                    </g>
                </g>
            </g>
        </g>
    </g>
</svg>
