<?xml version="1.0" encoding="UTF-8" standalone="no"?>
<!-- Created with Inkscape (http://www.inkscape.org/) -->

<svg
   version="1.1"
   id="svg2"
   width="839.82227"
   height="191.73599"
   viewBox="0 0 839.82224 191.73599"
   sodipodi:docname="LOGO_OXXO-PAY_OCT_23.svg"
   inkscape:version="1.2.2 (732a01da63, 2022-12-09, custom)"
   xmlns:inkscape="http://www.inkscape.org/namespaces/inkscape"
   xmlns:sodipodi="http://sodipodi.sourceforge.net/DTD/sodipodi-0.dtd"
   xmlns="http://www.w3.org/2000/svg"
   xmlns:svg="http://www.w3.org/2000/svg">
  <defs
     id="defs6">
    <clipPath
       clipPathUnits="userSpaceOnUse"
       id="clipPath18">
      <path
         d="M 0,631.065 H 1064.468 V 0 H 0 Z"
         id="path16" />
    </clipPath>
    <clipPath
       clipPathUnits="userSpaceOnUse"
       id="clipPath58">
      <path
         d="M 0,631.065 H 1064.468 V 0 H 0 Z"
         id="path56" />
    </clipPath>
    <clipPath
       clipPathUnits="userSpaceOnUse"
       id="clipPath66">
      <path
         d="M 156.397,486.83 H 857.493 V 136.615 H 156.397 Z"
         id="path64" />
    </clipPath>
  </defs>
  <sodipodi:namedview
     id="namedview4"
     pagecolor="#ffffff"
     bordercolor="#000000"
     borderopacity="0.25"
     inkscape:showpageshadow="2"
     inkscape:pageopacity="0.0"
     inkscape:pagecheckerboard="0"
     inkscape:deskcolor="#d1d1d1"
     showgrid="false"
     inkscape:zoom="0.6726724"
     inkscape:cx="674.91992"
     inkscape:cy="368.67872"
     inkscape:window-width="1920"
     inkscape:window-height="1043"
     inkscape:window-x="0"
     inkscape:window-y="0"
     inkscape:window-maximized="1"
     inkscape:current-layer="g8" />
  <g
     id="g8"
     inkscape:groupmode="layer"
     inkscape:label="LOGO_OXXO-PAY OCT 23"
     transform="matrix(1.3333333,0,0,-1.3333333,-34.003479,789.63805)">
    <path
       d="m 343.21021,455.32145 h -7.111 v 129.776 h 7.111 z"
       style="fill:#3f6090;fill-opacity:1;fill-rule:nonzero;stroke:none"
       id="path10" />
    <g
       id="g12"
       transform="translate(-170.68379,164.98345)">
      <g
         id="g14"
         clip-path="url(#clipPath18)">
        <g
           id="g20"
           transform="translate(599.3071,356.2378)">
          <path
             d="m 0,0 c 13.023,0 15.117,9.735 15.117,9.735 0,0 3.589,9.491 -9.643,9.491 H -2.468 L -7.817,0 Z m -25.094,42.273 h 39.086 c 41.19,0 30.304,-30.689 30.304,-30.689 0,0 -6.528,-32.167 -48.408,-32.167 h -9.431 l -6.514,-23.416 h -29.037 z"
             style="fill:#3f6090;fill-opacity:1;fill-rule:nonzero;stroke:none"
             id="path22" />
        </g>
        <g
           id="g24"
           transform="translate(684.236,344.0545)">
          <path
             d="M 0,0 -2.097,20.803 -15.77,0 Z M -6.783,54.454 H 21.802 L 34.148,-31.815 H 2.855 l -1.361,11.502 h -30.183 l -7.636,-11.502 h -30.8 z"
             style="fill:#3f6090;fill-opacity:1;fill-rule:nonzero;stroke:none"
             id="path26" />
        </g>
        <g
           id="g28"
           transform="translate(733.9757,342.804)">
          <path
             d="m 0,0 -17.264,55.707 h 32.51 l 7.008,-28.346 22.9,28.346 H 77.291 L 29.138,0.371 20.532,-30.565 H -8.502 Z"
             style="fill:#3f6090;fill-opacity:1;fill-rule:nonzero;stroke:none"
             id="path30" />
        </g>
        <g
           id="g32"
           transform="translate(817.5451,394.3171)">
          <path
             d="m 0,0 v -2.762 h 2.052 c 0.894,0 1.457,0.526 1.457,1.348 C 3.509,-0.526 2.946,0 2.052,0 Z M 1.291,-3.815 H 0 v -3.156 h -1.226 v 7.99 h 3.278 c 1.556,0 2.715,-0.953 2.715,-2.433 0,-1.776 -1.589,-2.367 -2.052,-2.367 l 2.151,-3.19 H 3.377 Z m -5.662,0.856 c 0,-3.19 2.616,-5.821 5.86,-5.821 3.245,0 5.86,2.631 5.86,5.821 0,3.255 -2.615,5.82 -5.86,5.82 -3.244,0 -5.86,-2.565 -5.86,-5.82 m -1.158,0 c 0,3.88 3.145,6.971 7.018,6.971 3.907,0 7.019,-3.091 7.019,-6.971 0,-3.848 -3.112,-6.972 -7.019,-6.972 -3.873,0 -7.018,3.124 -7.018,6.972"
             style="fill:#3f6090;fill-opacity:1;fill-rule:nonzero;stroke:none"
             id="path34" />
        </g>
        <g
           id="g36"
           transform="translate(471.2674,305.0111)">
          <path
             d="m 0,0 c 0,-11.908 -9.726,-21.568 -21.716,-21.568 h -231.649 c -11.988,0 -21.716,9.66 -21.716,21.568 v 100.664 c 0,11.909 9.728,21.57 21.716,21.57 H -21.716 C -9.726,122.234 0,112.573 0,100.664 Z"
             style="fill:#ffffff;fill-opacity:1;fill-rule:nonzero;stroke:none"
             id="path38" />
        </g>
        <g
           id="g40"
           transform="translate(449.5702,420.0423)">
          <path
             d="m 0,0 h -231.632 c -7.999,0 -14.469,-6.429 -14.489,-14.354 H 14.489 C 14.472,-6.429 7.997,0 0,0"
             style="fill:#ffc72a;fill-opacity:1;fill-rule:nonzero;stroke:none"
             id="path42" />
        </g>
        <g
           id="g44"
           transform="translate(217.8658,290.7039)">
          <path
             d="m 0,0 h 231.63 c 7.981,0 14.471,6.429 14.471,14.355 H -14.49 C -14.472,6.429 -7.998,0 0,0"
             style="fill:#ffc72a;fill-opacity:1;fill-rule:nonzero;stroke:none"
             id="path46" />
        </g>
        <g
           id="g48"
           transform="translate(464.0955,312.2175)">
          <path
             d="M 0,0 V 86.279 H -49.541 C -54.908,86.233 -65.953,85.2 -76.952,72.431 l -22.93,-29.824 18.737,-23.815 c 2.464,-3.122 1.894,-7.651 -1.25,-10.081 -3.144,-2.447 -7.705,-1.899 -10.17,1.224 l -16.51,21.001 -12.466,-15.832 -0.113,-0.146 -3.916,-5.004 c -1.011,-1.28 -2.353,-2.119 -3.824,-2.521 -2.115,-0.548 -4.469,-0.164 -6.344,1.278 -2.041,1.589 -2.98,4.037 -2.74,6.43 0.147,1.295 0.625,2.575 1.509,3.67 l 6.986,8.895 11.713,14.901 -7.814,10.027 8.991,11.908 8.018,-10.264 19.638,24.801 c 0.542,0.688 4.381,6.311 8.493,7.2 H -260.647 V 0 h 51.248 c 5.796,0.352 15.68,2.472 25.522,13.898 l 22.93,29.823 -18.738,23.816 c -2.464,3.122 -1.912,7.652 1.251,10.081 3.144,2.446 7.687,1.899 10.149,-1.224 l 16.531,-21.002 12.449,15.833 0.128,0.165 3.937,4.986 c 0.991,1.278 2.353,2.118 3.824,2.52 2.114,0.566 4.468,0.164 6.325,-1.278 2.022,-1.588 2.979,-4.037 2.721,-6.429 -0.129,-1.296 -0.625,-2.574 -1.489,-3.67 l -6.969,-8.894 -11.751,-14.904 7.944,-10.081 -9.01,-11.907 -8.109,10.318 -19.657,-24.801 c -0.54,-0.71 -4.625,-6.646 -8.875,-7.25 z m -180.954,43.082 c 0,-19.87 -16.218,-35.959 -36.206,-35.959 -19.986,0 -36.186,16.089 -36.186,35.959 0,19.852 16.2,35.941 36.186,35.941 19.988,0 36.206,-16.089 36.206,-35.941 m 173.635,0 c 0,-19.87 -16.198,-35.959 -36.186,-35.959 -20.006,0 -36.205,16.089 -36.205,35.959 0,19.852 16.199,35.941 36.205,35.941 19.988,0 36.186,-16.089 36.186,-35.941 m -14.47,0 c 0,11.909 -9.728,21.569 -21.716,21.569 -12.006,0 -21.734,-9.66 -21.734,-21.569 0,-11.925 9.728,-21.568 21.734,-21.568 11.988,0 21.716,9.643 21.716,21.568 m -173.655,0 c 0,11.909 -9.727,21.569 -21.716,21.569 -11.988,0 -21.714,-9.66 -21.714,-21.569 0,-11.925 9.726,-21.568 21.714,-21.568 11.989,0 21.716,9.643 21.716,21.568"
             style="fill:#e1261c;fill-opacity:1;fill-rule:nonzero;stroke:none"
             id="path50" />
        </g>
      </g>
    </g>
    <g
       id="g162"
       transform="translate(784.7628,298.3199)">
      <path
         d="M 0,0 V -1.146"
         style="fill:none;stroke:#f15a24;stroke-width:0.679;stroke-linecap:butt;stroke-linejoin:miter;stroke-miterlimit:10;stroke-dasharray:none;stroke-opacity:1"
         id="path164" />
    </g>
    <g
       id="g170"
       transform="translate(784.7628,114.1509)">
      <path
         d="M 0,0 V -1.146"
         style="fill:none;stroke:#f15a24;stroke-width:0.679;stroke-linecap:butt;stroke-linejoin:miter;stroke-miterlimit:10;stroke-dasharray:none;stroke-opacity:1"
         id="path172" />
    </g>
    <g
       id="g174"
       transform="translate(577.2961,299.6215)">
      <path
         d="M 0,0 V -1.146"
         style="fill:none;stroke:#f15a24;stroke-width:0.679;stroke-linecap:butt;stroke-linejoin:miter;stroke-miterlimit:10;stroke-dasharray:none;stroke-opacity:1"
         id="path176" />
    </g>
    <g
       id="g182"
       transform="translate(577.2961,114.1509)">
      <path
         d="M 0,0 V -1.146"
         style="fill:none;stroke:#f15a24;stroke-width:0.679;stroke-linecap:butt;stroke-linejoin:miter;stroke-miterlimit:10;stroke-dasharray:none;stroke-opacity:1"
         id="path184" />
    </g>
    <g
       id="g196"
       transform="translate(723.9056,297.9662)">
      <path
         d="M 0,0 H 1.213"
         style="fill:none;stroke:#f15a24;stroke-width:0.718;stroke-linecap:butt;stroke-linejoin:miter;stroke-miterlimit:10;stroke-dasharray:none;stroke-opacity:1"
         id="path198" />
    </g>
    <g
       id="g204"
       transform="translate(887.7032,297.9662)">
      <path
         d="M 0,0 H 1.213"
         style="fill:none;stroke:#f15a24;stroke-width:0.718;stroke-linecap:butt;stroke-linejoin:miter;stroke-miterlimit:10;stroke-dasharray:none;stroke-opacity:1"
         id="path206" />
    </g>
    <g
       id="g208"
       transform="translate(784.7628,254.64)">
      <path
         d="M 0,0 H 1.213"
         style="fill:none;stroke:#f15a24;stroke-width:0.718;stroke-linecap:butt;stroke-linejoin:miter;stroke-miterlimit:10;stroke-dasharray:none;stroke-opacity:1"
         id="path210" />
    </g>
    <g
       id="g216"
       transform="translate(887.7032,254.64)">
      <path
         d="M 0,0 H 1.213"
         style="fill:none;stroke:#f15a24;stroke-width:0.718;stroke-linecap:butt;stroke-linejoin:miter;stroke-miterlimit:10;stroke-dasharray:none;stroke-opacity:1"
         id="path218" />
    </g>
  </g>
</svg>
