<?xml version="1.0" encoding="UTF-8"?>
<svg width="93px" height="22px" viewBox="0 0 93 22" version="1.1" xmlns="http://www.w3.org/2000/svg" xmlns:xlink="http://www.w3.org/1999/xlink">
    <!-- Generator: Sketch 50 (54983) - http://www.bohemiancoding.com/sketch -->
    <title>pagosnet-logo</title>
    <desc>Created with Sketch.</desc>
    <defs>
        <polygon id="path-1" points="0.0464403552 0.0204220183 6.70445078 0.0204220183 6.70445078 9.79458281 0.0464403552 9.79458281"></polygon>
        <polygon id="path-3" points="0.13130536 0.0434780422 15.3837166 0.0434780422 15.3837166 12.7124061 0.13130536 12.7124061"></polygon>
        <polygon id="path-5" points="0 0.0822581235 7.77162709 0.0822581235 7.77162709 9.44036697 0 9.44036697"></polygon>
    </defs>
    <g id="Bolívia" stroke="none" stroke-width="1" fill="none" fill-rule="evenodd">
        <g id="01-Netpagos-Home" transform="translate(-243.000000, -519.000000)">
            <g id="pagosnet-logo" transform="translate(243.000000, 518.000000)">
                <g transform="translate(0.000000, 4.000000)">
                    <g>
                        <path d="M4.17065294,11.1776796 C2.83124117,11.1776796 1.74153529,10.0977993 1.74153529,8.76985964 C1.74153529,7.44209494 2.83124117,6.3620397 4.17065294,6.3620397 C5.51024118,6.3620397 6.59977059,7.44209494 6.59977059,8.76985964 C6.59977059,10.0977993 5.51024118,11.1776796 4.17065294,11.1776796 M4.17065294,4.63559571 C3.26394706,4.63559571 2.42659412,4.92703918 1.74153529,5.41598548 L1.74153529,4.62544941 L-5.29411765e-05,4.62544941 L-5.29411765e-05,18.3301154 L1.74153529,18.3301154 L1.74153529,12.1237338 C2.42659412,12.6126801 3.26394706,12.9041236 4.17065294,12.9041236 C6.47041765,12.9041236 8.34135882,11.0496264 8.34135882,8.76985964 C8.34135882,6.49009288 6.47041765,4.63559571 4.17065294,4.63559571" id="Fill-1" fill="#0F2A75" fill-rule="nonzero"></path>
                        <path d="M22.7334176,11.1776796 C21.3940058,11.1776796 20.3042999,10.0977993 20.3042999,8.76985964 C20.3042999,7.44209494 21.3940058,6.3620397 22.7334176,6.3620397 C24.0728294,6.3620397 25.1625353,7.44209494 25.1625353,8.76985964 C25.1625353,10.0977993 24.0728294,11.1776796 22.7334176,11.1776796 M26.9041235,14.2653011 L26.9041235,4.62544941 L25.1625353,4.62544941 L25.1625353,5.41598548 C24.4774764,4.92703918 23.6401235,4.63559571 22.7334176,4.63559571 C20.433653,4.63559571 18.5627117,6.49009288 18.5627117,8.76985964 C18.5627117,11.0496264 20.433653,12.9041236 22.7334176,12.9041236 C23.6401235,12.9041236 24.4774764,12.6126801 25.1625353,12.1237338 L25.1625353,14.2917164 L25.1655354,14.3634403 C25.1664177,14.3739364 25.2364764,15.4485686 24.5747117,16.161608 C24.1511823,16.6181912 23.4804176,16.8494566 22.5818295,16.8494566 L22.5818295,18.5759006 C23.9875941,18.5759006 25.0894765,18.1569287 25.8564177,17.3307057 C26.9500059,16.1523364 26.9198294,14.5604182 26.9041235,14.2653011" id="Fill-4" fill="#0F2A75" fill-rule="nonzero"></path>
                        <path d="M13.4146059,11.1776796 C12.0751941,11.1776796 10.9854882,10.0977993 10.9854882,8.76985964 C10.9854882,7.44209494 12.0751941,6.3620397 13.4146059,6.3620397 C14.7541941,6.3620397 15.8437235,7.44209494 15.8437235,8.76985964 C15.8437235,10.0977993 14.7541941,11.1776796 13.4146059,11.1776796 Z M15.8437235,4.62544941 L15.8437235,5.41598548 C15.1588411,4.92703918 14.3213117,4.63559571 13.4146059,4.63559571 C11.1148412,4.63559571 9.2439,6.49009288 9.2439,8.76985964 C9.2439,11.0496264 11.1148412,12.9041236 13.4146059,12.9041236 C14.3213117,12.9041236 15.1588411,12.6126801 15.8437235,12.1237338 L15.8437235,12.8939773 L17.5853118,12.8939773 L17.5853118,4.62544941 L15.8437235,4.62544941 Z" id="Fill-6" fill="#0F2A75" fill-rule="nonzero"></path>
                        <path d="M50.7552706,4.63559571 C49.8487412,4.63559571 49.0112117,4.92703918 48.3263294,5.41581054 L48.3263294,4.62544941 L46.5847411,4.62544941 L46.5847411,12.8939773 L48.3263294,12.8939773 L48.3263294,8.76985964 C48.3263294,7.44192 49.4158588,6.3620397 50.7552706,6.3620397 C52.0948588,6.3620397 53.1847411,7.44192 53.1847411,8.76985964 L53.1847411,12.8939773 L54.9263294,12.8939773 L54.9263294,8.76985964 C54.9263294,6.49009288 53.0550353,4.63559571 50.7552706,4.63559571" id="Fill-8" fill="#A2D303" fill-rule="nonzero"></path>
                        <path d="M32.1462353,6.36198721 C30.8066471,6.36198721 29.7171177,7.44204246 29.7171177,8.76980716 C29.7171177,10.0977468 30.8066471,11.1776271 32.1462353,11.1776271 C33.4856471,11.1776271 34.575353,10.0977468 34.575353,8.76980716 C34.575353,7.44204246 33.4856471,6.36198721 32.1462353,6.36198721 M32.1462353,12.9040712 C29.8464706,12.9040712 27.9755294,11.0495739 27.9755294,8.76980716 C27.9755294,6.49004041 29.8464706,4.63554323 32.1462353,4.63554323 C34.446,4.63554323 36.3169412,6.49004041 36.3169412,8.76980716 C36.3169412,11.0495739 34.446,12.9040712 32.1462353,12.9040712" id="Fill-10" fill="#0F2A75" fill-rule="nonzero"></path>
                        <path d="M57.8868177,7.90669013 L62.4222883,7.90669013 C62.0712882,7.00402005 61.1871706,6.3620047 60.1546412,6.3620047 C59.1219353,6.3620047 58.2378176,7.00402005 57.8868177,7.90669013 M60.1546412,12.9040886 C57.8547,12.9040886 55.9841118,11.0495914 55.9841118,8.76982465 C55.9841118,6.4900579 57.8547,4.63556072 60.1546412,4.63556072 C62.4542294,4.63556072 64.3249941,6.4900579 64.3249941,8.76982465 L64.3249941,9.63313411 L57.8868177,9.63313411 C58.2378176,10.5356293 59.1219353,11.1776446 60.1546412,11.1776446 C60.7648765,11.1776446 61.3477588,10.9528518 61.7967,10.544551 L62.9742883,11.8163362 C62.2032883,12.5176548 61.2018177,12.9040886 60.1546412,12.9040886" id="Fill-12" fill="#A2D303" fill-rule="nonzero"></path>
                        <path d="M42.6279706,13.1128223 L37.279853,13.1128223 L37.279853,11.3863783 L42.6279706,11.3863783 C43.1139706,11.3863783 43.5096176,11.0141144 43.5096176,10.5566566 C43.5096176,10.0990238 43.1139706,9.7267599 42.6279706,9.7267599 L39.5102647,9.7481021 C38.0577353,9.7481021 36.8808529,8.60122128 36.8808529,7.19176143 C36.8808529,5.78247652 38.0577353,4.63559571 39.5040883,4.63559571 L44.6736176,4.63559571 L44.6736176,6.3620397 L39.5040883,6.3620397 C39.0179117,6.3620397 38.6224412,6.73430363 38.6224412,7.19176143 C38.6224412,7.64939417 39.0179117,8.02165811 39.5040883,8.02165811 L42.6217941,8.0003159 C44.074147,8.0003159 45.2510294,9.14719673 45.2510294,10.5566566 C45.2510294,11.9661164 44.074147,13.1128223 42.6279706,13.1128223" id="Fill-14" fill="#0F2A75" fill-rule="nonzero"></path>
                        <polygon id="Fill-16" fill="#A2D303" fill-rule="nonzero" points="68.9425942 4.62551938 67.6628294 4.62551938 67.6628294 3.49872123e-05 65.9214177 3.49872123e-05 65.9214177 4.62551938 64.6418294 4.62551938 64.6418294 6.35196338 65.9214177 6.35196338 65.9214177 12.528081 67.6628294 12.528081 67.6628294 6.35196338 68.9425942 6.35196338"></polygon>
                    </g>
                </g>
                <g id="pagosnet-logo-icon" transform="translate(73.000000, 0.000000)">
                    <path d="M13.6170027,10.5462917 C13.516869,10.5942642 13.4055053,10.6146862 13.2950775,10.6058239 L8.8519492,10.2424661 C8.49652139,10.2133743 8.23018449,9.89201651 8.25825936,9.52615413 L8.85606684,1.77946606 C8.87422193,1.54056697 9.01777807,1.32921835 9.23021123,1.2278789 C9.33034492,1.18009908 9.44170856,1.1594844 9.5519492,1.16853945 L13.9952647,1.53170459 C14.3508797,1.56079633 14.6172166,1.88215413 14.5887674,2.24820917 L13.9913342,9.99470459 C13.9728048,10.2336037 13.8294358,10.4449523 13.6170027,10.5462917" id="Fill-1" fill="#ABDE04" fill-rule="nonzero"></path>
                    <g id="Group-5" transform="translate(8.048128, 0.979578)">
                        <g id="Fill-3-Clipped">
                            <mask id="mask-2" fill="white">
                                <use xlink:href="#path-1"></use>
                            </mask>
                            <g id="path-1"></g>
                            <path d="M1.11399198,0.0972743119 C0.848778075,0.223852294 0.669660428,0.487989908 0.646639037,0.786806422 L0.0490187166,8.53330183 C0.031986631,8.75428349 0.0997406417,8.96929266 0.240302139,9.13883394 C0.380676471,9.30837523 0.576264706,9.41125596 0.79094385,9.42878807 L5.23425936,9.79195321 C5.37220053,9.80332018 5.51145187,9.77769633 5.63685294,9.7177789 C5.90225401,9.59120092 6.08118449,9.3270633 6.10439305,9.02824679 L6.7018262,1.28175138 C6.71904545,1.06057706 6.65110428,0.84556789 6.51072995,0.676219266 C6.37035561,0.506677982 6.17476738,0.403797248 5.96008824,0.386265138 L1.51658556,0.0229073394 C1.37864439,0.0117330275 1.23958021,0.0373568807 1.11399198,0.0972743119 M1.2500615,0.399366055 C1.32305615,0.364494495 1.40559626,0.347925688 1.49113102,0.354861468 L5.93425936,0.718026606 C6.20040909,0.739797248 6.40067647,0.981586239 6.37952674,1.25535688 L5.78190642,9.00185229 C5.76749465,9.18757706 5.65500802,9.34228349 5.50078342,9.41568716 C5.42778877,9.45055872 5.34543583,9.46712752 5.25990107,9.46019174 L0.816585561,9.09683394 C0.550622995,9.07525596 0.350355615,8.83346697 0.371318182,8.55950367 L0.969125668,0.813200917 C0.983350267,0.627476147 1.09602406,0.472769725 1.2500615,0.399366055" id="Fill-3" fill="#7DAD07" fill-rule="nonzero" mask="url(#mask-2)"></path>
                        </g>
                    </g>
                    <path d="M13.982369,1.69764312 L9.53924064,1.33447798 C9.27327807,1.31270734 9.03819786,1.51885413 9.01723529,1.79281743 L8.78664706,4.78059725 C10.0060321,4.40895505 12.0060856,4.07989083 14.2258717,4.85168899 L14.4276364,2.23497339 C14.4487861,1.96120275 14.2485187,1.71941376 13.982369,1.69764312" id="Fill-6" fill="#BEE643" fill-rule="nonzero"></path>
                    <path d="M13.4139278,11.9789349 C13.2613877,12.0517606 13.0903182,12.0610083 12.9319759,12.004944 L8.71644118,10.513944 C8.55360695,10.4565312 8.42202941,10.3365037 8.34604011,10.1764028 C8.27023797,10.0161092 8.25919519,9.83558624 8.31515775,9.66797156 L10.7683396,2.31893486 C10.825238,2.1488156 10.9489545,2.00759541 11.1084198,1.93168716 C11.2609599,1.85886147 11.4320294,1.84961376 11.5903717,1.90548532 L15.8055321,3.39667798 C15.9685535,3.45409083 16.1003182,3.57411835 16.1763075,3.73441193 C16.2521096,3.89451284 16.2631524,4.07503578 16.2071898,4.24284312 L13.7538209,11.5916872 C13.6972968,11.7618064 13.5732059,11.9028339 13.4139278,11.9789349" id="Fill-8" fill="#ABDE04" fill-rule="nonzero"></path>
                    <path d="M11.0405535,1.78052569 L11.0403663,1.78052569 C10.8414091,1.8757 10.6864358,2.05217706 10.6155,2.26487431 L8.16213102,9.61391101 C8.01726471,10.0479752 8.24242513,10.5223055 8.66410963,10.6714248 L12.8792701,12.1624248 C13.0772914,12.2325532 13.2912219,12.2209936 13.4819439,12.1300578 C13.6809011,12.0350761 13.8358743,11.8585991 13.9068102,11.6459018 L16.3601791,4.29686514 C16.5050455,3.86280092 16.279885,3.38827798 15.8582005,3.23915872 L11.6430401,1.74815872 C11.4450187,1.67803028 11.2310882,1.68958991 11.0405535,1.78052569 M11.176623,2.08261743 C11.286115,2.03021376 11.4150722,2.01942477 11.5376658,2.06296606 L15.7532005,3.55396606 C16.0055,3.64316789 16.141008,3.92869083 16.0543503,4.18858991 L13.6009813,11.5376266 C13.5564358,11.6709477 13.4617299,11.7726725 13.3456872,11.8279661 C13.236008,11.8803697 13.107238,11.8911587 12.9846444,11.8476174 L8.76910963,10.3566174 C8.51681016,10.2674156 8.38130214,9.9817 8.46795989,9.72199358 L10.9213289,2.37295688 C10.9658743,2.23963578 11.0605802,2.13791101 11.176623,2.08261743" id="Fill-10" fill="#7DAD07" fill-rule="nonzero"></path>
                    <path d="M15.7531444,3.55398532 L11.5377968,2.06298532 C11.2854973,1.97359083 11.0079305,2.11307706 10.9214599,2.37297615 L9.97496257,5.20759083 C11.2460053,5.16038899 13.2625294,5.35439817 15.2257112,6.67084771 L16.0542941,4.18860917 C16.1409519,3.92871009 16.005631,3.64318716 15.7531444,3.55398532" id="Fill-12" fill="#BEE643" fill-rule="nonzero"></path>
                    <path d="M11.0217246,9.64065229 L11.2444519,8.97308349 C10.8673128,8.81201927 10.5058957,8.55385413 10.3093717,8.30185413 L10.271377,8.25291835 L10.7615642,7.53371651 L10.8296925,7.61521193 C11.0694519,7.90362477 11.3964305,8.13597339 11.7269652,8.25272569 C11.9453877,8.33017523 12.1471524,8.33383578 12.2952005,8.26332202 C12.3979545,8.21419358 12.4687032,8.13289083 12.5061364,8.02153303 C12.5927941,7.76221193 12.4614037,7.52292752 12.0382219,7.16843211 C11.5199599,6.73841376 11.0237834,6.19819358 11.2723396,5.45394587 C11.3837032,5.1202578 11.6026872,4.86748716 11.9060829,4.72279908 C12.1482754,4.60720275 12.4370722,4.56674404 12.7458957,4.6045055 L12.9721791,3.92672569 L13.6693717,4.17352385 L13.4582487,4.80583578 C13.7779278,4.94089083 14.0375267,5.11890917 14.2501471,5.34817523 L14.296377,5.39807431 L13.811992,6.09666147 L13.7446123,6.02595505 C13.6102273,5.88531284 13.3777674,5.64198257 12.9562701,5.4928633 C12.7588102,5.42312018 12.5883021,5.41772569 12.4630882,5.47745046 C12.3483556,5.53216606 12.2965107,5.62695505 12.273115,5.69689083 C12.1995588,5.91748716 12.3346925,6.1272945 12.8291845,6.56039541 C13.5104679,7.13895505 13.7112968,7.65644128 13.4997995,8.28971651 C13.3860027,8.63111101 13.1497995,8.90199174 12.8351738,9.05207431 C12.5808155,9.17345046 12.2791043,9.2142945 11.9579278,9.17113853 L11.7191043,9.88706514 L11.0217246,9.64065229 Z" id="Fill-14" fill="#FFFFFF" fill-rule="nonzero"></path>
                    <path d="M12.9218877,3.82105138 L12.8692941,3.97845505 L12.6901765,4.51501468 C12.3908984,4.48842752 12.1103369,4.53351009 11.8718877,4.64737248 C11.5480909,4.80169358 11.3143209,5.07122569 11.1956578,5.42687706 C10.9293209,6.22449174 11.4790267,6.81133578 11.9877433,7.23345505 C12.439,7.61126239 12.4908449,7.81105138 12.4296417,7.99446422 C12.3998824,8.08366606 12.3431711,8.14859266 12.2611925,8.18770275 C12.1320481,8.24935413 11.9516203,8.24434495 11.7530374,8.17421651 C11.4359786,8.06208807 11.1217273,7.83860183 10.8907647,7.56117064 L10.7554439,7.39817982 L10.6356578,7.57388624 L10.2399893,8.15398716 L10.1703636,8.25628991 L10.2463529,8.35377615 C10.438385,8.60038165 10.7803369,8.85161101 11.1438128,9.01884037 L10.9716203,9.53478532 L10.9190267,9.69218899 L11.0719412,9.74632661 L11.6160321,9.9387945 L11.7691337,9.99293211 L11.8217273,9.83552844 L12.013385,9.2614 C12.3252032,9.29280367 12.6186791,9.24733578 12.8692941,9.12750092 C13.2041337,8.96778532 13.4553102,8.67995046 13.5764064,8.31659266 C13.8004439,7.6453633 13.5923155,7.10051927 12.8797754,6.49537248 C12.3676898,6.04685872 12.2980642,5.87808807 12.3495348,5.72395963 C12.367877,5.6694367 12.4083048,5.59526239 12.4970214,5.55287706 C12.6029572,5.5024 12.7526898,5.50895046 12.9299358,5.57156514 C13.3330909,5.71432661 13.5487059,5.93973945 13.6772888,6.07440917 L13.6870214,6.08442752 L13.8221551,6.22545505 L13.933893,6.06419817 L14.3231979,5.5024 L14.4008717,5.39046422 L14.3085989,5.29066606 C14.1038396,5.06987706 13.8575294,4.89513394 13.559,4.75950092 L13.7195882,4.27919817 L13.7719947,4.1217945 L13.6190802,4.06765688 L13.0748021,3.87518899 L12.9218877,3.82105138 Z M13.0222086,4.03259266 L13.5664866,4.22506055 L13.3564866,4.85390459 C13.7697487,5.01593211 14.0212995,5.2220789 14.1916203,5.4056844 L13.8021283,5.96767523 C13.6737326,5.83319817 13.4326631,5.57349174 12.9825294,5.41416147 C12.7416471,5.3290055 12.5593476,5.3397945 12.4290802,5.40202385 C12.309107,5.45924404 12.2333048,5.56019817 12.1966203,5.66982202 C12.1035989,5.9487945 12.2860856,6.19385872 12.7770214,6.62387706 C13.421246,7.17103303 13.6276898,7.65056514 13.423492,8.26264771 C13.3177433,8.57938165 13.1015668,8.83330826 12.8011658,8.97664771 C12.5539198,9.09455596 12.2497754,9.13751927 11.9033316,9.0787578 L11.6688128,9.78139083 L11.1243476,9.58892294 L11.346139,8.92501468 C10.9358717,8.7647211 10.5611658,8.4917211 10.3725027,8.24973945 L10.767984,7.66944587 C10.9761123,7.91951927 11.2997219,8.18982202 11.700631,8.33162018 C11.9435722,8.41754679 12.1649893,8.41696881 12.3291337,8.33874862 C12.4483583,8.28191376 12.537262,8.1840422 12.5825561,8.04860183 C12.6868075,7.73629908 12.5185455,7.46329908 12.0891872,7.10398716 C11.4829572,6.60056514 11.1391337,6.10889541 11.3485722,5.48101468 C11.4535722,5.1664 11.661139,4.93135413 11.9398289,4.79822569 C12.1803369,4.68359266 12.474,4.64467523 12.8007914,4.69630826 L13.0222086,4.03259266 Z" id="Fill-16" fill="#98AEAF" fill-rule="nonzero"></path>
                    <path d="M12.0906096,18.880267 C11.8854759,18.9781385 11.5032834,19.1605881 11.1974545,19.0444138 C11.0432299,18.9860376 10.9200749,18.8552211 10.8311711,18.6560101 C10.5229091,18.1034596 9.96552941,17.5372303 9.04186631,17.9370009 L7.22654545,18.8030101 C6.78165241,19.015322 6.2517861,18.8153404 6.04534225,18.3573862 L4.52312299,14.9769642 C4.31686631,14.5190101 4.51114439,13.9735881 4.95603743,13.7612761 L6.25197326,13.1430284 C6.25421925,13.1422578 6.26675936,13.1376339 6.28360428,13.1295422 C6.44793583,13.0511294 6.95216043,12.6925881 6.53758824,11.3719 C6.39871123,10.9301294 6.58363102,9.16978991 6.58550267,9.15206514 C6.59448663,8.86056972 6.75619786,8.60876239 7.00774866,8.4885422 C7.11106417,8.43941376 7.22130481,8.4162945 7.33585027,8.42014771 L7.92691979,8.43883578 C8.32782888,8.45174404 8.6443262,8.79795505 8.6317861,9.21082661 L8.62429947,9.45723945 C8.64750802,9.85026697 8.78114439,10.1280835 9.01042246,10.2689183 C9.30689305,10.4507899 9.75028877,10.4032028 10.3280695,10.1275055 L15.557107,7.63216606 C15.8402888,7.49711101 16.1775615,7.62426697 16.3087647,7.91556972 L16.5210107,8.38701009 C16.6522139,8.67831284 16.5286845,9.02548716 16.2455027,9.1605422 L15.5857433,9.47534954 C15.472508,9.5292945 15.2868396,9.69421193 15.3938984,9.93214771 C15.5024545,10.1733587 15.7452086,10.1348266 15.8584439,10.0808817 L16.8116791,9.62601009 C17.0946738,9.49095505 17.4319465,9.61811101 17.5631497,9.90960642 L17.7753957,10.3808541 C17.9065989,10.6723495 17.7830695,11.0193312 17.4998877,11.1543862 L16.4336043,11.6633954 C16.3050214,11.7315972 16.2625348,11.8608725 16.322615,11.9941936 C16.4036578,12.1739459 16.5726684,12.1724046 16.6666257,12.1275147 L17.2730428,11.8381385 C17.6372674,11.6643587 18.0705561,11.8281202 18.2395668,12.2026523 L18.4344064,12.6357532 C18.6032299,13.010478 18.4443262,13.4566798 18.0802888,13.630267 L17.0703422,14.112111 C16.9615989,14.1641294 16.8311444,14.3109367 16.917615,14.5026339 C16.9988449,14.6829642 17.1899412,14.6710193 17.2986845,14.6191936 L17.5749412,14.4874138 C17.8579358,14.3523587 18.1952086,14.4795147 18.3264118,14.7708174 L18.5087112,15.1755972 C18.6399144,15.4670927 18.516385,15.8140743 18.2332032,15.949322 L12.0906096,18.880267 Z" id="Fill-18" fill="#F2F7F5" fill-rule="nonzero"></path>
                    <path d="M6.97389037,8.41319266 C6.70493316,8.54150459 6.51495989,8.8173945 6.50522727,9.14299083 C6.50522727,9.14299083 6.31487968,10.9337706 6.46068182,11.3975046 C6.86065508,12.6717615 6.37608289,12.9938899 6.24974599,13.0541927 C6.23177807,13.0626697 6.22110963,13.065945 6.22110963,13.065945 L4.92199198,13.6859266 C4.43573529,13.9178899 4.22442513,14.5116697 4.44977273,15.0120092 L5.97199198,18.3924312 C6.19752674,18.8929633 6.77437166,19.1104771 7.26044118,18.8785138 L9.07183155,18.0142385 C9.29774064,17.916367 10.1238904,17.5562844 10.7576337,18.6906697 C11.0952807,19.447055 11.8005214,19.1104771 12.1246925,18.9557706 L18.2672861,16.0248257 C18.5912701,15.8701193 18.7322059,15.4742018 18.5820989,15.1405138 L18.3997995,14.7359266 C18.2495053,14.4022385 17.8648797,14.2571651 17.5408957,14.4118716 L17.2644519,14.5436514 C17.2644519,14.5436514 17.0675535,14.6376697 16.9910027,14.4675505 C16.9071524,14.2818257 17.104238,14.1878073 17.104238,14.1878073 L18.1141845,13.7059633 C18.5193984,13.5125321 18.6955214,13.0177798 18.507607,12.6006697 L18.3127674,12.1677615 C18.1248529,11.7506514 17.6442112,11.5693578 17.2391845,11.762789 L16.632393,12.0521651 C16.632393,12.0521651 16.4723663,12.1286514 16.3961898,11.9593028 C16.3361096,11.8259817 16.4259492,11.7608624 16.4675,11.7388991 L17.5339706,11.2300826 C17.8579545,11.0753761 17.9988904,10.6794587 17.8487834,10.3459633 L17.6365374,9.87452294 C17.4862433,9.54102752 17.1016176,9.39595413 16.7776337,9.55046789 L15.8243984,10.0055321 C15.8243984,10.0055321 15.5707888,10.1265229 15.4674733,9.89706422 C15.3660294,9.6720367 15.619639,9.55085321 15.619639,9.55085321 L16.2795856,9.23604587 C16.6035695,9.08133945 16.7445053,8.68561468 16.5942112,8.35192661 L16.3821524,7.8806789 C16.2318583,7.54699083 15.8472326,7.40191743 15.5232487,7.55662385 L10.3230348,10.0380917 C10.3133021,10.0427156 10.3035695,10.0473394 10.2938369,10.0519633 C9.16635027,10.5900642 8.7472861,10.1594679 8.7051738,9.45991743 L8.71266043,9.21331193 C8.72632353,8.75400917 8.37576203,8.36984404 7.92937166,8.35558716 L7.33830214,8.33689908 C7.20822193,8.33266055 7.08431818,8.36040367 6.97389037,8.41319266 M7.04183155,8.56423853 C7.13354278,8.52050459 7.23161765,8.49988991 7.33343583,8.50316514 L7.92431818,8.52204587 C8.28086898,8.53341284 8.56199198,8.8412844 8.5509492,9.20811009 L8.54364973,9.4547156 L8.5432754,9.46242202 L8.5438369,9.47012844 C8.56872995,9.8839633 8.71565508,10.1848991 8.96889037,10.3401835 C9.28987968,10.5370826 9.75854278,10.4910367 10.3619652,10.2030092 L10.3909759,10.1891376 L15.5911898,7.70766972 C15.8339439,7.59188073 16.1229278,7.70092661 16.2352273,7.95080734 L16.4474733,8.42186239 C16.5601471,8.67174312 16.4540241,8.96921101 16.2112701,9.085 L15.5516979,9.4 C15.3907353,9.4766789 15.1964572,9.69111009 15.3207353,9.967 C15.4465107,10.2461651 15.731377,10.2332569 15.8923396,10.1563853 L16.8455749,9.70170642 C17.0883289,9.58572477 17.3773128,9.69477064 17.4897995,9.94465138 L17.7018583,10.4158991 C17.8145321,10.6657798 17.7085963,10.9632477 17.4660294,11.0790367 L16.3933824,11.5909358 C16.2284893,11.6784037 16.1708422,11.8544954 16.2494519,12.0292385 C16.3432219,12.2373119 16.5517246,12.2741101 16.7005214,12.2030183 L17.3071257,11.9136422 C17.6307353,11.7593211 18.0159225,11.9047798 18.1660294,12.2378899 L18.3610561,12.6707982 C18.5109759,13.0039083 18.3698529,13.4004037 18.0460561,13.5549174 L17.0362968,14.0367615 C16.8979813,14.1026514 16.7330882,14.2904954 16.8440775,14.5376789 C16.9391578,14.7484495 17.161885,14.7761927 17.3325802,14.6946972 L17.6088369,14.5629174 C17.8515909,14.4471284 18.1405749,14.5561743 18.2530615,14.8058624 L18.4351738,15.2106422 C18.5478476,15.4605229 18.4417246,15.7579908 18.1993449,15.8737798 L12.0565642,18.8047248 C11.8620989,18.8975872 11.4999332,19.0704037 11.2251738,18.966367 C11.0902273,18.9151193 10.9854144,18.8022202 10.9045588,18.6211193 L10.901377,18.6143761 L10.8978209,18.6078257 C10.5768316,18.0329266 9.98856952,17.4366422 9.00389037,17.8631927 L7.1925,18.7274679 C6.78784759,18.9205138 6.30627005,18.7388349 6.11872995,18.3224954 L4.5965107,14.9420734 C4.40897059,14.5257339 4.58546791,14.0298257 4.98993316,13.8367798 L6.28100267,13.220844 C6.28979947,13.2175688 6.30215241,13.2125596 6.31768717,13.2052385 C6.49717914,13.1195046 7.04950535,12.7320642 6.61434492,11.3464495 C6.50372995,10.9938807 6.61397059,9.64930275 6.66581551,9.16110092 L6.66656417,9.15455046 L6.66675134,9.148 C6.67442513,8.89465138 6.81816845,8.67097248 7.04183155,8.56423853" id="Fill-20" fill="#D3DDD9" fill-rule="nonzero"></path>
                    <g id="Group-24" transform="translate(3.743316, 6.952055)">
                        <g id="Fill-22-Clipped">
                            <mask id="mask-4" fill="white">
                                <use xlink:href="#path-3"></use>
                            </mask>
                            <g id="path-3"></g>
                            <path d="M3.02641444,1.008 C2.5858262,1.21838532 2.3003984,1.65591743 2.27775134,2.15394495 C2.2287139,2.61902752 2.09301872,4.08093578 2.25566578,4.599 C2.47090642,5.28487156 2.37376738,5.57405505 2.30900802,5.64129358 L2.28130749,5.64688073 L2.27382086,5.66075229 L0.974516043,6.28073394 C0.246441176,6.62810092 -0.0713663102,7.52050459 0.266280749,8.26995413 L1.78868717,11.6503761 C2.12595989,12.3998257 2.99291176,12.7269633 3.7211738,12.3795963 L5.52432888,11.5191743 C5.86141444,11.3748716 6.22189572,11.3340275 6.5840615,11.9703853 C6.77571925,12.3838349 7.05553209,12.5622385 7.25823262,12.6391101 C7.78491711,12.8387064 8.32545187,12.5807339 8.58542513,12.4568532 L14.7280187,9.5257156 C15.2941952,9.2556055 15.541254,8.56144954 15.2788476,7.97845872 L15.0965481,7.57387156 C15.011762,7.3856422 14.884115,7.23170642 14.7310134,7.11861468 C15.265746,6.76488991 15.479115,6.04857798 15.2043556,5.43861468 L15.009516,5.00570642 C14.8826176,4.72345872 14.6709332,4.5086422 14.420131,4.37821101 C14.6647567,4.04548624 14.7276444,3.58791743 14.5455321,3.1837156 L14.3332861,2.71266055 C14.1474305,2.29978899 13.7549439,2.0516422 13.340746,2.0379633 C13.4255321,1.76843119 13.4157995,1.46653211 13.2911471,1.18987156 L13.0789011,0.718623853 C12.8164947,0.135633028 12.1421364,-0.118678899 11.5757727,0.151431193 L6.37555882,2.63289908 L6.34654813,2.64677064 C5.76390107,2.92497248 5.57636096,2.82825688 5.55689572,2.81631193 C5.50149465,2.78221101 5.45994385,2.66141284 5.44759091,2.49822936 L5.45432888,2.27686239 C5.47622727,1.54282569 4.91416845,0.927275229 4.20106684,0.904348624 L3.61018449,0.88566055 C3.40954278,0.879302752 3.20777807,0.921495413 3.02641444,1.008 M3.2306123,1.46113761 C3.34104011,1.40834862 3.46494385,1.3806055 3.59502406,1.38484404 L4.18609358,1.40353211 C4.63248396,1.41778899 4.98304545,1.80195413 4.96938235,2.26125688 L4.96189572,2.50786239 C5.00382086,3.20741284 5.42307219,3.63800917 6.55055882,3.09990826 C6.56029144,3.0952844 6.57002406,3.09066055 6.57956952,3.0860367 L11.7799706,0.604568807 C12.1039545,0.450055046 12.4885802,0.59493578 12.6386872,0.928623853 L12.8509332,1.39987156 C13.0012273,1.73355963 12.8602914,2.1292844 12.5363075,2.28399083 L11.876361,2.59879817 C11.876361,2.59879817 11.6227513,2.71998165 11.7241952,2.94500917 C11.8273235,3.17446789 12.0811203,3.05347706 12.0811203,3.05347706 L13.0343556,2.59841284 C13.3583396,2.44389908 13.7429652,2.58897248 13.8932594,2.92266055 L14.1053182,3.39390826 C14.2556123,3.72740367 14.1146765,4.1233211 13.7906925,4.27802752 L12.7240348,4.78684404 C12.6826711,4.809 12.5928316,4.87392661 12.6529118,5.00724771 C12.7290882,5.17659633 12.889115,5.10011009 12.889115,5.10011009 L13.4959064,4.81073394 C13.9009332,4.61730275 14.3815749,4.79859633 14.5694893,5.21570642 L14.7643289,5.64861468 C14.9522433,6.06572477 14.7759332,6.56047706 14.3707193,6.75390826 L13.3609599,7.23575229 C13.3609599,7.23575229 13.1638743,7.32977064 13.2475374,7.51549541 C13.3242754,7.68561468 13.5211738,7.59159633 13.5211738,7.59159633 L13.7976176,7.45981651 C14.1216016,7.30511009 14.5062273,7.45018349 14.6565214,7.78387156 L14.8386337,8.18865138 C14.9889278,8.52214679 14.847992,8.91806422 14.524008,9.07277064 L8.38122727,12.0037156 C8.05724332,12.158422 7.35181551,12.495 7.01435561,11.7386147 C6.3806123,10.6042294 5.55446257,10.9643119 5.32855348,11.0621835 L3.5171631,11.9264587 C3.03090642,12.158422 2.4540615,11.9409083 2.2287139,11.4403761 L0.706307487,8.06014679 C0.480959893,7.55961468 0.692457219,6.96583486 1.1787139,6.73387156 L2.47764439,6.11388991 C2.47764439,6.11388991 2.4885,6.11061468 2.50646791,6.10213761 C2.63261765,6.04183486 3.11718984,5.71970642 2.71740374,4.44544954 C2.5716016,3.9817156 2.7619492,2.19093578 2.7619492,2.19093578 C2.77168182,1.86533945 2.96165508,1.58944954 3.2306123,1.46113761" id="Fill-22" fill="#325392" fill-rule="nonzero" mask="url(#mask-4)"></path>
                        </g>
                    </g>
                    <path d="M4.2841123,21.6143128 C3.67750802,21.9038817 2.95486096,21.631267 2.67373797,21.0066615 L0.354941176,15.8576156 C0.073631016,15.2330101 0.338470588,14.489533 0.945262032,14.1999642 L3.48734759,12.9867807 C4.09413904,12.6972119 4.81659893,12.9698266 5.09790909,13.5944321 L7.41670588,18.743478 C7.69801604,19.3680835 7.43317647,20.1117532 6.82638503,20.401322 L4.2841123,21.6143128 Z" id="Fill-25" fill="#325392" fill-rule="nonzero"></path>
                    <g id="Group-29" transform="translate(0.000000, 12.539211)">
                        <g id="Fill-27-Clipped">
                            <mask id="mask-6" fill="white">
                                <use xlink:href="#path-5"></use>
                            </mask>
                            <g id="path-5"></g>
                            <path d="M3.3853984,0.221077982 L0.843312834,1.43406881 C0.115050802,1.78162844 -0.202569519,2.67383945 0.134890374,3.42348165 L2.4535,8.57233486 C2.79114706,9.3217844 3.65809893,9.64892202 4.38636096,9.30155505 L6.92844652,8.08837156 C7.65633422,7.74100459 7.97432888,6.84860092 7.63668182,6.09915138 L5.31788503,0.950298165 C4.98042513,0.200848624 4.11347326,-0.126288991 3.3853984,0.221077982 M3.58940909,0.674215596 C4.07566578,0.442059633 4.6525107,0.659766055 4.87785829,1.16029817 L7.19646791,6.30915138 C7.42181551,6.80968349 7.21050535,7.4034633 6.72443583,7.63542661 L4.18235027,8.84841743 C3.69609358,9.08038073 3.11924866,8.86267431 2.89390107,8.36233486 L0.574917112,3.21348165 C0.349569519,2.71294954 0.561066845,2.11916972 1.04732353,1.88720642 L3.58940909,0.674215596" id="Fill-27" fill="#325392" fill-rule="nonzero" mask="url(#mask-6)"></path>
                        </g>
                    </g>
                    <path d="M5.51951872,15.1244266 L4.87772727,13.6995092 C4.65237968,13.1989771 4.07553476,12.9812706 3.58927807,13.2134266 L1.04719251,14.4264174 C0.561122995,14.6583807 0.349625668,15.2521606 0.574973262,15.7526927 L1.49807487,17.8022156 C1.94540107,17.087445 3.16553476,15.5365275 5.51951872,15.1244266" id="Fill-30" fill="#486FA8" fill-rule="nonzero"></path>
                </g>
            </g>
        </g>
    </g>
</svg>