<?xml version="1.0" encoding="UTF-8"?>
<svg width="25px" height="23px" viewBox="0 0 25 23" version="1.1" xmlns="http://www.w3.org/2000/svg" xmlns:xlink="http://www.w3.org/1999/xlink">
    <!-- Generator: Sketch 46.2 (44496) - http://www.bohemiancoding.com/sketch -->
    <title>ico-pagofacil-checkout</title>
    <desc>Created with Sketch.</desc>
    <defs></defs>
    <g id="Symbols" stroke="none" stroke-width="1" fill="none" fill-rule="evenodd">
        <g id="ico-pagofacil-checkout">
            <rect id="Rectangle-3" fill="#FFDE00" x="0" y="0" width="25" height="23" rx="3"></rect>
            <g id="pago-facil" transform="translate(1.000000, 2.000000)" fill-rule="nonzero">
                <path d="M20.9807686,6.74471504 C21.3791882,6.65559409 21.7775832,6.56636165 22.1759536,6.47701772 C22.1914508,6.47353421 22.2055038,6.46099028 22.2208134,6.45972197 C22.3463397,6.44931976 22.4850504,6.40019194 22.5781125,6.52758931 C22.6767108,6.66256515 22.6099445,6.79156289 22.5270324,6.90299033 C22.1430272,7.41906445 21.7535583,7.93106923 21.3675211,8.44563722 C19.6642552,10.7160206 17.91283,12.9498255 16.2188096,15.2272624 C15.6429242,16.0014857 15.0542618,16.7661918 14.4752626,17.5381163 C14.1172444,18.0154315 13.9296147,18.0729314 13.3915104,17.8389348 C11.3922271,16.9695396 9.38549291,16.1172909 7.39479393,15.2281402 C5.34502218,14.312602 3.29456568,13.3985955 1.24342444,12.4861205 C1.16130079,12.4536486 1.08168101,12.4151705 1.00521155,12.3709988 C0.879146778,12.2905929 0.864677175,12.1073109 0.998131901,12.0592498 C1.27125918,11.9608908 1.19395972,11.7895094 1.14536069,11.6022896 C0.765226208,10.1379485 0.388129592,8.67281955 0.00327132116,7.18149151 C1.45093969,6.88352868 2.86194248,6.45590107 4.3303964,6.22255021 C4.15361359,5.57500166 3.97498582,4.91948749 3.79547159,4.26421595 C3.7616631,4.14080623 3.72117325,4.01917718 3.68921359,3.89532229 C3.59232438,3.51984248 3.70117846,3.31185354 4.08085714,3.202142 C4.54999785,3.06657793 5.02411708,2.947892 5.49738754,2.8270073 C8.72384468,2.00288894 11.9504871,1.17949785 15.1773148,0.356834049 C15.2161579,0.346925349 15.254464,0.334765682 15.293527,0.325888937 C15.6880213,0.23624275 15.9363701,0.375100376 16.044285,0.765636574 C16.1509166,1.15151858 16.2413294,1.54189431 16.3380702,1.93049372 C16.4212613,2.26467261 16.5025967,2.59931504 16.5869618,2.93319474 C16.6014386,2.97294296 16.6196129,3.01124515 16.641246,3.04759769 C17.1260768,2.83616053 17.6134727,2.65582556 18.1264505,2.55945451 C19.0272867,2.39021826 19.9086873,2.37359919 20.7420801,2.85357615 C21.4189695,3.24341584 21.7598172,3.83549452 21.845933,4.58998163 C21.9297997,5.3247572 21.6540735,5.93765816 21.1748157,6.47533373 C21.0952373,6.5646087 20.9927726,6.63247121 20.9302564,6.73757546 C20.9406954,6.78518797 20.9635013,6.74537191 20.9807686,6.74471504 Z" id="Shape" fill="#FFFFFF"></path>
                <path d="M21.374208,6.80759439 C21.2624047,7.11098439 21.1115694,7.31447439 20.9200416,7.0346786 C20.857034,6.9426465 20.9565627,6.75392597 21.0760326,6.73756966 L21.374208,6.80759439 Z" id="Shape" fill="#FEF4A4"></path>
                <path d="M21.9984037,6.97947438 C21.6800599,7.46338534 21.3110647,7.90972105 20.961799,8.3705109 C18.8924499,11.1006327 16.821052,13.8292017 14.7476054,16.5562178 C14.5092456,16.8700577 14.2592757,17.1756561 14.033758,17.4984018 C13.9297848,17.647201 13.846949,17.6624091 13.6843241,17.5890243 C12.075144,16.8628838 10.4635684,16.1420531 8.84959705,15.4265322 C6.54131101,14.3973485 4.23303673,13.3681384 1.92477422,12.3389019 C1.84603631,12.3037448 1.75722922,12.2829274 1.6806514,12.1993584 C1.96319629,12.0875863 2.25353136,12.0369524 2.53598974,11.9634946 C3.61404329,11.6831354 4.69405247,11.4102856 5.77373588,11.1362215 C5.88328405,11.1084134 5.97513673,11.0740456 5.94863507,10.9327887 C5.92417315,10.8024056 6.02798733,10.7924385 6.1092435,10.7698626 C6.42586466,10.6819028 6.74156359,10.589212 7.0614609,10.5148624 C7.37349651,10.4423404 7.56263813,10.2693577 7.58321101,9.94253926 C7.58959511,9.841137 7.63829082,9.80774565 7.7269848,9.78485994 C8.09146885,9.69081525 8.45432546,9.59046332 8.81784764,9.49268233 C8.89352449,9.47232793 8.96802487,9.43333115 9.01819189,9.54326117 C9.16018163,9.85440838 9.43108115,9.8819594 9.71361203,9.81941665 C10.2142262,9.70860209 10.7089951,9.57162519 11.2084453,9.45517718 C11.3504026,9.42130407 11.4752516,9.33708243 11.5598233,9.21814173 C11.622852,9.12322973 11.738692,9.07811895 11.8493091,9.10540924 C12.2943561,9.1769129 12.7487525,9.16604958 13.1898741,9.07336015 C13.685049,8.96346553 14.1515526,8.75058789 14.5590554,8.44856729 C14.656644,8.37772105 14.7332069,8.33315752 14.8438726,8.43225612 C14.9190453,8.499571 15.0221127,8.48254737 15.1204529,8.45608872 C15.4609492,8.36446901 15.8033194,8.27984291 16.1443842,8.19029388 C16.4737291,8.10382234 16.5325432,8.01543142 16.492818,7.67935295 C16.4791802,7.61086128 16.4814557,7.54015233 16.499469,7.47267922 C16.7809727,7.6143978 17.0713745,7.71812207 17.3903467,7.71950881 C17.5253423,7.72009608 17.5220439,7.84606998 17.5396055,7.9321094 C17.5661096,8.06195832 17.6032146,8.09682632 17.7490817,8.0577928 C19.0881981,7.69942121 20.4303316,7.35232959 21.7717492,7.00257664 C21.825945,6.98844538 21.8817672,6.98055322 21.9368315,6.96975709 C21.9570276,6.95779787 21.9828723,6.96187667 21.9984037,6.97947438 Z" id="Shape" fill="#EB028B"></path>
                <path d="M15.8514114,6.69045113 C15.938128,7.03225392 16.0204394,7.37527331 16.1143811,7.71507793 C16.140832,7.81075827 16.1205366,7.83836004 16.0279729,7.86049028 C15.7162224,7.93501676 15.403441,8.00861085 15.0979969,8.10464404 C14.953834,8.14996982 14.9103914,8.10335059 14.8907141,7.97843571 C14.8821221,7.92389484 14.8839472,7.86457943 14.8242403,7.8160297 C14.358643,8.44046681 13.6480805,8.57050328 12.9529711,8.70993947 C12.2814759,8.8446398 11.6116584,8.82707626 10.9719242,8.53568797 C10.9587158,8.54562068 10.9413171,8.54803481 10.9259033,8.54207352 C10.9124942,8.53484672 10.9016201,8.52368639 10.8947441,8.51009404 C10.8892684,8.51475023 10.8835625,8.51912877 10.877648,8.52321316 C10.877648,8.52321316 10.8984495,8.52857062 10.8988342,8.52888625 C10.9091261,8.54091051 10.9225956,8.54979399 10.937701,8.55451982 C10.9533239,8.56042039 10.9641172,8.57483309 10.9653835,8.59148507 C11.0512059,8.75716047 11.218066,8.85764823 11.3232296,9.03301676 C11.1471564,9.12405644 10.9555197,9.14276214 10.7760504,9.19249415 C10.3739061,9.30393271 9.96369264,9.38705317 9.56388287,9.50569028 C9.41775854,9.54905124 9.33812256,9.51779194 9.26033153,9.40640317 C9.2236935,9.35394071 9.17314608,9.31134683 9.13478298,9.25989603 C9.09306397,9.19809956 9.0139816,9.17363235 8.94465387,9.20107218 C8.44072379,9.3359188 7.93638577,9.46923625 7.4316398,9.60102454 C7.32363351,9.62924259 7.30835623,9.7055362 7.3006695,9.80154425 C7.27761026,10.0895225 7.27450038,10.0895476 6.99850634,10.1588167 C6.49328443,10.2856152 5.98796971,10.4120478 5.4504812,10.5467061 C5.53792766,9.92521885 5.68453002,9.33567728 5.78631364,8.73062836 C5.76303047,8.74225623 5.74158649,8.75724933 5.72267175,8.77512519 C5.44004758,9.16714141 5.04402777,9.37649823 4.58654646,9.49426966 C4.1747138,9.60029033 3.76765038,9.72565666 3.35389447,9.8229833 C3.19040478,9.86144114 3.1681305,9.92850999 3.20896692,10.0730905 C3.28528228,10.3432838 3.34526278,10.6180482 3.41848179,10.8891706 C3.4523275,11.0144987 3.43059458,11.069566 3.28762025,11.1025073 C2.77945424,11.219588 2.27481864,11.3524922 1.77091676,11.4871544 C1.66892578,11.5144091 1.62021412,11.5272909 1.58738829,11.3963119 C1.27523781,10.1507692 0.957727927,8.90657352 0.634858647,7.66372476 C0.606504296,7.55377685 0.635071321,7.49970145 0.745051128,7.47441928 C1.7541522,7.24244356 2.74201676,6.91941364 3.7664797,6.75512594 C4.13298092,6.69495128 4.50662061,6.69225388 4.87395242,6.74713083 C5.38259211,6.82549753 5.80439194,7.04440392 5.98754098,7.62471155 C6.08891955,7.2994384 6.11903088,7.00511617 6.18393867,6.71907712 C6.22476638,6.53915591 6.25751439,6.35708136 6.28553571,6.17468974 C6.29340102,6.06804607 6.37471924,5.98140038 6.48065011,5.96679264 C6.98754055,5.84346364 7.4937224,5.71684398 7.99780408,5.58256853 C8.14899151,5.54229474 8.24314012,5.57970709 8.34730376,5.69844135 C8.85127427,6.27291058 9.36612841,6.83784087 9.87845462,7.40495156 C9.91443383,7.4447797 9.93806294,7.50315886 10.0036735,7.50856273 C10.0540315,7.49704253 10.007027,7.47744071 10.0075558,7.46178448 C9.93223692,7.08998742 9.93317865,6.70676986 10.010324,6.33534748 C10.1112699,5.82379656 10.3739114,5.40278314 10.8033163,5.11184049 C11.8290843,4.41684232 12.9609962,4.13393926 14.1925558,4.32533426 C14.6467222,4.38739746 15.0511115,4.64477168 15.299638,5.02993856 C15.4152126,5.20496294 15.4137596,5.2141094 15.2225758,5.26721568 C14.7662802,5.39396633 14.3078298,5.51297368 13.8518662,5.64087422 C13.7796845,5.66988698 13.697051,5.65015002 13.645772,5.59164876 C13.278236,5.26819012 12.8507177,5.2690036 12.4255358,5.44199984 C12.0159295,5.60865934 11.8049704,5.9333428 11.7929605,6.38231907 C11.7847711,6.688437 11.8438342,6.9733247 12.0324722,7.22180687 C12.2234008,7.47330564 12.4643228,7.61652261 12.7934807,7.61129517 C13.0754091,7.61300215 13.3548984,7.55900643 13.6159028,7.45240795 C13.8519676,7.36142971 14.0186162,7.14767953 14.0492697,6.89655403 C13.8080349,6.94862546 13.5807003,6.98815537 13.3593245,7.04926788 C13.2379864,7.08276412 13.2074642,7.04701788 13.1858251,6.93518588 C13.1503898,6.73762406 13.1014442,6.54272566 13.0393329,6.3518631 C12.9891495,6.20471939 13.0439987,6.18022508 13.1727016,6.151079 C13.9005962,5.98625623 14.6246965,5.80450505 15.3534611,5.64381396 C15.5063697,5.61009731 15.5279161,5.56055043 15.5308355,5.40943985 C15.546076,4.61986917 15.8562348,3.98022583 16.536918,3.54282632 C17.1160898,3.17065698 17.7580247,2.97869501 18.4299076,2.86927637 C18.8904782,2.7880175 19.3620932,2.79248785 19.8210408,2.88246267 C21.4845182,3.22630183 21.8314266,4.97741907 21.0492425,6.10783937 C20.8319547,6.42019279 20.5306068,6.66458277 20.1801176,6.81269066 C19.2944823,7.20026198 18.369465,7.42351224 17.3987961,7.41159812 C16.847304,7.4048312 16.3560934,7.23113845 15.9876222,6.79352868 C15.9542122,6.74896209 15.9235463,6.70240288 15.8957947,6.6541094 C15.8877851,6.63620704 15.8753146,6.62905295 15.8610374,6.63726316 C15.8504599,6.64093778 15.8426831,6.65002693 15.840689,6.66104555 C15.8386948,6.67206416 15.8427927,6.68330238 15.8514114,6.69045113 Z" id="Shape" fill="#005DAB"></path>
                <path d="M9.55180827,6.48842771 C9.22287132,6.1234753 8.90666294,5.78137911 8.60105639,5.4300601 C8.43699103,5.24145403 8.2588819,5.1629312 8.0059819,5.23476203 C7.45084334,5.39243604 6.89071321,5.53246579 6.33337782,5.68251106 C6.13708502,5.73535634 6.01719796,5.85745908 5.98885956,6.06840516 C5.96541267,6.24294329 5.9233819,6.41491047 5.89315166,6.58863609 C5.87719044,6.68036407 5.84593308,6.72618722 5.75244039,6.65940789 C5.49921799,6.47854221 5.20686638,6.3885659 4.91028206,6.31928185 C4.8067759,6.30443152 4.7251558,6.22363899 4.70925145,6.12028953 C4.50337863,5.33739586 4.29655747,4.55471488 4.0819703,3.77418432 C4.0464261,3.64489656 4.10535918,3.62283158 4.20306235,3.59807723 C5.15854398,3.35599237 6.11365972,3.11246697 7.06840956,2.86750102 C9.15589979,2.33047041 11.2431533,1.79252078 13.3301702,1.25365215 C14.0285161,1.0735724 14.7271732,0.894647368 15.4244625,0.710553383 C15.5597472,0.674833727 15.6249967,0.699963641 15.6619668,0.848078894 C15.8443299,1.57868024 16.0372943,2.30663958 16.2272509,3.0353399 C16.2716965,3.20582852 16.2532344,3.33886321 16.0829608,3.44736831 C15.7561187,3.65564436 15.5351905,3.96350091 15.3619371,4.30476574 C15.3073107,4.41236552 15.2727158,4.46871847 15.1396381,4.37706058 C14.4639464,3.91165666 13.7083297,3.85304017 12.9223513,3.96632803 C12.3583142,4.04447631 11.8064719,4.1938743 11.2800441,4.41094302 C10.3923696,4.7818218 9.80026434,5.41177347 9.5985377,6.37360763 C9.58584423,6.41299198 9.57022423,6.45137229 9.55180827,6.48842771 Z" id="Shape" fill="#EB028B"></path>
                <path d="M16.0520218,7.04741424 C15.8563313,6.92890834 15.6856317,6.7209826 15.9033776,6.61109385 C16.1718374,6.47560865 16.2168068,6.74025496 16.2753345,6.89991447 L16.0520218,7.04741424 Z" id="Shape" fill="#3C81BF"></path>
                <path d="M10.0688818,7.46178786 C10.3724707,7.57971733 10.5909197,7.71119675 10.3926307,7.90067064 C10.3733044,7.91914038 10.2680518,7.94118987 10.244685,7.93411886 C10.054288,7.87331487 9.96899468,7.76625284 10.0308355,7.66569032 C9.97994561,7.59828724 9.99370673,7.52453695 10.0688818,7.46178786 Z" id="Shape" fill="#7EADD5"></path>
                <path d="M22.2787628,7.36629587 L21.9368315,7.2711185 C22.0272493,7.01228324 22.1673169,6.85218745 22.3228429,6.98093482 C22.4790964,7.11027903 22.4026768,7.27353429 22.2787628,7.36629587 Z" id="Shape" fill="#E988B8"></path>
                <path d="M11.0338852,8.52122997 L11.3835265,8.61872626 L11.3336246,8.99491418 C11.2135338,8.98664559 11.1064103,8.92506355 11.0491939,8.83140366 C10.9288237,8.76698183 10.8864342,8.69955659 10.9220255,8.62912795 C10.9581639,8.55725788 10.9953128,8.52123974 11.0338852,8.52122997 Z" id="Shape" fill="#FFFFFF"></path>
                <path d="M9.96433937,14.076028 C9.80471069,13.9742111 9.74545376,13.8396876 9.79676778,13.6485377 C9.98521587,12.9398924 10.3945681,12.3097296 10.9654221,11.8494943 C11.1709204,11.6790854 11.4060093,11.739296 11.6312428,11.735042 C11.6766374,11.7317313 11.7211291,11.7489234 11.7525025,11.7818983 C11.7838759,11.8148732 11.7988336,11.860165 11.7932689,11.9053387 C11.7648899,12.1838186 11.587107,12.4050649 11.5024998,12.6622286 C11.4752436,12.7450817 11.4224196,12.8189238 11.4051582,12.9300617 C11.5125003,12.8933352 11.5537316,12.7794925 11.651936,12.7575406 C11.8545527,12.575688 12.0284571,12.3641958 12.1677327,12.1302595 C12.4093215,11.7109714 12.7690478,11.3721213 13.202014,11.1560012 C13.2737146,11.1207683 13.3486773,11.0926049 13.4258399,11.0719102 C13.6685818,11.003312 13.7547836,11.0619488 13.7991171,11.3190641 C13.867128,11.5392379 13.6998421,11.6493429 13.5798844,11.7784571 C13.4770666,11.8893502 13.3443607,11.9681276 13.197773,12.0052875 C13.1371551,12.0192034 13.0736124,12.0122094 13.0174724,11.9854421 C12.9336443,11.9072721 12.9901099,11.8391317 13.0376248,11.7756193 C13.1036695,11.6955495 13.162543,11.6098253 13.2135646,11.5194379 C12.8191477,11.7975653 12.5495536,12.2192979 12.4626988,12.6940355 C12.44764,12.7694161 12.4603903,12.8443186 12.5705528,12.8318278 C12.796678,12.7766484 12.9782992,12.6475825 13.1401764,12.4880095 C13.3399735,12.2910564 13.5386995,12.0929795 13.7343118,11.8918595 C13.7651554,11.8601022 13.8027644,11.8357104 13.8443394,11.8204995 C14.0472089,11.6393488 14.2041117,11.4125692 14.3021098,11.1588607 C14.3751441,10.9650306 14.5255079,10.8784276 14.7211613,10.8502434 C14.8427241,10.832733 14.8555107,10.8992968 14.8387606,10.9929137 C14.7995193,11.2334293 14.6459069,11.4287689 14.5763604,11.6576502 C14.5392298,11.7798496 14.4808821,11.8972726 14.4731127,12.0258532 C14.468226,12.1067459 14.4345959,12.2077561 14.5515055,12.2502113 C14.9106615,11.9510314 15.2175548,11.6007525 15.526452,11.2524777 C15.5763822,11.1961803 15.5879492,11.1228085 15.6075172,11.0539465 C15.8793049,10.0707338 16.4540777,9.19819842 17.2501458,8.56034952 C17.2746564,8.53947657 17.3001978,8.51984528 17.3266738,8.50152954 C17.5549606,8.35115897 17.7200531,8.4315949 17.7522999,8.7083594 C17.8102479,8.85564522 17.723759,8.97416729 17.6645301,9.09122191 C17.3315717,9.74239014 16.919551,10.3499945 16.4378035,10.9002678 C16.3171274,11.0292307 16.2069882,11.1676638 16.1084451,11.3142359 C16.0141916,11.466857 15.9433937,11.6331419 16.0976518,11.7973498 C16.4588878,11.6046628 16.6961132,11.2774229 16.9683052,10.9892088 C17.143272,10.8039441 17.3060787,10.607096 17.4720698,10.4134959 C17.562282,10.3082805 17.6129995,10.3281482 17.6367214,10.4580846 C17.6436898,10.5051636 17.635195,10.5532326 17.6125128,10.5950716 C17.2798221,11.1411135 16.9328431,11.6778591 16.4677795,12.123248 C16.2987554,12.2851194 16.1030267,12.4153854 15.8467954,12.2991796 C15.7226017,12.2318647 15.6466697,12.1189481 15.5702417,12.0064988 C15.5032927,11.9433847 15.4590743,11.8958936 15.3774203,12.0152209 C15.237342,12.230952 15.0690602,12.4269946 14.877044,12.5981425 C14.7044562,12.7445389 14.5198421,12.8775151 14.269269,12.8082553 C14.2473219,12.8031447 14.2262819,12.7947192 14.2068736,12.7832689 C14.0025673,12.6672723 13.9464527,12.4771742 13.9450722,12.2597072 C13.8198872,12.2794864 13.7938079,12.4015708 13.7277575,12.4787494 C13.4292978,12.8275033 13.0999408,13.1366663 12.6835975,13.340903 C12.5365863,13.413019 12.3854916,13.4606552 12.2301561,13.3587454 C12.157736,13.2980196 12.0778328,13.2448166 12.0298887,13.1594911 C11.9429966,13.0771967 11.8791247,13.0540974 11.7962773,13.1830569 C11.6909135,13.3542044 11.56215,13.5097884 11.4137222,13.6452954 C11.3342646,13.7149864 11.2566934,13.8191356 11.1234591,13.7458851 C11.0064108,13.7060521 10.9882305,13.5873991 10.9287585,13.5016651 C10.8806887,13.4787586 10.8864208,13.4160124 10.8304893,13.3779272 C10.6890003,13.5988366 10.5536552,13.8272573 10.343772,13.9917055 C10.233392,14.0781934 10.1240816,14.1989989 9.96433937,14.076028 Z" id="Shape" fill="#FFFFFF"></path>
                <path d="M7.59268904,14.5101843 C7.46936053,14.4537835 7.43100806,14.358165 7.42882186,14.2236561 C7.42381535,13.8937119 7.49857204,13.5674394 7.64673351,13.2725895 C7.71307637,13.1382208 7.71908491,13.0555416 7.60110806,12.9456193 C7.45243985,12.807103 7.46428776,12.707636 7.65259705,12.6429496 C8.01552132,12.5182798 8.22196837,12.2490923 8.40260929,11.9396905 C8.49521649,11.7810744 8.59885569,11.628899 8.69750768,11.4738114 C8.71051184,11.3702008 8.76575419,11.2765697 8.85015677,11.2150842 C8.85179098,11.2128332 8.85881842,11.2146607 8.86045215,11.2082104 C8.84544791,11.2143004 8.83103961,11.2217662 8.81741165,11.2305122 C8.37389901,11.4656048 7.9060257,11.6515311 7.42212164,11.7849809 C7.3312956,11.8113235 7.23512465,11.8376396 7.15328845,11.7563351 C6.88994033,11.5798017 6.88176396,11.4860344 7.12651466,11.2875574 C7.32628373,11.1255578 7.55257186,11.0027373 7.77557223,10.8760113 C7.82444436,10.8482389 7.87616004,10.8129287 7.91095892,10.8944613 C7.93204656,10.9271668 7.95653894,10.9123584 7.98089742,10.8994766 C8.53771466,10.637116 9.09410365,10.3730873 9.68397583,10.1909277 C10.1283941,10.0536868 10.5768628,9.92310951 11.049402,9.97737003 C11.2420063,9.99948577 11.443746,10.0311511 11.5615687,10.2226539 C11.5176959,10.3694795 11.3763485,10.3615318 11.2697111,10.3941044 C10.7160889,10.5632128 10.1673218,10.7465077 9.62340951,10.9439889 C9.47724844,10.9969603 9.37963421,11.0538546 9.35011208,11.229837 C9.32258523,11.3939347 9.19627347,11.5269752 9.10799613,11.6704643 C9.04433537,11.7632837 8.98615784,11.859747 8.93376155,11.95936 C9.00685005,11.9837663 9.06972825,11.9377252 9.13073153,11.965775 C9.31419474,11.9201423 9.49564624,11.8620068 9.68163641,11.8320835 C9.9076181,11.7957243 10.1446869,11.7586561 10.2915899,12.00986 C10.3081311,12.1428822 10.1985269,12.1678062 10.1147099,12.2008215 C9.67350451,12.3745935 9.25188641,12.5927536 8.8132645,12.7715665 C8.5347174,12.885125 8.34878813,13.0698831 8.25600258,13.360863 C8.1439753,13.712182 7.98702342,14.0483934 7.91972691,14.4151067 C7.88801907,14.5879115 7.81361439,14.6035392 7.59268904,14.5101843 Z" id="Shape" fill="#FFFFFF"></path>
                <path d="M7.59268904,14.5101843 C7.64034748,14.5164403 7.6879189,14.5235117 7.73568899,14.5287686 C7.81696257,14.5377106 7.85105333,14.5272509 7.86524017,14.4195279 C7.92935865,13.9326777 8.1392573,13.4897186 8.32379549,13.0410624 C8.38064919,12.902835 8.52569952,12.8401932 8.6579362,12.7809822 C9.13137873,12.5689925 9.60640376,12.3605265 10.0792503,12.1472236 C10.1556024,12.1127805 10.2572816,12.1114532 10.2915957,12.0098576 C10.4795111,12.1614699 10.4740308,12.1965868 10.2641897,12.2870499 C9.78634866,12.493045 9.30860043,12.6994162 8.83415059,12.9130463 C8.62494361,13.0072442 8.45433319,13.1379443 8.39007406,13.3846869 C8.34001676,13.5769031 8.24198636,13.7561008 8.17573437,13.9447566 C8.09140166,14.1848995 7.99401654,14.4231723 8.01762293,14.7079508 C7.85410231,14.6491347 7.67123845,14.7008378 7.59268904,14.5101843 Z" id="Shape" fill="#A42480"></path>
                <path d="M16.0976523,11.7973469 C15.9783723,11.8283631 15.9640477,11.7398238 15.9503916,11.6613706 C15.9154666,11.4607194 16.0077263,11.3057415 16.1345098,11.1620397 C16.5592861,10.6805929 16.9597542,10.1804641 17.2954112,9.63135145 C17.4816175,9.34166912 17.6348648,9.03208323 17.7522994,8.70835843 C17.7879785,8.70065865 17.7853394,8.61907379 17.8384287,8.65525456 C17.9038881,8.69077278 17.9318557,8.77006168 17.9031669,8.83878883 C17.8217397,9.09963746 17.7085449,9.34948316 17.5661309,9.58270118 C17.1963825,10.2030567 16.7647546,10.7843689 16.2778548,11.3177388 C16.1562847,11.4531337 16.0719182,11.6052694 16.0976523,11.7973469 Z" id="Shape" fill="#A42480"></path>
                <path d="M9.13073636,11.9657741 C9.02965698,12.0093137 8.92857744,12.0528524 8.82749774,12.0963901 L8.79144313,12.0715869 C8.88006074,11.9276932 8.98854603,11.7920257 9.05234646,11.6378628 C9.13497777,11.4381986 9.40677487,11.3145491 9.29553158,11.0296837 C9.27837261,10.9857441 9.39310908,10.9678829 9.44865725,10.9462727 C10.1062204,10.6904542 10.7793092,10.4802375 11.4521066,10.2692286 C11.4893644,10.2555759 11.5259013,10.2400306 11.5615745,10.2226534 C11.6085688,10.2603548 11.6982725,10.2612176 11.6920532,10.3445294 C11.6855763,10.4312562 11.5953105,10.4200444 11.5413806,10.4378278 C10.9493236,10.6330684 10.3480231,10.8005829 9.76850816,11.0333093 C9.68689479,11.0660853 9.60514173,11.0985458 9.52301407,11.1300076 C9.49428947,11.141013 9.439287,11.1486229 9.45021171,11.1763088 C9.5633739,11.4630656 9.27432019,11.5814383 9.19918614,11.788056 C9.17752669,11.8476222 9.13100704,11.8977337 9.13073636,11.9657741 Z" id="Shape" fill="#A52580"></path>
                <path d="M15.8467959,12.2991786 C16.1136261,12.3142481 16.3224575,12.2022029 16.5025585,12.0129926 C16.9011653,11.5942215 17.2143039,11.1124353 17.5325414,10.6340757 C17.5497598,10.6081941 17.5691794,10.5837757 17.5875733,10.5586758 C17.6147169,10.5172199 17.6529048,10.4841737 17.6978291,10.4632651 C17.7795232,10.510926 17.8105834,10.5697668 17.7536161,10.6599925 C17.3957428,11.2268064 17.0381112,11.7937455 16.5452863,12.2582774 C16.4209136,12.3863589 16.2467069,12.4535789 16.0685362,12.442238 C15.969659,12.4349718 15.8764065,12.4154565 15.8467959,12.2991786 Z" id="Shape" fill="#A42480"></path>
                <path d="M11.449713,11.4796054 C11.2569462,11.4641231 11.2227438,11.4153197 11.3363082,11.2800388 C11.5504883,11.0249019 11.7233212,10.7524518 11.8144025,10.4281129 C11.8499104,10.3016683 11.9707023,10.2749771 12.0835866,10.3440751 C12.1487109,10.3839404 12.1709832,10.4560874 12.2171336,10.5099912 C12.2869576,10.5706624 12.2829525,10.6494032 12.2666945,10.7284176 C12.2084628,11.0114033 11.7531793,11.4288806 11.449713,11.4796054 Z" id="Shape" fill="#FEFDFE"></path>
                <path d="M12.230158,13.3587498 C12.5547931,13.4043206 12.8000562,13.2351859 13.0390999,13.0552318 C13.3109487,12.8417277 13.556969,12.5972466 13.7721751,12.3267432 C13.8268088,12.2609847 13.8862779,12.1992438 13.9469505,12.1318492 C13.9661626,12.1724595 13.9654696,12.2196806 13.9450742,12.2597096 C13.9354212,12.4638061 13.831491,12.6125077 13.686925,12.7510898 C13.4612198,12.9674562 13.2449186,13.192664 12.9773654,13.3599446 C12.8373152,13.4544261 12.672801,13.5061188 12.5038808,13.5087201 C12.3808379,13.5083281 12.2826069,13.4798206 12.230158,13.3587498 Z" id="Shape" fill="#A52581"></path>
                <path d="M14.2586739,12.7902886 C14.5125073,12.7915526 14.7161731,12.6876915 14.8907209,12.5062386 C15.1028984,12.2767911 15.3012554,12.0349396 15.4847436,11.7819624 C15.5286481,11.8499966 15.557776,11.9264925 15.5702417,12.0064979 C15.3939258,12.2722904 15.1878831,12.5171157 14.9561048,12.7362316 C14.8115888,12.8779411 14.611399,12.94781 14.4100909,12.9267976 C14.3448112,12.9285986 14.2847006,12.8914455 14.2571214,12.8322503 C14.2462766,12.8225117 14.2428918,12.8130491 14.2469671,12.8038626 C14.2509699,12.7948162 14.2548722,12.7902915 14.2586739,12.7902886 Z" id="Shape" fill="#A52581"></path>
                <path d="M8.89671751,11.1873171 C8.85427927,11.2994802 8.77093163,11.3831947 8.69750768,11.4738114 C8.31081799,11.5913422 7.94734656,11.7741272 7.55611047,11.8791387 C7.39496117,11.9223952 7.24005677,11.9533171 7.15329135,11.7563346 C7.39266574,11.768299 7.60246386,11.660776 7.82164817,11.5910468 C8.18595773,11.4751518 8.52240789,11.2870672 8.88977272,11.1791286 L8.89671751,11.1873171 Z" id="Shape" fill="#A52581"></path>
                <path d="M11.449713,11.4796054 C11.6690191,11.3481145 11.8834265,11.2105184 12.0493619,11.0106097 C12.1700625,10.865193 12.2610978,10.7103519 12.2171331,10.5099926 C12.3862616,10.6507054 12.4225057,10.7783212 12.3351815,10.9619956 C12.1747983,11.29934 11.8788013,11.4896919 11.556058,11.6333154 C11.4048131,11.7006153 11.4053491,11.5877658 11.449713,11.4796054 Z" id="Shape" fill="#A52581"></path>
                <path d="M14.551505,12.2502132 C14.4739165,12.3221924 14.4060245,12.3348263 14.4002306,12.2037955 C14.3951707,12.0927811 14.4099354,11.9817534 14.4438322,11.8759195 C14.5354449,11.5652667 14.6682693,11.2682898 14.8387602,10.9929156 C15.0296418,11.0278233 15.0341878,11.0301124 14.9555209,11.1863267 C14.8086967,11.4778842 14.6641959,11.7696185 14.5789589,12.0871155 C14.5611644,12.1396685 14.5518959,12.1947308 14.551505,12.2502132 Z" id="Shape" fill="#A62681"></path>
                <path d="M9.96433937,14.076028 C10.114796,14.1113219 10.2248173,14.0421354 10.3275454,13.9425356 C10.5420959,13.734508 10.6967673,13.4834447 10.8517398,13.2080351 C10.942678,13.3017375 10.9118489,13.4086548 10.9287624,13.5016671 C10.8080308,13.690519 10.6759213,13.8718507 10.533166,14.0446571 C10.337589,14.2816592 10.1492454,14.2922455 9.96433937,14.076028 Z" id="Shape" fill="#A62681"></path>
                <path d="M11.651936,12.7575406 C11.6142922,12.8607844 11.5184156,12.9143006 11.4502495,12.9913511 C11.417711,13.0402679 11.3615885,13.0681595 11.3029487,13.0645561 C11.4102382,12.6484212 11.6090792,12.2797904 11.7932684,11.9053392 C11.9466493,11.9042492 11.965601,11.9826387 11.9113289,12.1046699 C11.8474392,12.248327 11.7836979,12.3920486 11.720105,12.5358346 C11.6886896,12.6070086 11.6379996,12.672377 11.651936,12.7575406 Z" id="Shape" fill="#A72782"></path>
                <path d="M11.1234586,13.7458895 C11.2898716,13.7219153 11.3866661,13.6000682 11.4832817,13.4827796 C11.6350961,13.2984812 11.7810454,13.1093521 11.9502715,12.8960599 C11.9821316,13.0014759 12.0060102,13.080485 12.0298887,13.159496 C11.8244808,13.3506048 11.6985093,13.6095801 11.4833571,13.7933855 C11.3181719,13.9345038 11.2727074,13.9323963 11.1234586,13.7458895 Z" id="Shape" fill="#A52581"></path>
                <path d="M14.8327202,10.4664649 C14.7925185,10.4694857 14.7529565,10.45509 14.7240973,10.4269395 C14.6952381,10.3987891 14.6798633,10.3595972 14.6818837,10.3193328 C14.6691923,10.1428951 14.8715275,9.83597578 15.0408981,9.79820478 C15.1747463,9.76835687 15.2206487,9.8626964 15.2488431,9.97004774 C15.2370798,10.2613916 15.09075,10.4359544 14.8327202,10.4664649 Z" id="Shape" fill="#FEFBFC"></path>
                <path d="M13.1990998,11.9556566 C13.4809419,11.8205947 13.7225774,11.6476337 13.799119,11.3190646 C13.8272617,11.3022604 13.8230048,11.2254081 13.878857,11.2652792 C13.9443681,11.3015915 13.9764013,11.3781136 13.9562952,11.4502664 C13.9199101,11.5806391 13.8608355,11.7035801 13.7817812,11.8134498 C13.7946069,11.8751327 13.7492222,11.9043082 13.7121564,11.9382317 C13.5846396,12.0444264 13.4563481,12.1498912 13.2783172,12.1523868 C13.2221774,12.1531747 13.1649066,12.1437135 13.1365054,12.0873596 C13.1029647,12.0208002 13.1535599,11.9879976 13.1990998,11.9556566 Z" id="Shape" fill="#A62681"></path>
                <path d="M14.8327202,10.4664649 C15.0489643,10.3659873 15.1702371,10.1859023 15.2488436,9.97004919 C15.3861076,9.93596907 15.4019074,10.0463003 15.3870119,10.120586 C15.347333,10.3194252 15.221293,10.4903252 15.043049,10.5869716 C14.9471106,10.6409315 14.8325447,10.6292538 14.8327202,10.4664649 Z" id="Shape" fill="#A72682"></path>
                <path d="M18.0612599,10.4824849 C17.964008,10.6952017 17.7936043,10.8568272 17.5875757,10.9317673 C17.5943762,10.7484435 17.6709599,10.5766337 17.798719,10.4580831 L18.0612599,10.4824849 Z" id="Shape" fill="#E5138D"></path>
                <path d="M13.7190122,12.2125769 L13.9562499,11.8134493 L14.1926965,11.8438676 C14.1366832,12.0008637 14.0896964,12.1659969 13.9273252,12.2271441 C13.903044,12.267198 13.8621743,12.2898515 13.8195688,12.2868721 C13.7769633,12.2838928 13.7388244,12.2557142 13.7190122,12.2125769 Z" id="Shape" fill="#EB028B"></path>
                <path d="M8.36644137,10.9436103 C8.31609656,11.2215489 8.15685183,11.3818629 8.0010553,11.3114498 C7.85429722,11.2323445 7.86250788,11.0460161 7.99060041,10.8944608 C8.115879,10.9108408 8.24115932,10.927224 8.36644137,10.9436103 Z" id="Shape" fill="#E672AC"></path>
                <path d="M14.6805993,12.8511689 C14.6810448,12.9864337 14.6763845,13.1216985 14.6666184,13.2569633 C14.5134438,13.0994961 14.3602191,12.9416014 14.2069442,12.7832791 L14.6805993,12.8511689 Z" id="Shape" fill="#A32480"></path>
                <path d="M17.3438763,4.9877942 C17.3030273,4.46848598 17.706151,3.9733666 18.5136651,3.95649184 C19.1322155,3.94356509 19.5855593,4.4617123 19.5841431,5.13509549 C19.582882,5.73452352 19.0887197,6.17997664 18.4155226,6.1885276 C17.7948174,6.19641203 17.3450286,5.69244345 17.3438763,4.9877942 Z" id="Shape" fill="#FFFFFF"></path>
                <path d="M3.65116321,7.79674544 C3.72305703,7.79522 3.79496139,7.79924376 3.86623614,7.80878088 C4.01200086,7.83665848 4.13090417,7.94191572 4.17625763,8.0832224 C4.2268384,8.23322368 4.15910832,8.34791955 4.06527052,8.4541674 C4.00023046,8.52674128 3.91556596,8.57892806 3.82150634,8.60442245 C3.55884554,8.67799624 3.2931029,8.74049356 3.02942368,8.81054758 C2.9397224,8.83438018 2.89272664,8.80145526 2.87362121,8.71571987 C2.87188743,8.70793792 2.86701235,8.70082444 2.86549656,8.69303185 C2.82264361,8.47277884 2.64477229,8.22880199 2.72852691,8.05062954 C2.80900489,7.87942653 3.11582513,7.92401085 3.318837,7.85819194 C3.43945247,7.81908883 3.56623067,7.7837341 3.65116321,7.79674544 Z" id="Shape" fill="#FEFEFF"></path>
                <path d="M8.5204189,8.26533464 C8.15556606,8.35318566 7.81531724,8.43511079 7.44008056,8.52546316 C7.4942826,8.05536686 7.54666869,7.60102734 7.60489705,7.0960094 C7.94218582,7.48855102 8.22137481,7.87114672 8.5204189,8.26533464 Z" id="Shape" fill="#FCFDFE"></path>
                <path d="M11.1738722,8.9258231 C10.9146154,8.82870473 10.7024106,8.69626201 10.9295267,8.47191191 C10.9942057,8.40803229 11.1597006,8.50893769 11.1857058,8.63159876 C11.2959376,8.69964757 11.3309293,8.76591569 11.2906809,8.83040311 C11.2511138,8.89397578 11.2121775,8.92578244 11.1738722,8.9258231 Z" id="Shape" fill="#357FBE"></path>
                <path d="M10.8745622,8.73555392 C10.8890794,8.65089681 10.8932174,8.56565122 10.8869389,8.4805869 C11.1210134,8.48391621 11.3006224,8.52990561 11.3181452,8.70277343 C11.3512422,8.78494367 11.3571212,8.87058308 11.3354101,8.95427111 L10.8745622,8.73555392 Z" id="Shape" fill="#AECBE4"></path>
                <path d="M13.7190122,11.9060072 L13.7741283,11.9093853 C13.5176138,12.2287355 13.2403505,12.526782 12.8939549,12.7517897 C12.7952457,12.8206693 12.6840235,12.8695884 12.5665453,12.895795 C12.4432308,12.6646308 12.5915346,12.4763689 12.6834327,12.2929555 C12.7525089,12.1550955 12.7917677,11.9606515 13.0061088,11.9468697 L13.1990998,11.9556566 C13.1252225,12.0701958 13.1633193,12.1143079 13.2912416,12.1028626 C13.4572858,12.0880088 13.5685001,11.9543878 13.7190122,11.9060072 Z" id="Shape" fill="#EA068C"></path>
                <path d="M13.0061088,11.9468697 C12.7452653,12.1965001 12.5882778,12.5354026 12.5665448,12.8957945 C12.3691553,12.9713626 12.3886629,12.8157603 12.395425,12.7165983 C12.4279163,12.2402359 12.8816599,11.5990951 13.328667,11.3913856 C13.3471629,11.5543324 13.2072303,11.6254851 13.144093,11.7356878 C13.1022614,11.808698 12.9963292,11.8399268 13.0061088,11.9468697 Z" id="Shape" fill="#A62781"></path>
                <path d="M10.7809763,12.8450489 C10.6457595,13.095098 10.4718177,13.3221696 10.2656069,13.5178357 C10.3369858,12.9618106 10.8294646,12.2683002 11.2690416,12.1132494 C11.1406639,12.3455122 10.9949926,12.5677867 10.8332613,12.7781908 C10.8090183,12.7941895 10.7906601,12.8176645 10.7809763,12.8450489 L10.7809763,12.8450489 Z" id="Shape" fill="#A62782"></path>
                <path d="M17.245451,9.00913147 C16.9916133,9.53810236 16.7060634,10.0478939 16.3388842,10.508327 C16.2910962,10.5178205 16.2645095,10.5068977 16.2841355,10.4514733 C16.4974498,9.91744542 16.8077621,9.42751103 17.1993934,9.0064247 C17.2160497,8.98514082 17.2313415,8.98706745 17.245451,9.00913147 Z" id="Shape" fill="#A72A83"></path>
                <path d="M16.4627054,10.4514738 L16.7059556,10.6471723 C16.6369636,10.7927965 16.4751568,10.9922784 16.3285289,10.9029559 C16.1344317,10.7847139 16.2619551,10.5786519 16.4627054,10.4514738 Z" id="Shape" fill="#B53A92"></path>
                <path d="M17.2160362,9.30060624 C17.2215495,9.10519705 17.3365008,8.94466214 17.4859802,8.92361693 C17.5488231,8.91391303 17.6215095,9.01220761 17.6897204,9.06134842 L17.4842915,9.26875036 C17.4052982,9.42788163 17.3158798,9.43850026 17.2160362,9.30060624 Z" id="Shape" fill="#C86EAC"></path>
                <path d="M17.3407658,8.99673013 C17.4524405,9.00429638 17.5644678,8.99248027 17.673096,8.9616775 C17.6457162,9.11678697 17.6183282,9.27181908 17.590932,9.42677381 C17.4601154,9.42582785 17.3294309,9.41701164 17.1994118,9.40036118 C17.2066183,9.25153198 17.2563151,9.10962443 17.3407658,8.99673013 L17.3407658,8.99673013 Z" id="Shape" fill="#A32480"></path>
                <path d="M10.7809763,13.2518741 C10.7835608,13.0283353 10.9778595,12.8340367 11.2546605,12.7781898 C11.2089797,12.9884355 11.0308912,13.166524 10.7809763,13.2518741 Z" id="Shape" fill="#DE0F8D"></path>
                <polygon id="Shape" fill="#B94097" points="8.8897732 11.4568821 9.09071952 11.1475663 9.29909794 11.3603689 8.95782741 11.5371052"></polygon>
            </g>
        </g>
    </g>
</svg>