<?xml version="1.0" standalone="no"?><!DOCTYPE svg PUBLIC "-//W3C//DTD SVG 1.1//EN" "http://www.w3.org/Graphics/SVG/1.1/DTD/svg11.dtd"><svg t="1747673520746" class="icon" viewBox="0 0 1638 1024" version="1.1" xmlns="http://www.w3.org/2000/svg" p-id="1869" xmlns:xlink="http://www.w3.org/1999/xlink" width="204.75" height="128"><path d="M1556.48 0H81.92a81.92 81.92 0 0 0-81.92 81.92v860.16a81.92 81.92 0 0 0 81.92 81.92h1474.56a81.92 81.92 0 0 0 81.92-81.92V81.92a81.92 81.92 0 0 0-81.92-81.92z" fill="#E1E1E1" p-id="1870"></path><path d="M1556.48 20.48H81.92a61.44 61.44 0 0 0-61.44 61.44v860.16a61.44 61.44 0 0 0 61.44 61.44h1474.56a61.44 61.44 0 0 0 61.44-61.44V81.92a61.44 61.44 0 0 0-61.44-61.44z" fill="#FFCE00" p-id="1871"></path><path d="M1144.27904 607.47776c-42.5984 38.21568-89.25184 72.31488-137.35936 103.2192-99.96288 64.26624-211.47648 118.5792-322.2528 161.62816-36.6592 14.25408-80.05632 22.48704-116.6336 3.46112-24.02304-12.51328-39.85408-34.26304-48.2304-59.5968-6.22592-18.78016-8.88832-40.8576-12.3904-60.416-28.34432-158.39232-16.11776-343.08096 15.7696-501.06368 7.92576-39.19872 26.58304-92.09856 68.1984-106.14784 19.968-6.7584 42.5984-6.3488 63.0784-2.048 6.7584 1.4336 12.63616 3.44064 19.0464 5.81632 136.2944 50.72896 258.2528 114.0736 372.89984 203.9808 32.48128 25.45664 68.03456 51.89632 97.87392 80.30208 19.456 18.5344 37.45792 39.5264 42.27072 66.80576 1.31072 7.45472 1.57696 14.99136 1.00352 22.528-2.29376 30.06464-18.37056 63.36512-43.27424 81.5104z" fill="#FEFEFE" p-id="1872"></path><path d="M546.28352 807.40352c9.89184 29.94176 39.6288 73.25696 128.16384 38.85056 127.95904-49.70496 319.16032-140.73856 452.21888-260.64896 0 0 29.77792-20.6848 32.91136-61.78816 3.13344-41.10336-28.8768-65.80224-130.51904-145.48992-100.00384-78.4384-212.04992-142.70464-365.40416-199.76192a95.72352 95.72352 0 0 0-15.03232-4.66944c-10.56768-2.23232-30.43328-4.9152-48.37376 1.16736-25.94816 8.76544-42.04544 47.16544-49.70496 85.17632-7.33184 36.20864-54.76352 272.0768-15.68768 490.5984 2.7648 15.38048 6.71744 42.31168 11.42784 56.56576z" fill="#FFB700" p-id="1873"></path><path d="M563.44576 217.31328c-4.44416 15.29856-8.192 35.10272-10.26048 60.74368l0.06144-0.69632c25.96864-8.82688 62.93504-12.24704 115.36384-5.79584 167.424 20.64384 339.3536 115.03616 432.5376 171.7248l25.23136 15.01184c-6.61504-6.38976-14.336-13.25056-23.2448-20.7872l-1.80224-1.51552-0.90112-0.75776a943.22688 943.22688 0 0 0-5.61152-4.66944l-0.96256-0.79872-1.96608-1.59744-0.98304-0.8192-1.00352-0.8192-2.02752-1.6384-1.024-0.8192-2.048-1.69984-1.06496-0.83968-2.10944-1.69984-1.06496-0.88064-2.17088-1.7408-1.10592-0.88064-1.10592-0.88064-1.10592-0.88064-1.1264-0.90112-1.14688-0.90112-2.27328-1.8432-1.16736-0.90112-1.16736-0.9216-1.16736-0.94208-1.18784-0.94208-2.39616-1.88416-1.20832-0.96256-1.2288-0.96256-1.024-0.8192-0.2048-0.14336-1.2288-0.98304-1.2288-0.98304-1.26976-0.98304-0.2048-0.16384-1.04448-0.8192-1.29024-1.024-1.26976-1.00352-0.6144-0.47104-0.67584-0.53248-1.31072-1.024-1.29024-1.024-1.024-0.8192-0.3072-0.2048-1.31072-1.06496-1.35168-1.024-1.3312-1.06496-0.12288-0.1024-1.2288-0.96256-1.37216-1.06496-1.37216-1.08544-0.53248-0.4096-0.83968-0.67584-1.39264-1.08544-1.39264-1.10592-0.98304-0.75776-0.43008-0.32768-1.4336-1.1264-1.4336-1.10592-1.4336-1.1264c-100.00384-78.4384-212.04992-142.70464-365.38368-199.76192a95.72352 95.72352 0 0 0-15.0528-4.66944c-10.5472-2.23232-30.4128-4.9152-48.35328 1.16736a35.45088 35.45088 0 0 0-1.06496 0.38912l-0.26624 0.08192a38.46144 38.46144 0 0 0-1.024 0.4096l-0.14336 0.06144a33.9968 33.9968 0 0 0-1.024 0.45056l-0.1024 0.04096a39.79264 39.79264 0 0 0-1.024 0.49152l-0.2048 0.12288a36.37248 36.37248 0 0 0-0.98304 0.512l-0.2048 0.1024a38.15424 38.15424 0 0 0-0.88064 0.49152l-0.18432 0.1024-0.94208 0.57344-0.24576 0.14336-0.94208 0.6144-0.18432 0.12288-0.8192 0.57344-0.2048 0.14336-0.90112 0.65536-0.24576 0.2048-0.90112 0.69632H587.776l-0.04096 0.04096-0.9216 0.75776-0.16384 0.14336-0.88064 0.77824-0.2048 0.16384a51.67104 51.67104 0 0 0-0.8192 0.75776l-0.08192 0.08192h-0.04096v0.02048a62.23872 62.23872 0 0 0-0.86016 0.8192l-0.2048 0.2048a59.63776 59.63776 0 0 0-0.88064 0.88064l-0.1024 0.12288a68.38272 68.38272 0 0 0-0.79872 0.8192l-0.16384 0.18432-0.8192 0.90112-0.2048 0.2048-0.8192 0.96256-0.12288 0.14336-0.73728 0.88064-0.16384 0.2048a92.52864 92.52864 0 0 0-0.77824 0.96256l-0.2048 0.26624a93.92128 93.92128 0 0 0-0.75776 0.98304l-0.04096 0.06144-0.08192 0.1024-0.67584 0.9216-0.22528 0.3072a136.192 136.192 0 0 0-0.7168 0.98304l-0.22528 0.34816a147.6608 147.6608 0 0 0-0.73728 1.06496l-10.83392 20.19328z m14.41792-15.7696l-0.90112 0.69632 0.90112-0.69632z m-10.0352 10.30144a95.68256 95.68256 0 0 0-0.75776 0.98304l0.75776-0.98304z m-1.96608 2.72384a81.26464 81.26464 0 0 0-0.73728 1.06496l0.73728-1.06496z m-0.77824 1.18784l-0.14336 0.2048a75.776 75.776 0 0 0-0.73728 1.14688l-0.12288 0.2048c-0.24576 0.36864-0.49152 0.75776-0.7168 1.16736l-0.04096 0.04096-0.04096 0.06144-0.7168 1.18784-0.1024 0.2048-0.73728 1.24928-0.1024 0.2048-0.59392 1.04448-0.16384 0.32768-0.65536 1.18784-0.16384 0.3072-0.6144 1.18784-0.06144 0.1024-0.08192 0.16384-0.59392 1.14688-0.12288 0.26624-0.6144 1.2288-0.16384 0.34816-0.6144 1.31072-0.04096 0.04096v0.02048l-0.6144 1.31072-0.16384 0.34816-0.57344 1.31072-0.12288 0.28672 9.4208-17.6128z m2.12992-4.62848l-0.6144 1.31072 0.6144-1.31072z m-2.12992 4.7104v0.02048z" fill="#FFDF77" p-id="1874"></path><path d="M553.24672 277.36064c25.96864-8.82688 62.93504-12.24704 115.34336-5.79584 167.44448 20.64384 339.3536 115.03616 432.55808 171.7248-77.98784 225.4848-420.12672 386.8672-420.12672 386.8672-40.93952-40.93952-80.42496-78.9504-118.43584-361.18528-11.5712-85.83168-12.96384-147.41504-9.33888-191.61088z" fill="#FFCE00" p-id="1875"></path><path d="M663.7568 404.00896c6.84032-21.03296 13.9264-41.984 20.84864-62.93504h164.98688c27.81184-0.02048 56.7296 7.168 78.4384 25.27232 16.83456 13.312 26.99264 33.50528 30.9248 54.31296 8.54016 44.6464-4.23936 93.5936-35.92192 126.58688-28.5696 30.80192-69.95968 46.98112-111.16544 51.2-35.20512 3.21536-70.59456 0.6144-105.79968-0.86016-10.15808 41.00096-18.37056 82.51392-27.91424 123.6992-26.58304-1.18784-53.16608-2.7648-79.74912-3.23584 12.92288-64.79872 27.9552-129.20832 40.96-194.00704 43.97056-0.53248 87.94112-0.1024 131.8912-0.2048 0.14336 13.5168 0.08192 27.0336 0.08192 40.59136 36.94592-31.3344 72.88832-63.75424 109.568-95.39584-27.2384-34.26304-54.96832-68.15744-81.87904-102.66624-3.6864 12.34944-7.08608 24.7808-10.11712 37.29408-41.69728 0.59392-83.39456-0.06144-125.1328 0.34816z" fill="#000000" p-id="1876"></path></svg>