<?xml version="1.0" encoding="UTF-8"?>
<svg width="34px" height="22px" viewBox="0 0 34 22" version="1.1" xmlns="http://www.w3.org/2000/svg" xmlns:xlink="http://www.w3.org/1999/xlink">
    <!-- Generator: Sketch 58 (84663) - https://sketch.com -->
    <title>paypal-icon</title>
    <desc>Created with Sketch.</desc>
    <defs>
        <rect id="path-1" x="0" y="0" width="32" height="20" rx="2"></rect>
    </defs>
    <g id="BR---Payment-Page" stroke="none" stroke-width="1" fill="none" fill-rule="evenodd">
        <g id="Layout/Ewallet/Brazil/Desktop/01-Payment-Method-Selection_Alternative" transform="translate(-169.000000, -1004.000000)">
            <g id="Group-2" transform="translate(112.000000, 41.000000)">
                <g id="Group-3-Copy-3" transform="translate(32.000000, 964.000000)">
                    <g id="payment-method-icon" transform="translate(26.000000, 0.000000)">
                        <g id="boleto-icon">
                            <mask id="mask-2" fill="white">
                                <use xlink:href="#path-1"></use>
                            </mask>
                            <rect stroke="#E1E1E1" x="-0.5" y="-0.5" width="33" height="21" rx="2"></rect>
                            <g id="paypal-icon/standard" mask="url(#mask-2)">
                                <rect id="Rectangle-2" fill="#FFFFFF" fill-rule="nonzero" x="0" y="0" width="32" height="20"></rect>
                                <g id="Group-9" stroke-width="1" fill-rule="evenodd" transform="translate(9.777778, 2.727273)">
                                    <g id="Group-3" transform="translate(0.000000, 0.049293)" fill="#0D9AE1">
                                        <path d="M10.7778765,3.69845657 C10.9500444,2.57570909 10.7766123,1.81166869 10.1829136,1.11970909 C9.52916543,0.357931313 8.3481679,0.0315474747 6.8371358,0.0315474747 L2.45100247,0.0315474747 C2.14214321,0.0315474747 1.87919012,0.261284848 1.83115062,0.573284848 L0.00470123457,12.4181333 C-0.0313283951,12.6519111 0.145264198,12.8632242 0.376612346,12.8632242 L3.08436543,12.8632242 L2.89750123,14.0753455 C2.86597531,14.2797899 3.02044444,14.4646788 3.22287407,14.4646788 L5.50522469,14.4646788 C5.7753679,14.4646788 6.00537284,14.2636283 6.04748642,13.9907394 L6.06984691,13.8720323 L6.4998321,11.0835879 L6.52756543,10.9295677 C6.56967901,10.656598 6.79960494,10.4556283 7.06974815,10.4556283 L7.41123951,10.4556283 C9.62232099,10.4556283 11.3536395,9.5368404 11.8595556,6.87987071 C12.0709136,5.76956768 11.9616395,4.84286061 11.4026272,4.19138586 C11.2335407,3.99429495 11.0231309,3.83138586 10.7778765,3.69845657" id="Fill-1"></path>
                                    </g>
                                    <path d="M10.7778765,3.74774949 C10.9500444,2.62500202 10.7766123,1.86096162 10.1829136,1.16900202 C9.52916543,0.407224242 8.3481679,0.080840404 6.8371358,0.080840404 L2.45100247,0.080840404 C2.14214321,0.080840404 1.87919012,0.310577778 1.83115062,0.622577778 L0.00470123457,12.4674263 C-0.0313283951,12.701204 0.145264198,12.9125172 0.376612346,12.9125172 L3.08436543,12.9125172 L3.76458272,8.50128485 L3.74348642,8.63962828 C3.79160494,8.32762828 4.05234568,8.09789091 4.36112593,8.09789091 L5.64807901,8.09789091 C8.17560494,8.09789091 10.1547852,7.04762828 10.7330765,4.01037576 C10.7501432,3.92051717 10.7647605,3.83340606 10.7778765,3.74774949" id="Fill-4" fill="#151E6C"></path>
                                    <g id="Group-8" transform="translate(0.000000, 0.049293)" fill="#042B89">
                                        <path d="M4.49528099,3.71332525 C4.52419951,3.52568889 4.6419279,3.37199192 4.80050568,3.29425455 C4.87256494,3.25902222 4.95307852,3.23938586 5.03754272,3.23938586 L8.47568593,3.23938586 C8.88307358,3.23938586 9.2627279,3.26661818 9.60998716,3.3238303 C9.70922667,3.34015354 9.80577975,3.35890101 9.89956741,3.38023434 C9.99335506,3.40148687 10.0843773,3.42532525 10.1725551,3.45166869 C10.216644,3.4648404 10.2599427,3.47865859 10.3026094,3.49312323 C10.473039,3.55098182 10.6318538,3.61926465 10.7778686,3.69845657 C10.9500365,2.57570909 10.7766835,1.81166869 10.1829057,1.11970909 C9.52915753,0.357931313 8.34816,0.0314666667 6.8371279,0.0314666667 L2.45099457,0.0314666667 C2.14213531,0.0314666667 1.87926123,0.261284848 1.83114272,0.573284848 L0.00469333333,12.4181333 C-0.0313362963,12.6519111 0.145256296,12.8632242 0.376604444,12.8632242 L3.08443654,12.8632242 L3.76457481,8.45199192 L4.49528099,3.71332525 Z" id="Fill-6"></path>
                                    </g>
                                </g>
                            </g>
                        </g>
                    </g>
                </g>
            </g>
        </g>
    </g>
</svg>