<svg width="30" height="20" viewBox="0 0 30 20" fill="none" xmlns="http://www.w3.org/2000/svg">
<rect width="30" height="20" rx="2" fill="#32BCAD"/>
<path d="M18.9285 13.8704C18.3737 13.8704 17.8508 13.6537 17.4581 13.2593L15.3371 11.128C15.1887 10.9778 14.9284 10.9789 14.78 11.128L12.6487 13.2674C12.256 13.6618 11.7343 13.8785 11.1783 13.8785H10.7605L13.4489 16.5785C14.288 17.4212 15.6499 17.4212 16.4889 16.5785L19.1842 13.8716H18.9285V13.8704Z" fill="white"/>
<path d="M11.1793 6.33092C11.7341 6.33092 12.2569 6.54762 12.6496 6.94202L14.7798 9.08142C14.9328 9.23506 15.1839 9.2362 15.3381 9.08142L17.4602 6.95004C17.853 6.55564 18.3747 6.33895 18.9306 6.33895H19.1863L16.4888 3.63202C15.6497 2.78933 14.2878 2.78933 13.4487 3.63202L10.7615 6.33092H11.1793Z" fill="white"/>
<path d="M21.4148 8.57812L19.7857 6.94204C19.7503 6.95695 19.7115 6.96497 19.6704 6.96497H18.9295C18.5471 6.96497 18.1715 7.1209 17.901 7.39262L15.7788 9.52515C15.5802 9.72464 15.3199 9.82439 15.0585 9.82439C14.797 9.82439 14.5368 9.72464 14.3381 9.52515L12.2079 7.38575C11.9374 7.11402 11.5629 6.95809 11.1794 6.95809H10.2684C10.2296 6.95809 10.1931 6.94892 10.1588 6.93631L8.52407 8.57812C7.68501 9.42081 7.68501 10.7886 8.52407 11.6313L10.1599 13.2743C10.1942 13.2617 10.2307 13.2525 10.2695 13.2525H11.1805C11.5629 13.2525 11.9385 13.0966 12.2091 12.8248L14.3381 10.6843C14.7228 10.2979 15.3941 10.2979 15.7788 10.6843L17.901 12.8157C18.1715 13.0874 18.546 13.2433 18.9295 13.2433H19.6704C19.7115 13.2433 19.7503 13.2525 19.7857 13.2662L21.4148 11.6302C22.2538 10.7886 22.2538 9.42081 21.4148 8.57812Z" fill="white"/>
</svg>
