<svg width="25" height="23" viewBox="0 0 49 64" fill="none" xmlns="http://www.w3.org/2000/svg"><g clip-path="url(#clip0_11_3)"><path d="M18.8534 63.1135V54.7875C18.8534 54.3453 19.2147 53.9922 19.6561 53.9818C26.3201 53.8437 31.4574 51.9609 34.9347 48.3803C36.9814 46.2719 38.4734 43.514 39.3747 40.1745C39.4894 39.75 39.9107 39.4844 40.3387 39.5849L48.4427 41.5036C48.8867 41.6079 49.1654 42.0651 49.0507 42.5068C47.716 47.6093 45.3707 51.9151 42.0734 55.3125C36.6707 60.875 29.1427 63.7734 19.6867 63.9339C19.2321 63.9411 18.8534 63.5677 18.8534 63.1135Z" fill="#E1134C"/><path d="M17.9041 23.6292C15.9761 23.6292 14.4827 24.3749 13.4281 25.8672C12.3694 27.3604 11.8427 29.4828 11.8427 32.2396C11.8427 35.1328 12.3694 37.3031 13.4281 38.7484C14.4827 40.1953 15.9761 40.9193 17.9041 40.9193C19.8334 40.9193 21.3254 40.1849 22.3814 38.7145C23.4387 37.2448 23.9667 35.0869 23.9667 32.2396C23.9667 29.4828 23.4387 27.3604 22.3814 25.8672C21.3254 24.3749 19.8334 23.6292 17.9041 23.6292ZM35.9534 32.2396C35.9534 34.9948 35.5281 37.474 34.6774 39.6797C33.8281 41.8828 32.6121 43.7552 31.0281 45.2927C29.4427 46.8317 27.5494 48.014 25.3441 48.8412C23.1401 49.6683 20.6601 50.0807 17.9041 50.0807C15.1481 50.0807 12.6694 49.6787 10.4654 48.8749C8.26007 48.0729 6.36541 46.9011 4.78274 45.362C3.19741 43.8245 1.98007 41.9521 1.13207 39.7473C0.281405 37.5443 -0.143921 35.0416 -0.143921 32.2396C-0.143921 29.5303 0.292072 27.0729 1.16541 24.8688C2.03607 22.664 3.26541 20.7927 4.85074 19.2552C6.43607 17.7161 8.32941 16.5339 10.5334 15.7073C12.7374 14.8792 15.1947 14.4677 17.9041 14.4677C20.6147 14.4677 23.0707 14.8916 25.2747 15.7412C27.4787 16.5921 29.3734 17.7855 30.9587 19.3229C32.5427 20.8636 33.7707 22.7328 34.6427 24.9375C35.5161 27.1416 35.9534 29.5755 35.9534 32.2396Z" fill="#20204B"/></g><defs><clipPath id="clip0_11_3"><rect width="49" height="64" fill="white"/></clipPath></defs></svg>
