<svg width="18" height="12" xmlns="http://www.w3.org/2000/svg"><g fill="none" fill-rule="evenodd"><rect fill="#B9E88B" width="18" height="12" rx="2"/><path d="M2.432 9.818h13.5V1.92h-13.5v7.898zM1.46 1.92c0-.53.438-.959.973-.959h13.501a.97.97 0 0 1 .972.96V9.82c0 .53-.437.96-.972.96H2.432a.969.969 0 0 1-.973-.96v-7.9z" fill="#4A884C" fill-rule="nonzero"/><path d="M11.19 5.28c0-1.061-.873-1.92-1.947-1.92s-1.946.859-1.946 1.92S8.17 7.2 9.243 7.2c1.074 0 1.946-.859 1.946-1.92zm-3.166 0c0-.66.545-1.198 1.22-1.198.673 0 1.218.537 1.218 1.198 0 .66-.545 1.198-1.219 1.198S8.024 5.94 8.024 5.28zM11.2 8.4h.476v-.72H6.81v.72h.476z" fill-rule="nonzero" fill="#4A884C"/></g></svg>