<?xml version="1.0" encoding="UTF-8"?>
<svg width="18px" height="12px" viewBox="0 0 18 12" version="1.1" xmlns="http://www.w3.org/2000/svg" xmlns:xlink="http://www.w3.org/1999/xlink">
    <!-- Generator: Sketch 44.1 (41455) - http://www.bohemiancoding.com/sketch -->
    <title>icon_servipag_small_active</title>
    <desc>Created with Sketch.</desc>
    <defs>
        <polygon id="path-1" points="0 6.24309677 17.9895592 6.24309677 17.9895592 0.0212427449 0 0.0212427449"></polygon>
    </defs>
    <g id="Chile" stroke="none" stroke-width="1" fill="none" fill-rule="evenodd">
        <g id="Multicaja" transform="translate(-387.000000, -637.000000)">
            <g id="icon_servipag_small_active" transform="translate(387.000000, 637.000000)">
                <g id="icon">
                    <g id="icon_card_cash" fill="#69737B">
                        <rect id="Rectangle-36-Copy-2" x="0" y="0" width="18" height="12" rx="3"></rect>
                    </g>
                    <g id="Page-1" transform="translate(0.000000, 2.880000)">
                        <g id="Group-18">
                            <g id="Group-4" transform="translate(10.064965, 0.000000)" fill="#FEC425">
                                <path d="M3.09452575,0.0212427449 L3.34669281,0.0212427449 L3.34669281,0.0263507331 L3.39918933,0.0263507331 C3.43422877,0.0280533959 3.46926821,0.0297560587 3.50426589,0.0314587214 L3.50426589,0.0365261701 L3.56202459,0.0365261701 C3.59731462,0.0464583695 3.64805708,0.0470664633 3.68284594,0.0569581232 C3.71613132,0.0603229091 3.74941671,0.0637282346 3.78270209,0.0671335601 L3.78270209,0.0722415484 C3.80015916,0.0739442111 3.817658,0.0756468739 3.83519861,0.0773495367 L3.83519861,0.0824169853 C3.85269745,0.0841196481 3.87023805,0.0858223109 3.88773689,0.0875249736 L3.88773689,0.0926329619 L3.91400603,0.0926329619 L3.91400603,0.0977409501 L3.93501299,0.0977409501 L3.93501299,0.102848938 L3.95601995,0.102848938 L3.95601995,0.107956927 L3.97702691,0.107956927 L3.97702691,0.113024375 L4.00333782,0.113024375 L4.00333782,0.118132364 L4.0190826,0.118132364 L4.0190826,0.123240352 L4.04008956,0.123240352 L4.04008956,0.12834834 L4.06109652,0.12834834 L4.06109652,0.133456328 L4.08206172,0.133456328 C4.13568585,0.152185619 4.19837262,0.169455484 4.25020093,0.189522581 C4.26598747,0.192927906 4.28173225,0.196292692 4.29747703,0.199698018 L4.29747703,0.204806006 L4.30800139,0.204806006 L4.30800139,0.209913994 C4.32374617,0.21331932 4.33949095,0.216724645 4.35523573,0.220129971 L4.35523573,0.225197419 L4.36576009,0.225197419 L4.36576009,0.230305408 L4.38150487,0.230305408 L4.38150487,0.235413396 L4.39202923,0.235413396 L4.39202923,0.240521384 L4.40777401,0.240521384 L4.40777401,0.245629372 C4.41654432,0.247291496 4.42531462,0.249034698 4.43404316,0.250696821 L4.43404316,0.255804809 L4.44456752,0.255804809 L4.44456752,0.260912798 L4.4603123,0.260912798 L4.4603123,0.266020786 C4.46732854,0.267723449 4.47430302,0.269426111 4.48131926,0.271088235 L4.48131926,0.276196223 L4.4971058,0.276196223 L4.4971058,0.281304211 L4.5075884,0.281304211 L4.5075884,0.286412199 C4.51460464,0.288114862 4.52162088,0.289817525 4.52863712,0.291520188 L4.52863712,0.296587636 L4.5443819,0.296587636 L4.5443819,0.301695625 L4.55490626,0.301695625 L4.55490626,0.306803613 L4.56538886,0.306803613 L4.56538886,0.311911601 C4.57591323,0.315276387 4.58639582,0.318681713 4.59692019,0.322087038 L4.59692019,0.327195026 L4.61266497,0.327195026 L4.61266497,0.332303015 C4.62318933,0.33570834 4.63367193,0.339073126 4.64415452,0.342478452 L4.64415452,0.34758644 L4.65467889,0.34758644 L4.65467889,0.352694428 L4.66520325,0.352694428 L4.66520325,0.357802416 L4.67568585,0.357802416 L4.67568585,0.362910405 L4.68621021,0.362910405 L4.68621021,0.367977853 L4.69669281,0.367977853 L4.69669281,0.373085842 L4.70721717,0.373085842 C4.70897123,0.376491167 4.71072529,0.379896493 4.71247935,0.383301818 C4.72296195,0.386707144 4.73348631,0.39007193 4.74396891,0.393477255 L4.74396891,0.398585243 L4.75449327,0.398585243 L4.75449327,0.403693232 L4.76501763,0.403693232 L4.76501763,0.40880122 L4.77550023,0.40880122 C4.77725429,0.412206545 4.77900835,0.415611871 4.78076241,0.418976657 C4.79128677,0.422381982 4.80176937,0.425787308 4.81229374,0.429192633 C4.8140478,0.432557419 4.81580186,0.435962745 4.81755592,0.43936807 C4.82803852,0.442773396 4.83856288,0.446178721 4.84904548,0.449543507 L4.85430766,0.459759484 C4.8613239,0.461462147 4.86829838,0.463164809 4.87531462,0.464867472 L4.8805768,0.475083449 L4.89110116,0.475083449 L4.89110116,0.480150897 L4.90158376,0.480150897 L4.90158376,0.485258886 L4.91732854,0.490366874 C4.9190826,0.493772199 4.92083666,0.497177525 4.92259072,0.50058285 C4.9295652,0.502285513 4.93658144,0.503988176 4.94359768,0.505650299 C4.94535174,0.509055625 4.9471058,0.51246095 4.94885986,0.515866276 L4.95934246,0.515866276 C4.96109652,0.519271601 4.96285058,0.522676927 4.96460464,0.526041713 L4.97508724,0.526041713 L4.98034942,0.536257689 L4.99087378,0.536257689 C4.99262784,0.539663015 4.9943819,0.54306834 4.9960942,0.546473666 L5.00661856,0.546473666 L5.00661856,0.551581654 C5.01188074,0.553284317 5.01714292,0.554986979 5.0224051,0.556649103 L5.02766729,0.566865079 L5.03814988,0.566865079 L5.03814988,0.571932528 C5.04341206,0.573635191 5.04867425,0.575337853 5.05393643,0.577040516 L5.05919861,0.587256493 L5.06968121,0.587256493 C5.07318933,0.592364481 5.07669745,0.59743193 5.08020557,0.602539918 L5.09068817,0.602539918 C5.09244223,0.605945243 5.09419629,0.609350569 5.09595035,0.612755894 L5.10643295,0.612755894 C5.10994107,0.617823343 5.11344919,0.622931331 5.11695731,0.62803932 L5.12743991,0.62803932 C5.13094803,0.633147308 5.13445615,0.638255296 5.13796427,0.643322745 L5.14848863,0.643322745 C5.15199675,0.648430733 5.15550487,0.653538721 5.15901299,0.65864671 L5.16949559,0.65864671 C5.17300371,0.663754698 5.17651183,0.668862686 5.18001995,0.673930135 L5.19054432,0.673930135 C5.19576473,0.680740786 5.20098515,0.687551437 5.20624733,0.694362088 L5.21672993,0.694362088 C5.22199211,0.701132199 5.22725429,0.707902311 5.23251647,0.714712962 L5.24299907,0.714712962 C5.24826125,0.721523613 5.25352343,0.728334264 5.25874385,0.735104375 L5.26926821,0.735104375 C5.27628445,0.743617689 5.2833007,0.752131003 5.29031694,0.760644317 L5.30079954,0.760644317 C5.3113239,0.772522416 5.32184826,0.784400516 5.33233086,0.796319155 L5.34285522,0.796319155 C5.35509188,0.809899918 5.3673703,0.82352122 5.37960696,0.837101982 C5.42237262,0.867182358 5.45327749,0.90350583 5.48990394,0.939099589 C5.53793179,0.985679578 5.58600139,1.02751643 5.62651183,1.08188002 C5.63874849,1.09205546 5.65102691,1.10227144 5.66326357,1.11244687 L5.66326357,1.12266285 L5.67378794,1.12777084 L5.67378794,1.13283829 C5.67905012,1.13624361 5.6843123,1.13964894 5.68953271,1.14305426 L5.68953271,1.1532297 L5.70005708,1.15833769 L5.70005708,1.16344568 C5.7035652,1.16514834 5.70707332,1.166851 5.71058144,1.16855367 L5.71058144,1.17876964 C5.71755592,1.18383709 5.72457216,1.18894508 5.7315884,1.19405307 L5.7315884,1.2042285 C5.73856288,1.20933649 5.74557912,1.21444448 5.75259536,1.21955247 L5.75259536,1.22976845 C5.75781578,1.23313323 5.76303619,1.23653856 5.76829838,1.23994388 L5.76829838,1.25011932 C5.77356056,1.25352465 5.77882274,1.25692997 5.78408492,1.2603353 L5.78408492,1.27051073 C5.7893471,1.27391606 5.79456752,1.27732138 5.7998297,1.28072671 L5.7998297,1.29094269 C5.80509188,1.29430747 5.81035406,1.2977128 5.81561624,1.30111812 L5.81561624,1.3113341 C5.81912436,1.31303676 5.82263248,1.31473943 5.82609884,1.31644209 L5.82609884,1.32661752 C5.83136102,1.33002285 5.8366232,1.33342818 5.84188538,1.3368335 L5.84188538,1.34700894 C5.8453935,1.3487116 5.84885986,1.35041426 5.85236798,1.35211693 C5.85412204,1.35722491 5.8558761,1.3623329 5.85763016,1.36744089 L5.86289234,1.36744089 L5.86289234,1.37761633 C5.86640046,1.37931899 5.86986682,1.38102165 5.87337494,1.38268378 L5.87337494,1.39289975 C5.87688306,1.39460242 5.88039118,1.39630508 5.8838993,1.39800774 L5.8838993,1.40822372 C5.88740742,1.40992638 5.89091555,1.4115885 5.8943819,1.41329117 L5.8943819,1.42350714 L5.90490626,1.42861513 L5.90490626,1.43883111 C5.90841439,1.44053377 5.91192251,1.44219589 5.91543063,1.44389856 L5.91543063,1.45411453 C5.91889698,1.4558172 5.9224051,1.45751986 5.92591323,1.45922252 C5.92766729,1.46599263 5.92942135,1.47280328 5.93117541,1.47961394 L5.93643759,1.47961394 C5.93819165,1.48472192 5.93994571,1.48978937 5.94169977,1.49489736 C5.94520789,1.49660002 5.94871601,1.49830269 5.95218237,1.50000535 C5.95397819,1.506816 5.95569049,1.51358611 5.95744455,1.52039676 C5.96095267,1.52209943 5.96446079,1.52376155 5.96796891,1.52550475 C5.96972297,1.53227486 5.97147703,1.53908551 5.97323109,1.54589616 L5.98371369,1.55096361 C5.98722181,1.56117959 5.99072993,1.57139557 5.99423805,1.581571 C5.99774617,1.58327367 6.00125429,1.58497633 6.00472065,1.58667899 L6.01524501,1.61728638 C6.01875313,1.61898904 6.02226125,1.62069171 6.02572761,1.62239437 L6.02572761,1.63256981 L6.03098979,1.63256981 L6.03098979,1.64278578 L6.03625197,1.64278578 L6.03625197,1.65296122 L6.04147239,1.65296122 L6.04147239,1.6631772 L6.04673457,1.6631772 C6.04848863,1.66994731 6.05020093,1.67675796 6.05199675,1.68356861 C6.05546311,1.68527127 6.05897123,1.68697394 6.06247935,1.6886766 L6.06247935,1.69885204 L6.06774153,1.69885204 L6.06774153,1.70906801 L6.07300371,1.70906801 L6.07300371,1.71924345 L6.07826589,1.71924345 L6.07826589,1.72945943 L6.08352807,1.72945943 L6.08352807,1.7396754 L6.08874849,1.7396754 L6.08874849,1.74985084 L6.09401067,1.74985084 C6.09751879,1.76006682 6.10102691,1.77028279 6.10453503,1.78045823 L6.10979722,1.78045823 L6.10979722,1.79574165 L6.11501763,1.79574165 L6.11501763,1.80591709 L6.12027981,1.80591709 L6.12027981,1.81613307 L6.125542,1.81613307 C6.12905012,1.82634904 6.13255824,1.83652448 6.13602459,1.84674046 L6.14128677,1.84674046 L6.14128677,1.86202388 L6.14654896,1.86202388 L6.14654896,1.87223986 L6.15181114,1.87223986 C6.1535652,1.87905051 6.15527749,1.88586116 6.15703155,1.89263127 L6.16229374,1.89263127 L6.16229374,1.9079147 L6.16755592,1.9079147 C6.16930998,1.91472535 6.17106404,1.921536 6.1728181,1.92830611 L6.17808028,1.92830611 L6.17808028,1.94363008 L6.18334246,1.94363008 L6.18334246,1.95380551 L6.18856288,1.95380551 L6.18856288,1.96912948 L6.19382506,1.96912948 L6.19382506,1.97930491 L6.19908724,1.97930491 L6.19908724,1.99462888 L6.20434942,1.99462888 L6.20434942,2.00480432 L6.2096116,2.00480432 L6.2096116,2.02012828 L6.21487378,2.02012828 L6.21487378,2.03030372 L6.2200942,2.03030372 C6.22360232,2.04562768 6.22711044,2.06091111 6.23061856,2.07619453 L6.23588074,2.07619453 L6.23588074,2.08636997 L6.24114292,2.08636997 C6.24289698,2.09658595 6.24460928,2.10680192 6.24636334,2.11697736 L6.25162552,2.11697736 L6.25162552,2.13230133 L6.2568877,2.13230133 L6.2568877,2.14758475 L6.26214988,2.14758475 L6.26214988,2.16286818 L6.2673703,2.16286818 L6.2673703,2.17819214 L6.27263248,2.17819214 L6.27263248,2.19347557 L6.27789466,2.19347557 L6.27789466,2.20875899 L6.28315684,2.20875899 L6.28315684,2.2291504 L6.28841903,2.2291504 L6.28841903,2.24447437 L6.29363944,2.24447437 L6.29363944,2.25975779 L6.29890162,2.25975779 L6.30416381,2.29547317 L6.30942599,2.29547317 C6.31293411,2.31586459 6.31640046,2.336256 6.31986682,2.35664741 L6.325129,2.35664741 L6.325129,2.37193084 L6.33039118,2.37193084 L6.33565336,2.41786219 C6.35991787,2.48738759 6.36597355,2.57398015 6.38819165,2.64731627 L6.38819165,2.68299111 L6.39345383,2.68299111 L6.39345383,2.71870649 L6.39867425,2.71870649 L6.39867425,2.75948931 L6.40393643,2.75948931 L6.40393643,2.80027214 L6.40919861,2.80027214 L6.40919861,2.85637893 L6.41446079,2.85637893 L6.41446079,2.91755317 L6.41972297,2.91755317 L6.41972297,3.0093348 C6.43112436,3.04930684 6.43129142,3.21426243 6.41972297,3.2540723 L6.41972297,3.34589448 L6.41446079,3.34589448 C6.41270673,3.38497464 6.41095267,3.4240548 6.40919861,3.46313497 L6.40393643,3.46313497 L6.40393643,3.50395833 L6.39867425,3.50395833 L6.39867425,3.54474116 L6.39345383,3.54474116 C6.39169977,3.5685379 6.38994571,3.59237518 6.38819165,3.61613138 C6.37516148,3.65865741 6.36998283,3.7126156 6.35666032,3.75380382 C6.35490626,3.77078991 6.3531522,3.78781654 6.35139814,3.80480263 L6.34617773,3.80480263 L6.34617773,3.82519404 L6.34091555,3.82519404 L6.34091555,3.84562599 L6.33565336,3.84562599 L6.33565336,3.86601741 L6.33039118,3.86601741 L6.33039118,3.89147627 L6.325129,3.89147627 L6.325129,3.90680023 L6.31986682,3.90680023 L6.31986682,3.92719165 L6.3146464,3.92719165 C6.31293411,3.94081295 6.31118005,3.95439371 6.30942599,3.96797448 C6.29008956,4.02002731 6.27229838,4.08083669 6.25162552,4.13114632 C6.2481174,4.14642975 6.24460928,4.16175371 6.24114292,4.17707768 L6.23588074,4.17707768 L6.23588074,4.18725311 L6.23061856,4.18725311 C6.22711044,4.20253654 6.22360232,4.2178605 6.2200942,4.23314393 L6.21487378,4.23314393 L6.21487378,4.24331937 L6.2096116,4.24331937 L6.2096116,4.25860279 L6.20434942,4.25860279 L6.20434942,4.26881877 L6.19908724,4.26881877 C6.19733318,4.27729154 6.19557912,4.28580486 6.19382506,4.29431817 L6.18856288,4.29431817 L6.18856288,4.3096016 L6.18334246,4.3096016 L6.18334246,4.31981757 L6.17808028,4.31981757 L6.17808028,4.335101 L6.1728181,4.335101 L6.16755592,4.35553295 L6.16229374,4.35553295 L6.16229374,4.37081638 L6.15703155,4.37081638 L6.15703155,4.38099181 L6.15181114,4.38099181 L6.15181114,4.39120779 L6.14654896,4.39120779 L6.14654896,4.40138323 L6.14128677,4.40138323 L6.14128677,4.41670719 L6.13602459,4.41670719 L6.13602459,4.42692317 L6.13076241,4.42692317 L6.13076241,4.4370986 L6.125542,4.4370986 C6.12203387,4.44731458 6.11852575,4.45753056 6.11501763,4.46770599 L6.10979722,4.46770599 L6.10979722,4.48302996 L6.10453503,4.48302996 C6.10102691,4.4932054 6.09751879,4.50342137 6.09401067,4.51355627 L6.08874849,4.51355627 L6.08874849,4.52377225 L6.08352807,4.52377225 L6.08352807,4.53394768 L6.07826589,4.53394768 L6.07826589,4.54416366 L6.07300371,4.54416366 L6.07300371,4.55437964 L6.06774153,4.55437964 L6.06774153,4.56455507 L6.06247935,4.56455507 L6.06247935,4.57477105 C6.05897123,4.57647371 6.05546311,4.57817638 6.05199675,4.57987904 C6.05020093,4.58668969 6.04848863,4.5934598 6.04673457,4.60027045 L6.04147239,4.60027045 L6.04147239,4.61048643 L6.03625197,4.61048643 L6.03625197,4.62066187 L6.03098979,4.62066187 L6.03098979,4.63087784 L6.02572761,4.63087784 L6.02572761,4.64105328 C6.02226125,4.64275594 6.01875313,4.6444586 6.01524501,4.64616127 C6.01173689,4.6563367 6.00822877,4.66655268 6.00472065,4.67676866 C6.00125429,4.67847132 5.99774617,4.68017398 5.99423805,4.68187665 C5.99072993,4.69205208 5.98722181,4.70226806 5.98371369,4.71248404 C5.98024733,4.71414616 5.97673921,4.71588936 5.97323109,4.71755148 L5.96796891,4.73798344 C5.96446079,4.73964556 5.96095267,4.74134822 5.95744455,4.74305089 C5.95569049,4.74986154 5.95397819,4.75667219 5.95218237,4.7634423 L5.94696195,4.7634423 L5.94169977,4.77872572 C5.93819165,4.78042839 5.93468353,4.78213105 5.93117541,4.78379317 L5.92591323,4.80422513 C5.9224051,4.80592779 5.91889698,4.80763045 5.91543063,4.80933311 L5.91543063,4.81950855 L5.90490626,4.82461654 L5.90490626,4.83483252 L5.8943819,4.8399405 L5.8943819,4.85011594 L5.88916148,4.85011594 C5.88740742,4.85522393 5.88565336,4.86033192 5.8838993,4.86539937 L5.87337494,4.87050735 L5.87337494,4.88072333 C5.86986682,4.88242599 5.86640046,4.88412866 5.86289234,4.88579078 L5.86289234,4.89600676 L5.85763016,4.89600676 C5.8558761,4.90111474 5.85412204,4.90622273 5.85236798,4.91129018 C5.84885986,4.91303338 5.8453935,4.91469551 5.84188538,4.91639817 L5.84188538,4.92661415 L5.82609884,4.93683012 L5.82609884,4.94700556 C5.82263248,4.94870822 5.81912436,4.95041089 5.81561624,4.95211355 L5.81561624,4.96232952 L5.80509188,4.96743751 C5.80333782,4.97250496 5.80158376,4.97761295 5.7998297,4.98272094 C5.79456752,4.98612626 5.7893471,4.98953159 5.78408492,4.99289638 L5.78408492,5.00311235 C5.77882274,5.00651768 5.77356056,5.009923 5.76829838,5.01328779 L5.76829838,5.02350377 C5.76303619,5.02690909 5.75781578,5.03031442 5.75259536,5.03371974 L5.75259536,5.04389518 C5.74557912,5.04900317 5.73856288,5.05407062 5.7315884,5.0591786 L5.7315884,5.06939458 C5.72457216,5.07446203 5.71755592,5.07957002 5.71058144,5.08467801 L5.71058144,5.09489398 C5.7035652,5.09996143 5.69654896,5.10506942 5.68953271,5.11017741 L5.68953271,5.12039338 C5.68080418,5.1271635 5.67203387,5.13397415 5.66326357,5.14074426 L5.66326357,5.15096023 C5.65102691,5.16117621 5.63874849,5.17135165 5.62651183,5.18156762 C5.58453968,5.23783657 5.5343819,5.2811734 5.48464176,5.32941551 C5.43494339,5.37769816 5.39029838,5.42642674 5.33233086,5.46712849 C5.32184826,5.47900659 5.3113239,5.49092523 5.30079954,5.50284387 L5.29031694,5.50284387 C5.2833007,5.51131665 5.27628445,5.51982996 5.26926821,5.52830273 L5.25874385,5.52830273 C5.25352343,5.53511338 5.24826125,5.54192404 5.24299907,5.54873469 L5.23251647,5.54873469 C5.22725429,5.5555048 5.22199211,5.56231545 5.21672993,5.5691261 L5.20624733,5.5691261 C5.20098515,5.57593675 5.19576473,5.5827474 5.19054432,5.58951751 L5.18001995,5.58951751 C5.17651183,5.59458496 5.17300371,5.59969295 5.16949559,5.60480094 L5.15901299,5.60480094 C5.15550487,5.60986839 5.15199675,5.61497638 5.14848863,5.62008436 L5.13796427,5.62008436 C5.13445615,5.62519235 5.13094803,5.63030034 5.12743991,5.63536779 C5.12221949,5.63707045 5.11695731,5.63877311 5.11169513,5.64047578 L5.10643295,5.65069175 L5.09595035,5.65069175 C5.09419629,5.65405654 5.09244223,5.65746187 5.09068817,5.66086719 L5.08020557,5.66086719 L5.06968121,5.67619116 L5.05919861,5.67619116 C5.05744455,5.67959648 5.05569049,5.68296127 5.05393643,5.68636659 L5.03814988,5.69147458 L5.03814988,5.69658257 L5.02766729,5.69658257 L5.0224051,5.70679855 L5.01188074,5.70679855 C5.01012668,5.71020387 5.00837262,5.7136092 5.00661856,5.71697398 L4.9960942,5.71697398 C4.9943819,5.72037931 4.99262784,5.72378463 4.99087378,5.72718996 L4.98034942,5.72718996 C4.97859536,5.73059528 4.9768413,5.73400061 4.97508724,5.7373654 L4.96460464,5.7373654 L4.95934246,5.74758137 L4.94885986,5.74758137 C4.9471058,5.7509867 4.94535174,5.75439202 4.94359768,5.75775681 C4.93658144,5.75945947 4.9295652,5.76116213 4.92259072,5.7628648 L4.92259072,5.76797279 L4.90684594,5.77308077 C4.90509188,5.7764861 4.90333782,5.77985089 4.90158376,5.78325621 C4.89460928,5.78495887 4.88759304,5.78666154 4.8805768,5.7883642 L4.87531462,5.79858018 C4.86829838,5.80028284 4.8613239,5.8019855 4.85430766,5.80368816 C4.8525536,5.80709349 4.85079954,5.81045828 4.84904548,5.8138636 C4.83856288,5.81726893 4.82803852,5.82067425 4.81755592,5.82407958 L4.81229374,5.83429555 C4.80527749,5.83599822 4.79826125,5.83770088 4.79128677,5.83940354 L4.79128677,5.84447099 L4.78076241,5.84447099 L4.77550023,5.85468697 L4.76501763,5.85468697 L4.76501763,5.85979496 L4.75449327,5.85979496 L4.75449327,5.8648624 L4.74396891,5.8648624 L4.74396891,5.86992985 L4.73348631,5.86992985 L4.73348631,5.87503784 C4.72647007,5.8767405 4.71945383,5.87844317 4.71247935,5.88014583 C4.71072529,5.88355116 4.70897123,5.88695648 4.70721717,5.89032127 L4.69669281,5.89032127 L4.69669281,5.89542926 L4.68621021,5.89542926 L4.68621021,5.90053724 L4.67568585,5.90053724 L4.67568585,5.90560469 L4.66520325,5.90560469 L4.66520325,5.91071268 L4.65467889,5.91071268 L4.65467889,5.91582067 L4.64415452,5.91582067 L4.64415452,5.92092866 C4.63367193,5.92433398 4.62318933,5.92773931 4.61266497,5.93114463 L4.61266497,5.93625262 L4.59692019,5.93625262 L4.59692019,5.94132007 L4.58639582,5.94132007 L4.58639582,5.94642806 L4.57591323,5.94642806 L4.57591323,5.95153605 C4.56538886,5.95494137 4.55490626,5.9583467 4.5443819,5.96175202 L4.5443819,5.96686001 L4.52863712,5.96686001 L4.52863712,5.97192746 L4.51811276,5.97192746 L4.51811276,5.97703545 L4.5075884,5.97703545 L4.5075884,5.98214344 L4.4971058,5.98214344 L4.4971058,5.98725143 L4.48131926,5.98725143 L4.48131926,5.99231887 C4.47430302,5.99402154 4.46732854,5.9957242 4.4603123,5.99742686 L4.4603123,6.00253485 L4.44456752,6.00253485 L4.44456752,6.00764284 L4.43404316,6.00764284 L4.43404316,6.01275083 L4.41829838,6.01275083 L4.41829838,6.01781828 L4.40777401,6.01781828 L4.40777401,6.02292626 C4.39904548,6.02462893 4.39027517,6.02633159 4.38150487,6.02803425 L4.38150487,6.0331017 L4.36576009,6.0331017 L4.36576009,6.03820969 L4.35523573,6.03820969 L4.35523573,6.04331768 C4.33949095,6.046723 4.32374617,6.05012833 4.30800139,6.05353365 L4.30800139,6.05864164 L4.29747703,6.05864164 L4.29747703,6.06374963 L4.28173225,6.06374963 L4.28173225,6.06881708 L4.26598747,6.06881708 L4.26598747,6.07392507 L4.25020093,6.07392507 L4.25020093,6.07903306 L4.23445615,6.07903306 L4.23445615,6.08414104 L4.21866961,6.08414104 L4.21866961,6.08924903 L4.20292483,6.08924903 L4.20292483,6.09435702 L4.18713828,6.09435702 L4.18713828,6.09946501 L4.1713935,6.09946501 L4.1713935,6.10453246 C4.15389466,6.10793778 4.13639582,6.11134311 4.11885522,6.11474843 L4.11885522,6.11985642 C4.1065768,6.12151855 4.09434014,6.12322121 4.08206172,6.12492387 L4.08206172,6.13003186 L4.0190826,6.1402073 L4.0190826,6.14527474 L4.00333782,6.14527474 L4.00333782,6.15038273 C3.97356056,6.15549072 3.94374153,6.16059871 3.91400603,6.16566616 L3.91400603,6.17077415 L3.88773689,6.17077415 L3.88773689,6.17588213 L3.86146775,6.17588213 L3.86146775,6.18099012 L3.83519861,6.18099012 L3.83519861,6.18609811 L3.80892947,6.18609811 L3.80892947,6.1912061 L3.78270209,6.1912061 C3.74252575,6.20312474 3.68727285,6.20515172 3.6460942,6.2167055 L3.60408028,6.2167055 L3.60408028,6.22181349 L3.56202459,6.22181349 L3.56202459,6.22692148 L3.50426589,6.22692148 L3.50426589,6.23198893 L3.44124501,6.23198893 L3.44124501,6.23709691 L3.34669281,6.23709691 L3.34669281,6.2422049 L3.22587146,6.2422049 C3.18373225,6.2422049 3.12793643,6.24625886 3.09452575,6.23709691 L2.99993179,6.23709691 L2.99993179,6.23198893 L2.93695267,6.23198893 L2.93695267,6.22692148 C2.90366729,6.22517828 2.87042367,6.22351615 2.83713828,6.22181349 C2.73381578,6.20478686 2.63049327,6.18780077 2.52721253,6.17077415 L2.52721253,6.16566616 C2.49743527,6.16059871 2.467658,6.15549072 2.43788074,6.15038273 L2.43788074,6.14527474 L2.42213596,6.14527474 L2.42213596,6.1402073 C2.40108724,6.13680197 2.38012204,6.13343718 2.35911508,6.13003186 L2.35911508,6.12492387 C2.34683666,6.12322121 2.3346,6.12151855 2.32232158,6.11985642 L2.32232158,6.11474843 C2.30482274,6.11134311 2.2873239,6.10793778 2.26978329,6.10453246 L2.26978329,6.09946501 L2.25403852,6.09946501 L2.25403852,6.09435702 L2.23829374,6.09435702 L2.23829374,6.08924903 L2.22250719,6.08924903 L2.22250719,6.08414104 L2.20676241,6.08414104 L2.20676241,6.07903306 L2.19097587,6.07903306 L2.19097587,6.07392507 L2.17523109,6.07392507 L2.17523109,6.06881708 L2.15944455,6.06881708 L2.15944455,6.06374963 L2.14369977,6.06374963 L2.14369977,6.05864164 L2.13317541,6.05864164 L2.13317541,6.05353365 C2.11743063,6.05012833 2.10172761,6.046723 2.08594107,6.04331768 L2.08594107,6.03820969 L2.07545847,6.03820969 L2.07545847,6.0331017 L2.05967193,6.0331017 L2.05967193,6.02803425 L2.04918933,6.02803425 L2.04918933,6.02292626 C2.04041903,6.0212236 2.03164872,6.01952094 2.02292019,6.01781828 L2.02292019,6.01275083 L2.00713364,6.01275083 L2.00713364,6.00764284 L1.99665104,6.00764284 L1.99665104,6.00253485 L1.9808645,6.00253485 L1.9808645,5.99742686 C1.97389002,5.9957242 1.96687378,5.99402154 1.95985754,5.99231887 L1.95985754,5.98725143 L1.94411276,5.98725143 L1.94411276,5.98214344 L1.9335884,5.98214344 L1.9335884,5.97703545 L1.9231058,5.97703545 L1.9231058,5.97192746 L1.91258144,5.97192746 L1.91258144,5.96686001 L1.8967949,5.96686001 L1.8967949,5.96175202 L1.8863123,5.96175202 L1.8863123,5.95664404 L1.87578794,5.95664404 L1.87578794,5.95153605 C1.86530534,5.94813072 1.85478097,5.9447254 1.84429838,5.94132007 L1.84429838,5.93625262 L1.8285536,5.93625262 L1.8285536,5.93114463 C1.818071,5.92773931 1.80754664,5.92433398 1.79702227,5.92092866 L1.79702227,5.91582067 L1.78653968,5.91582067 L1.78653968,5.91071268 L1.77601531,5.91071268 L1.77601531,5.90560469 L1.76549095,5.90560469 L1.76549095,5.90053724 L1.75500835,5.90053724 L1.75500835,5.89542926 L1.74448399,5.89542926 L1.74448399,5.89032127 L1.73400139,5.89032127 C1.73224733,5.88695648 1.73049327,5.88355116 1.72873921,5.88014583 C1.71821485,5.8767405 1.70773225,5.87333518 1.69720789,5.86992985 L1.69720789,5.8648624 L1.68672529,5.8648624 L1.68672529,5.85979496 L1.67620093,5.85979496 L1.67620093,5.85468697 L1.66571833,5.85468697 C1.66392251,5.85128164 1.66221021,5.84787632 1.66045615,5.84447099 C1.64993179,5.84110621 1.63940742,5.83770088 1.62892483,5.83429555 L1.62366265,5.82407958 C1.61313828,5.82067425 1.60265568,5.81726893 1.59213132,5.8138636 C1.59037726,5.81045828 1.5886232,5.80709349 1.58686914,5.80368816 C1.57989466,5.8019855 1.57287842,5.80028284 1.56586218,5.79858018 L1.5606,5.7883642 L1.55015916,5.7883642 L1.55015916,5.78325621 L1.5396348,5.78325621 L1.5396348,5.77814822 C1.53437262,5.7764861 1.5291522,5.77478344 1.52389002,5.77308077 L1.51862784,5.7628648 C1.5116116,5.76116213 1.50459536,5.75945947 1.49762088,5.75775681 C1.49586682,5.75439202 1.49411276,5.7509867 1.4923587,5.74758137 L1.48183434,5.74758137 C1.48008028,5.74417605 1.47836798,5.74077072 1.47657216,5.7373654 L1.46608956,5.7373654 C1.4643355,5.73400061 1.46258144,5.73059528 1.46082738,5.72718996 L1.45030302,5.72718996 C1.44859072,5.72378463 1.44683666,5.72037931 1.4450826,5.71697398 L1.43455824,5.71697398 L1.43455824,5.71190653 C1.42929606,5.71020387 1.42403387,5.70850121 1.41881346,5.70679855 L1.41355128,5.69658257 L1.40302691,5.69658257 L1.40302691,5.69147458 C1.3978065,5.68977192 1.39254432,5.68806926 1.38728213,5.68636659 C1.38552807,5.68296127 1.38377401,5.67959648 1.38201995,5.67619116 L1.37149559,5.67619116 C1.36802923,5.67108317 1.36452111,5.66597518 1.36101299,5.66086719 C0.887959629,5.34019904 0.528544316,4.90804701 0.278883063,4.37081638 L0.278883063,4.35553295 L0.273620882,4.35553295 L0.268358701,4.335101 L0.263138283,4.335101 L0.263138283,4.31981757 L0.257876102,4.31981757 L0.257876102,4.3096016 L0.252613921,4.3096016 L0.252613921,4.29431817 L0.24735174,4.29431817 L0.24735174,4.28410219 L0.242089559,4.28410219 C0.20884594,4.19065844 0.175560557,4.09713361 0.142316937,4.00364931 L0.142316937,3.9832579 L0.137054756,3.9832579 L0.137054756,3.96797448 L0.131834339,3.96797448 L0.131834339,3.9476236 L0.126572158,3.9476236 L0.126572158,3.92719165 L0.121309977,3.92719165 L0.121309977,3.90680023 L0.116047796,3.90680023 L0.116047796,3.89147627 L0.110785615,3.89147627 L0.110785615,3.86601741 L0.105565197,3.86601741 L0.105565197,3.84562599 L0.100303016,3.84562599 L0.100303016,3.82519404 L0.0950408353,3.82519404 L0.0950408353,3.80480263 L0.0897786543,3.80480263 L0.0897786543,3.77930323 L0.0845164733,3.77930323 C0.0828041763,3.7622766 0.0810083527,3.74529051 0.0792960557,3.72830442 L0.0740338747,3.72830442 C0.0722798144,3.71131833 0.0705257541,3.69429171 0.0687716937,3.67734616 L0.0635095128,3.67734616 C0.0617554524,3.65695474 0.0600013921,3.63652279 0.0582473318,3.61613138 L0.0530269142,3.61613138 L0.0530269142,3.58045654 L0.0477647332,3.58045654 L0.0477647332,3.54474116 L0.0425025522,3.54474116 L0.0425025522,3.50395833 L0.0372403712,3.50395833 L0.0372403712,3.46313497 L0.0319781903,3.46313497 C0.0285118329,3.39348795 0.0250037123,3.3238004 0.0214955916,3.2540723 C0.0100941995,3.21414081 0.00988538283,3.04918522 0.0214955916,3.0093348 L0.0214955916,2.958336 C0.023249652,2.92436382 0.0250037123,2.89035111 0.0267577726,2.85637893 L0.0319781903,2.85637893 L0.0319781903,2.80027214 C0.0486417633,2.74436805 0.0466788863,2.67119409 0.0635095128,2.61670888 L0.0635095128,2.58614203 L0.0687716937,2.58614203 C0.0705257541,2.5691154 0.0722798144,2.55212931 0.0740338747,2.53514323 L0.0792960557,2.53514323 C0.0810083527,2.5181166 0.0828041763,2.50113051 0.0845164733,2.48410388 L0.0897786543,2.48410388 L0.0897786543,2.45864502 L0.0950408353,2.45864502 L0.0950408353,2.43825361 L0.100303016,2.43825361 L0.100303016,2.41786219 L0.105565197,2.41786219 L0.105565197,2.39747078 L0.110785615,2.39747078 L0.110785615,2.37193084 L0.116047796,2.37193084 L0.116047796,2.35664741 L0.121309977,2.35664741 C0.124818097,2.336256 0.128326218,2.31586459 0.131834339,2.29547317 L0.137054756,2.29547317 L0.142316937,2.25975779 L0.147579118,2.25975779 L0.147579118,2.24447437 L0.152799536,2.24447437 L0.152799536,2.2291504 L0.158061717,2.2291504 L0.158061717,2.20875899 L0.163323898,2.20875899 L0.163323898,2.19347557 L0.168544316,2.19347557 L0.168544316,2.17819214 L0.173806497,2.17819214 L0.173806497,2.16286818 L0.179068677,2.16286818 L0.179068677,2.14758475 L0.184330858,2.14758475 L0.184330858,2.13230133 L0.189551276,2.13230133 L0.189551276,2.11697736 L0.194813457,2.11697736 C0.196567517,2.10680192 0.198321578,2.09658595 0.200075638,2.08636997 L0.205337819,2.08636997 L0.205337819,2.07619453 L0.2106,2.07619453 C0.214108121,2.06091111 0.217574478,2.04562768 0.221082599,2.03030372 L0.22634478,2.03030372 L0.22634478,2.02012828 L0.231606961,2.02012828 L0.231606961,2.00480432 L0.236869142,2.00480432 L0.236869142,1.99462888 L0.242089559,1.99462888 L0.242089559,1.97930491 L0.24735174,1.97930491 L0.24735174,1.96912948 L0.252613921,1.96912948 L0.252613921,1.95380551 L0.257876102,1.95380551 L0.257876102,1.94363008 L0.263138283,1.94363008 L0.263138283,1.92830611 L0.268358701,1.92830611 C0.270112761,1.921536 0.271866821,1.91472535 0.273620882,1.9079147 L0.278883063,1.9079147 L0.278883063,1.89263127 L0.284145244,1.89263127 L0.284145244,1.88245584 L0.289407425,1.88245584 C0.291161485,1.87564518 0.292915545,1.86883453 0.294627842,1.86202388 L0.299890023,1.86202388 L0.299890023,1.84674046 L0.305152204,1.84674046 L0.305152204,1.83652448 L0.310414385,1.83652448 L0.310414385,1.82634904 L0.315676566,1.82634904 C0.319142923,1.81613307 0.322651044,1.80591709 0.326159165,1.79574165 L0.331421346,1.79574165 L0.331421346,1.78045823 L0.336683527,1.78045823 C0.340191647,1.77028279 0.343699768,1.76006682 0.347166125,1.74985084 L0.352428306,1.74985084 L0.352428306,1.7396754 L0.357690487,1.7396754 L0.357690487,1.72945943 L0.362952668,1.72945943 L0.362952668,1.71924345 L0.368214849,1.71924345 L0.368214849,1.70906801 L0.373435267,1.70906801 L0.373435267,1.69885204 L0.378697448,1.69885204 L0.378697448,1.6886766 L0.38922181,1.68356861 C0.39097587,1.67675796 0.39272993,1.66994731 0.394483991,1.6631772 L0.399704408,1.6631772 L0.399704408,1.65296122 L0.404966589,1.65296122 L0.404966589,1.64278578 L0.41022877,1.64278578 L0.41022877,1.63256981 L0.415490951,1.63256981 L0.415490951,1.62239437 C0.418999072,1.62069171 0.422507193,1.61898904 0.42597355,1.61728638 L0.436456148,1.58667899 C0.439964269,1.58497633 0.44347239,1.58327367 0.446938747,1.581571 C0.450446868,1.57139557 0.453954988,1.56117959 0.457463109,1.55096361 C0.46097123,1.54930149 0.46447935,1.54759883 0.467987471,1.54589616 C0.469741531,1.53908551 0.471495592,1.53227486 0.473249652,1.52550475 C0.476757773,1.52376155 0.48022413,1.52209943 0.483732251,1.52039676 C0.485486311,1.51358611 0.487240371,1.506816 0.488994432,1.50000535 L0.494256613,1.50000535 C0.496010673,1.49489736 0.497764733,1.48978937 0.499518794,1.48472192 C0.502985151,1.48301926 0.506493271,1.4813166 0.510001392,1.47961394 C0.511755452,1.47280328 0.513509513,1.46599263 0.515263573,1.45922252 L0.525787935,1.45411453 L0.525787935,1.44389856 C0.529254292,1.44219589 0.532762413,1.44053377 0.536270534,1.43883111 L0.536270534,1.42861513 L0.546794896,1.42350714 L0.546794896,1.41329117 L0.552057077,1.41329117 C0.553811137,1.40822372 0.555565197,1.40311573 0.557277494,1.39800774 C0.560785615,1.39630508 0.564293735,1.39460242 0.567801856,1.39289975 L0.567801856,1.38268378 C0.571309977,1.38102165 0.574818097,1.37931899 0.578284455,1.37761633 L0.578284455,1.36744089 L0.583546636,1.36744089 C0.585300696,1.3623329 0.587054756,1.35722491 0.588808817,1.35211693 L0.599333179,1.34700894 L0.599333179,1.3368335 C0.60459536,1.33342818 0.609815777,1.33002285 0.615077958,1.32661752 L0.615077958,1.31644209 L0.62560232,1.3113341 L0.62560232,1.30111812 C0.629110441,1.29941546 0.632618561,1.2977128 0.636084919,1.29601013 C0.637838979,1.29094269 0.639593039,1.2858347 0.6413471,1.28072671 C0.646609281,1.27732138 0.651871462,1.27391606 0.657133643,1.27051073 L0.657133643,1.2603353 C0.66235406,1.25692997 0.667616241,1.25352465 0.672878422,1.25011932 L0.672878422,1.23994388 C0.678140603,1.23653856 0.683402784,1.23313323 0.688664965,1.22976845 L0.688664965,1.21955247 C0.695639443,1.21444448 0.702655684,1.20933649 0.709671926,1.2042285 L0.709671926,1.19405307 C0.71660464,1.18894508 0.723620882,1.18383709 0.730637123,1.17876964 L0.730637123,1.16855367 C0.737653364,1.16344568 0.744627842,1.15833769 0.751644084,1.1532297 L0.751644084,1.14305426 C0.760414385,1.13624361 0.769142923,1.12943296 0.777913225,1.12266285 L0.777913225,1.11244687 C0.790149884,1.10227144 0.802428306,1.09205546 0.814706729,1.08188002 C0.856637123,1.02561107 0.906794896,0.982233713 0.956535035,0.933991601 C1.00623341,0.88574949 1.05087842,0.836980364 1.10884594,0.796319155 C1.1193703,0.784400516 1.12989466,0.772522416 1.14037726,0.760644317 L1.15090162,0.760644317 L1.15616381,0.75042834 L1.16138422,0.75042834 C1.16489234,0.745320352 1.16840046,0.740212364 1.17190858,0.735104375 L1.18243295,0.735104375 C1.18418701,0.731739589 1.18594107,0.728334264 1.18765336,0.724928938 L1.19291555,0.724928938 C1.19466961,0.721523613 1.19642367,0.718118287 1.19817773,0.714712962 L1.20870209,0.714712962 C1.21392251,0.707902311 1.21918469,0.701132199 1.22444687,0.694362088 L1.23497123,0.694362088 C1.24019165,0.687551437 1.24545383,0.680740786 1.25071601,0.673930135 L1.26124037,0.673930135 C1.26474849,0.668862686 1.26825661,0.663754698 1.27172297,0.65864671 L1.28220557,0.65864671 C1.28571369,0.653538721 1.28922181,0.648430733 1.29268817,0.643322745 L1.30321253,0.643322745 C1.30672065,0.638255296 1.31022877,0.633147308 1.31373689,0.62803932 L1.32421949,0.62803932 C1.32772761,0.622931331 1.33123573,0.617823343 1.33474385,0.612755894 L1.34522645,0.612755894 C1.34698051,0.609350569 1.34873457,0.605945243 1.35048863,0.602539918 L1.36101299,0.602539918 C1.36452111,0.59743193 1.36802923,0.592364481 1.37149559,0.587256493 L1.38201995,0.587256493 L1.38728213,0.577040516 C1.39254432,0.575337853 1.3978065,0.573635191 1.40302691,0.571932528 L1.40302691,0.566865079 L1.41355128,0.566865079 L1.41881346,0.556649103 L1.42929606,0.556649103 C1.43105012,0.553284317 1.43280418,0.549878991 1.43455824,0.546473666 L1.4450826,0.546473666 C1.44683666,0.54306834 1.44859072,0.539663015 1.45030302,0.536257689 L1.46082738,0.536257689 L1.46608956,0.526041713 L1.47657216,0.526041713 C1.47836798,0.522676927 1.48008028,0.519271601 1.48183434,0.515866276 L1.4923587,0.515866276 C1.49411276,0.51246095 1.49586682,0.509055625 1.49762088,0.505650299 C1.50459536,0.503988176 1.5116116,0.502285513 1.51862784,0.50058285 L1.51862784,0.495474862 C1.52389002,0.493772199 1.5291522,0.492069537 1.53437262,0.490366874 L1.5396348,0.480150897 C1.54665104,0.478448235 1.55362552,0.476745572 1.5606,0.475083449 L1.56586218,0.464867472 C1.57287842,0.463164809 1.57989466,0.461462147 1.58686914,0.459759484 L1.59213132,0.449543507 C1.60265568,0.446178721 1.61313828,0.442773396 1.62366265,0.43936807 C1.62541671,0.435962745 1.62717077,0.432557419 1.62892483,0.429192633 C1.6358993,0.427489971 1.64291555,0.425787308 1.64993179,0.424084645 L1.64993179,0.418976657 L1.66045615,0.418976657 C1.66221021,0.415611871 1.66392251,0.412206545 1.66571833,0.40880122 L1.67620093,0.40880122 L1.67620093,0.403693232 L1.68672529,0.403693232 L1.68672529,0.398585243 L1.69720789,0.398585243 L1.69720789,0.393477255 L1.70773225,0.393477255 L1.70773225,0.388369267 C1.71474849,0.386707144 1.72172297,0.385004481 1.72873921,0.383301818 C1.73049327,0.379896493 1.73224733,0.376491167 1.73400139,0.373085842 L1.74448399,0.373085842 L1.74448399,0.367977853 L1.75500835,0.367977853 L1.75500835,0.362910405 L1.76549095,0.362910405 L1.76549095,0.357802416 L1.77601531,0.357802416 L1.77601531,0.352694428 L1.78653968,0.352694428 L1.78653968,0.34758644 L1.79702227,0.34758644 L1.79702227,0.342478452 C1.80754664,0.339073126 1.818071,0.33570834 1.8285536,0.332303015 L1.8285536,0.327195026 L1.84429838,0.327195026 L1.84429838,0.322087038 L1.85478097,0.322087038 L1.85478097,0.31697905 L1.86530534,0.31697905 L1.86530534,0.311911601 C1.87578794,0.308506276 1.8863123,0.30510095 1.8967949,0.301695625 L1.8967949,0.296587636 L1.91258144,0.296587636 L1.91258144,0.291520188 L1.9231058,0.291520188 L1.9231058,0.286412199 C1.93008028,0.284709537 1.93709652,0.283006874 1.94411276,0.281304211 L1.94411276,0.276196223 L1.95985754,0.276196223 L1.95985754,0.271088235 C1.96687378,0.269426111 1.97389002,0.267723449 1.9808645,0.266020786 L1.9808645,0.260912798 L1.99665104,0.260912798 L1.99665104,0.255804809 L2.00713364,0.255804809 L2.00713364,0.250696821 L2.02292019,0.250696821 L2.02292019,0.245629372 L2.03340278,0.245629372 L2.03340278,0.240521384 L2.04918933,0.240521384 L2.04918933,0.235413396 L2.05967193,0.235413396 L2.05967193,0.230305408 L2.07545847,0.230305408 L2.07545847,0.225197419 L2.08594107,0.225197419 L2.08594107,0.220129971 C2.10172761,0.216724645 2.11743063,0.21331932 2.13317541,0.209913994 L2.13317541,0.204806006 L2.14369977,0.204806006 L2.14369977,0.199698018 C2.15422413,0.197995355 2.16470673,0.196292692 2.17523109,0.194630569 L2.17523109,0.189522581 L2.19097587,0.189522581 L2.19097587,0.184414592 L2.20676241,0.184414592 L2.20676241,0.179306604 L2.22250719,0.179306604 L2.22250719,0.174198616 L2.23829374,0.174198616 L2.23829374,0.169131167 L2.25403852,0.169131167 L2.25403852,0.164023179 L2.26978329,0.164023179 L2.26978329,0.158915191 L2.29079026,0.158915191 L2.29079026,0.153847742 L2.3065768,0.153847742 L2.3065768,0.148739754 L2.32232158,0.148739754 L2.32232158,0.143631765 C2.3346,0.141929103 2.34683666,0.14022644 2.35911508,0.138523777 L2.35911508,0.133456328 C2.38012204,0.130051003 2.40108724,0.126645677 2.42213596,0.123240352 L2.42213596,0.118132364 L2.43788074,0.118132364 L2.43788074,0.113024375 C2.45362552,0.111321713 2.46941206,0.10961905 2.48515684,0.107956927 C2.55678097,0.084322346 2.64602923,0.0785251848 2.72153735,0.0569581232 L2.75833086,0.0569581232 L2.75833086,0.0518501349 L2.7950826,0.0518501349 L2.7950826,0.0467421466 L2.83713828,0.0467421466 L2.83713828,0.0416341584 L2.8791522,0.0416341584 L2.8791522,0.0365261701 L2.93695267,0.0365261701 L2.93695267,0.0314587214 L2.99993179,0.0314587214 L2.99993179,0.0263507331 C3.02753735,0.0187292903 3.07598283,0.0372153431 3.09452575,0.0212427449" id="Fill-2"></path>
                            </g>
                            <path d="M1.29336056,3.68591623 C1.45059954,3.75872533 1.6708594,3.81438619 1.92331879,3.81438619 C2.11697541,3.81438619 2.30031647,3.78069779 2.30031647,3.62474199 C2.30031647,3.2621559 1.21730951,3.49075864 1.21730951,2.78249148 C1.21730951,2.31498893 1.75647425,2.18708653 2.21516102,2.18708653 C2.43512854,2.18708653 2.65167146,2.21477507 2.80623759,2.25944969 L2.76685476,2.6597376 C2.6093652,2.59832012 2.4322051,2.57038834 2.25771787,2.57038834 C2.10394524,2.57038834 1.84827007,2.58186105 1.84827007,2.75192463 C1.84827007,3.06695778 2.93148585,2.85489518 2.93148585,3.55760843 C2.93148585,4.0613939 2.4322051,4.19776908 1.92331879,4.19776908 C1.71020046,4.19776908 1.44420974,4.17028324 1.2404464,4.11462239 L1.29336056,3.68591623 Z" id="Fill-5" fill="#FEFEFE"></path>
                            <polygon id="Fill-7" fill="#FEFEFE" points="3.06140742 2.22122491 4.6808645 2.22122491 4.6808645 2.58806766 3.67436798 2.58806766 3.67436798 2.98888258 4.62477633 2.98888258 4.62477633 3.35552263 3.67436798 3.35552263 3.67436798 3.79695822 4.71682274 3.79695822 4.71682274 4.16359826 3.06140742 4.16359826"></polygon>
                            <path d="M4.9690232,4.16360232 L5.58223434,4.16360232 L5.58223434,3.39590411 L5.70994664,3.39590411 C5.93734803,3.39590411 6.01628074,3.47925351 6.14132019,3.81317811 L6.27245708,4.16360232 L6.91080974,4.16360232 L6.68712529,3.63500661 C6.57369606,3.39825541 6.56087471,3.250894 6.3625406,3.20650315 L6.3625406,3.201233 C6.65956148,3.14293707 6.80448028,2.9707249 6.80448028,2.71062289 C6.80448028,2.37673883 6.47154292,2.22122897 6.06305568,2.22122897 L4.9690232,2.22122897 L4.9690232,4.16360232 Z M5.58223434,2.58807171 L5.74314849,2.58807171 C5.97719026,2.58807171 6.19126914,2.62151688 6.19126914,2.80305316 C6.19126914,3.02326421 5.9410232,3.02902083 5.74314849,3.02902083 L5.58223434,3.02902083 L5.58223434,2.58807171 Z" id="Fill-9" fill="#FEFEFE"></path>
                            <polygon id="Fill-11" fill="#FEFEFE" points="6.82443063 2.22122491 7.47552111 2.22122491 7.98515916 3.74583779 7.99225893 3.74583779 8.50732622 2.22122491 9.13578097 2.22122491 8.35280186 4.16359826 7.59559072 4.16359826"></polygon>
                            <mask id="mask-2" fill="white">
                                <use xlink:href="#path-1"></use>
                            </mask>
                            <g id="Clip-14"></g>
                            <polygon id="Fill-13" fill="#FEFEFE" mask="url(#mask-2)" points="9.27505336 4.16361853 9.8878051 4.16361853 9.8878051 2.22124518 9.27505336 2.22124518"></polygon>
                            <path d="M10.3319415,4.15956457 L10.9446933,4.15956457 L10.9446933,3.48332368 L11.1821596,3.48332368 C11.755278,3.48332368 12.0948139,3.2501805 12.0948139,2.85609516 C12.0948139,2.4172541 11.7653429,2.21739392 11.0632594,2.21739392 L10.3319415,2.21739392 L10.3319415,4.15956457 Z M10.9446933,2.58375019 L11.1028928,2.58375019 C11.3140065,2.58375019 11.4818534,2.64824868 11.4818534,2.84746022 C11.4818534,3.05242839 11.3140065,3.1166431 11.1028928,3.1166431 L10.9446933,3.1166431 L10.9446933,2.58375019 Z" id="Fill-15" fill="#57676F" mask="url(#mask-2)"></path>
                            <path d="M11.7335819,4.15956457 L12.3551875,4.15956457 L12.5360227,3.74723641 L13.3978093,3.74723641 L13.569039,4.15956457 L14.2398835,4.15956457 L13.355503,2.21739392 L12.6054334,2.21739392 L11.7335819,4.15956457 Z M13.2533499,3.38059636 L12.6777258,3.38059636 L12.9720738,2.61792507 L12.9786724,2.61792507 L13.2533499,3.38059636 Z" id="Fill-16" fill="#57676F" mask="url(#mask-2)"></path>
                            <path d="M16.2938213,4.10485234 C15.906007,4.18848552 15.616587,4.19367459 15.4062251,4.19367459 C14.7950186,4.19367459 14.0887587,3.93264017 14.0887587,3.1969277 C14.0887587,2.46360707 14.6965824,2.18278933 15.5378631,2.18278933 C15.6890046,2.18278933 16.0076172,2.19709981 16.2310928,2.26901704 L16.182355,2.69269629 C15.9916636,2.59738771 15.7676868,2.56657762 15.6235197,2.56657762 C15.1271624,2.56657762 14.7199281,2.743087 14.7199281,3.19717094 C14.7199281,3.57868901 15.0383318,3.81029169 15.4852413,3.81029169 C15.5676404,3.81029169 15.6466566,3.79938654 15.701993,3.77664383 L15.701993,3.39184205 L15.3442483,3.39184205 L15.3442483,3.025202 L16.2938213,3.025202 L16.2938213,4.10485234 Z" id="Fill-17" fill="#57676F" mask="url(#mask-2)"></path>
                        </g>
                    </g>
                </g>
            </g>
        </g>
    </g>
</svg>