<?xml version="1.0" standalone="no"?><!DOCTYPE svg PUBLIC "-//W3C//DTD SVG 1.1//EN" "http://www.w3.org/Graphics/SVG/1.1/DTD/svg11.dtd"><svg t="1747672057921" class="icon" viewBox="0 0 1638 1024" version="1.1" xmlns="http://www.w3.org/2000/svg" p-id="6846" xmlns:xlink="http://www.w3.org/1999/xlink" width="204.75" height="128"><path d="M1556.48 0H81.92a81.92 81.92 0 0 0-81.92 81.92v860.16a81.92 81.92 0 0 0 81.92 81.92h1474.56a81.92 81.92 0 0 0 81.92-81.92V81.92a81.92 81.92 0 0 0-81.92-81.92z" fill="#E1E1E1" p-id="6847"></path><path d="M1556.48 20.48H81.92a61.44 61.44 0 0 0-61.44 61.44v860.16a61.44 61.44 0 0 0 61.44 61.44h1474.56a61.44 61.44 0 0 0 61.44-61.44V81.92a61.44 61.44 0 0 0-61.44-61.44z" fill="#FFFFFF" p-id="6848"></path><path d="M558.16192 336.6912v357.72416h111.88224v-133.79584s79.13472 2.72384 95.49824 0c16.384-2.72384 54.5792-8.192 76.41088-43.70432 21.83168-35.49184 19.10784-62.79168 19.10784-84.64384 0-21.85216-5.46816-60.08832-35.47136-76.47232-30.02368-16.384-40.93952-19.10784-79.13472-19.10784h-188.29312z" fill="#323183" p-id="6849"></path><path d="M670.04416 410.4192v79.19616h51.85536c10.91584 0 38.1952-10.91584 35.47136-38.23616-2.72384-27.29984-13.63968-38.21568-27.29984-40.96-13.63968-2.72384-60.0064 0-60.0064 0z" fill="#FFFFFF" p-id="6850"></path><path d="M892.43648 341.46304v357.0688h302.8992V621.3632h-189.6448v-82.61632h171.88864v-72.35584h-171.90912v-36.864h189.6448v-88.064H892.45696z" fill="#F39219" p-id="6851"></path><path d="M1236.25472 455.4752h40.93952v-76.45184l73.66656 98.304v-142.00832h-114.60608v120.15616zM1236.25472 531.94752h40.93952v73.728l73.66656-98.304v185.69216h-114.60608v-161.11616zM1392.0256 370.76992V341.4016h12.45184c3.15392 0 5.44768 0.28672 6.8608 0.79872 1.4336 0.512 2.56 1.47456 3.39968 2.80576a8.51968 8.51968 0 0 1 1.29024 4.64896 7.8848 7.8848 0 0 1-1.9456 5.46816 9.09312 9.09312 0 0 1-5.79584 2.70336 13.70112 13.70112 0 0 1 3.15392 2.4576c0.83968 0.90112 1.96608 2.47808 3.3792 4.77184l3.584 5.7344h-7.08608l-4.3008-6.38976a39.69024 39.69024 0 0 0-3.13344-4.3008 4.54656 4.54656 0 0 0-1.78176-1.2288 9.728 9.728 0 0 0-2.9696-0.34816h-1.18784v12.288h-5.9392z m5.91872-16.95744h4.38272c2.84672 0 4.608-0.1024 5.3248-0.34816a3.21536 3.21536 0 0 0 1.65888-1.26976c0.4096-0.59392 0.6144-1.31072 0.6144-2.21184a3.64544 3.64544 0 0 0-0.79872-2.39616 3.54304 3.54304 0 0 0-2.2528-1.14688 53.3504 53.3504 0 0 0-4.32128-0.1024h-4.64896v7.4752h0.04096z" fill="#323183" p-id="6852"></path><path d="M1405.21472 384.47104a28.44672 28.44672 0 0 1-28.3648-28.38528c0-15.64672 12.73856-28.40576 28.3648-28.40576 15.64672 0 28.38528 12.75904 28.38528 28.40576s-12.73856 28.38528-28.38528 28.38528z m0-51.32288a22.95808 22.95808 0 0 0 0 45.8752 22.95808 22.95808 0 0 0 0-45.8752zM558.65344 695.78752v-360.448h137.58464c46.96064 0 77.57824 1.8432 91.8528 5.5296 21.9136 5.5296 40.28416 17.55136 55.07072 36.06528 14.78656 18.51392 22.17984 42.47552 22.17984 71.80288 0 22.6304-4.25984 41.6768-12.8 57.07776-8.51968 15.42144-19.33312 27.52512-32.50176 36.33152-13.1072 8.8064-26.48064 14.6432-40.05888 17.48992-18.432 3.52256-45.11744 5.26336-80.11776 5.26336H671.3344v130.8672h-112.68096v0.02048z m110.03904-286.72v79.17568h27.93472c20.11136 0 33.5872-1.4336 40.3456-4.36224 6.79936-2.92864 12.0832-7.4752 15.9744-13.7216 3.85024-6.20544 5.77536-13.45536 5.77536-21.7088 0-10.1376-2.68288-18.49344-8.0896-25.10848a34.44736 34.44736 0 0 0-20.52096-12.36992c-6.08256-1.24928-18.35008-1.90464-36.7616-1.90464h-24.65792zM204.8 575.63136l103.69024-5.44768c4.096 18.75968 9.66656 37.51936 22.15936 47.22688 12.4928 9.728 19.06688 14.58176 41.5744 14.58176 24.73984 0 26.99264-4.54656 39.46496-13.7216 8.3968-6.38976 12.61568-14.99136 12.61568-25.72288 0-7.33184-2.2528-13.39392-6.81984-18.18624-4.79232-4.56704-15.4624-14.27456-32.0512-18.16576-77.2096-17.16224-109.7728-32.80896-130.41664-47.0016-28.63104-19.6608-34.75456-41.53344-34.75456-76.51328 0-31.55968 15.13472-52.6336 39.87456-74.1376 24.76032-21.504 57.69216-26.78784 109.69088-26.78784 49.50016 0 86.3232 8.11008 110.3872 24.3712 24.064 16.22016 30.69952 49.82784 39.77216 81.6128l-103.69024 5.44768c-3.87072-14.17216-6.92224-28.71296-17.69472-36.29056-10.79296-7.53664-23.22432-12.86144-36.864-12.86144-13.66016 0-19.82464 2.37568-30.72 9.46176-7.2704 5.0176-10.93632 11.53024-10.93632 19.53792 0 6.8608 3.1744 12.6976 9.56416 17.5104 8.6016 6.41024 19.33312 9.97376 70.30784 21.64736 50.9952 11.6736 81.12128 28.71296 101.35552 45.60896 19.968 17.14176 29.98272 41.0624 29.98272 71.72096 0 33.3824-13.86496 62.09536-41.5744 86.1184-27.70944 24.00256-63.24224 36.02432-117.51424 36.02432-49.27488 0-93.75744-10.0352-122.4704-30.208-28.75392-20.13184-36.06528-61.27616-44.93312-95.82592z" fill="#323183" p-id="6853"></path></svg>